<svg xmlns="http://www.w3.org/2000/svg" width="29.336" height="18.693" viewBox="0 0 29.336 18.693">
  <g id="Group_632" data-name="Group 632" transform="translate(0 0)">
    <path id="Path_35498" data-name="Path 35498" d="M100.136,2021.034a1.128,1.128,0,0,1,.495,2.141l-11.188,5.474a2.043,2.043,0,0,1-1.818,0l-11.188-5.474a1.128,1.128,0,0,1,.5-2.141h23.2m0-1.5h-23.2a2.632,2.632,0,0,0-1.158,5L86.967,2030a3.557,3.557,0,0,0,3.141,0l11.188-5.474a2.632,2.632,0,0,0-1.156-5Z" transform="translate(-73.875 -2019.53)" fill="#EC7E81"/>
    <path id="Path_35499" data-name="Path 35499" d="M99.743,2045.593v8.373a1.507,1.507,0,0,1-1.5,1.5H74.93a1.5,1.5,0,0,1-1.5-1.5v-8.373l10.6,5.187a5.8,5.8,0,0,0,5.124,0l10.6-5.187m1.5-3.213a3.3,3.3,0,0,1-1.58,1.576L88.49,2049.43a4.3,4.3,0,0,1-3.8,0L73.5,2043.956a3.313,3.313,0,0,1-1.58-1.576v11.586a3.01,3.01,0,0,0,3.01,3.01H98.238a3.01,3.01,0,0,0,3.009-3.01v-11.584Z" transform="translate(-71.92 -2038.283)" fill="#EC7E81"/>
  </g>
</svg>
