<svg xmlns="http://www.w3.org/2000/svg" width="38" height="38" viewBox="0 0 38 38">
  <g id="Group_1154" data-name="Group 1154" transform="translate(-1862 -7)">
    <g id="Path_75133" data-name="Path 75133" transform="translate(1862 7)" fill="#f2f2f2">
      <path d="M 19 37 C 14.19202995300293 37 9.671830177307129 35.12767028808594 6.272079944610596 31.72792053222656 C 2.872329950332642 28.32817077636719 1 23.80797004699707 1 19 C 1 14.19202995300293 2.872329950332642 9.671830177307129 6.272079944610596 6.272079944610596 C 9.671830177307129 2.872329950332642 14.19202995300293 1 19 1 C 23.80797004699707 1 28.32817077636719 2.872329950332642 31.72792053222656 6.272079944610596 C 35.12767028808594 9.671830177307129 37 14.19202995300293 37 19 C 37 23.80797004699707 35.12767028808594 28.32817077636719 31.72792053222656 31.72792053222656 C 28.32817077636719 35.12767028808594 23.80797004699707 37 19 37 Z" stroke="none"/>
      <path d="M 19 2 C 14.45914077758789 2 10.19005966186523 3.768310546875 6.979179382324219 6.979179382324219 C 3.768310546875 10.19005966186523 2 14.45914077758789 2 19 C 2 23.54085922241211 3.768310546875 27.80994033813477 6.979179382324219 31.02082061767578 C 10.19005966186523 34.231689453125 14.45914077758789 36 19 36 C 23.54085922241211 36 27.80994033813477 34.231689453125 31.02082061767578 31.02082061767578 C 34.231689453125 27.80994033813477 36 23.54085922241211 36 19 C 36 14.45914077758789 34.231689453125 10.19005966186523 31.02082061767578 6.979179382324219 C 27.80994033813477 3.768310546875 23.54085922241211 2 19 2 M 19 0 C 29.49341011047363 0 38 8.506589889526367 38 19 C 38 29.49341011047363 29.49341011047363 38 19 38 C 8.506589889526367 38 0 29.49341011047363 0 19 C 0 8.506589889526367 8.506589889526367 0 19 0 Z" stroke="none" fill="#6f6f6f"/>
    </g>
    <g id="Group_1153" data-name="Group 1153" transform="translate(1870 14.001)">
      <path id="Path_35522" data-name="Path 35522" d="M2225.079,2259a5.458,5.458,0,1,1,5.458-5.458A5.459,5.459,0,0,1,2225.079,2259Zm0-9.427a3.97,3.97,0,1,0,3.97,3.97,3.97,3.97,0,0,0-3.97-3.97Z" transform="translate(-2214.038 -2248.081)" fill="#6f6f6f"/>
      <path id="Path_35523" data-name="Path 35523" d="M2194.519,2350.384h-14.556a3.766,3.766,0,0,1-2.786-6.3,14.489,14.489,0,0,1,20.126,0,3.767,3.767,0,0,1-2.784,6.3Zm-7.279-8.87a12.149,12.149,0,0,0-8.96,3.577,2.261,2.261,0,0,0-.4,2.462,2.219,2.219,0,0,0,2.078,1.351h14.556a2.218,2.218,0,0,0,2.077-1.351,2.262,2.262,0,0,0-.4-2.462,12.133,12.133,0,0,0-8.96-3.583Z" transform="translate(-2176.198 -2328.201)" fill="#6f6f6f"/>
    </g>
  </g>
</svg>
