<svg xmlns="http://www.w3.org/2000/svg" width="170" height="34.684" viewBox="0 0 170 34.684">
  <g id="dextersvg-01" transform="translate(-3.8 -7.32)">
    <circle id="Ellipse_286" data-name="Ellipse 286" cx="4.471" cy="4.471" r="4.471" transform="translate(5.261 20.057)" fill="#6f6f6f"/>
    <path id="Path_75137" data-name="Path 75137" d="M27.63,42H6.976a3.176,3.176,0,1,1,0-6.352H27.622A2,2,0,0,0,29.6,33.675V15.65a2,2,0,0,0-1.977-1.977H7.056a3.176,3.176,0,0,1,0-6.352H27.63a8.354,8.354,0,0,1,8.353,8.33V33.635A8.369,8.369,0,0,1,27.63,42Z" transform="translate(0 0)" fill="#6f6f6f"/>
    <path id="Path_75138" data-name="Path 75138" d="M107.232,8.6H98.323l-5.693,9.735L86.15,8.6H77.01L87.571,24.441,77.24,40.839H86.15l5.789-9.87,6.567,9.87h9.14L96.988,24.854Z" transform="translate(-15.077 -0.264)" fill="#6f6f6f"/>
    <path id="Path_75139" data-name="Path 75139" d="M47.91,40.839H67.658V34.55H55.763V27.475H66.284V21.408H55.763V14.889H67.658V8.6H47.91Z" transform="translate(-9.084 -0.264)" fill="#6f6f6f"/>
    <path id="Path_75140" data-name="Path 75140" d="M203.91,28.07a9.363,9.363,0,0,0,7.147-9.322c0-5.606-3.97-10.148-11.855-10.148H186.02V40.839h7.853V28.666h1.882l6.71,12.173h8.862Zm-5.145-4.963H193.9V15.119h4.868c2.946,0,4.32,1.588,4.32,3.97,0,2.533-1.374,4.018-4.32,4.018Z" transform="translate(-37.527 -0.264)" fill="#6f6f6f"/>
    <path id="Path_75141" data-name="Path 75141" d="M154.76,40.839h19.748V34.55H162.613V27.475h10.521V21.408H162.613V14.889h11.895V8.6H154.76Z" transform="translate(-31.089 -0.264)" fill="#6f6f6f"/>
    <path id="Path_75142" data-name="Path 75142" d="M118.37,14.889h8.544v25.95h7.853V14.889h8.544V8.6H118.37Z" transform="translate(-23.595 -0.264)" fill="#6f6f6f"/>
  </g>
</svg>
