<svg xmlns="http://www.w3.org/2000/svg" width="28.28" height="28" viewBox="0 0 28.28 28">
  <g id="iconfinder_User_Interface_Attachment_file_attach_pin_UI_7548867" transform="translate(-0.5 -0.653)">
    <path id="Path_64647" data-name="Path 64647" d="M16.723,6.471,8.447,14.748A4.209,4.209,0,0,0,14.4,20.7l7.049-7.049a1.355,1.355,0,1,0-1.916-1.916l-7.049,7.049a1.5,1.5,0,0,1-2.121-2.121l8.276-8.277A4.355,4.355,0,0,1,24.8,14.546l-9.285,9.285a7.209,7.209,0,0,1-10.2-10.2L15.986,2.966A1.355,1.355,0,0,0,14.07,1.05L3.4,11.72A9.919,9.919,0,1,0,17.428,25.748l9.285-9.285a7.064,7.064,0,1,0-9.99-9.991Z" fill="#fff"/>
  </g>
</svg>
