<svg xmlns="http://www.w3.org/2000/svg" width="26.105" height="20.971" viewBox="0 0 26.105 20.971">
  <g id="Group_1252" data-name="Group 1252" transform="translate(-134.21 -104)">
    <g id="Group_1248" data-name="Group 1248" transform="translate(-42.118 -43.674)">
      <g id="Group_1207" data-name="Group 1207" transform="translate(176.328 147.674)">
        <ellipse id="Ellipse_270" data-name="Ellipse 270" cx="3.642" cy="3.642" rx="3.642" ry="3.642" transform="translate(9.41 0)" fill="#aeadaf"/>
        <ellipse id="Ellipse_271" data-name="Ellipse 271" cx="6.53" cy="6.53" rx="6.53" ry="6.53" transform="translate(6.522 7.911)" fill="#aeadaf"/>
        <path id="Path_74287" data-name="Path 74287" d="M1195.7,63a3.628,3.628,0,0,0-2.628,1.123,4.633,4.633,0,0,1,0,5.038A3.642,3.642,0,1,0,1195.7,63Z" transform="translate(-1176.12 -63)" fill="#aeadaf"/>
        <path id="Path_74288" data-name="Path 74288" d="M1198.759,126a6.511,6.511,0,0,0-2.189.377,7.525,7.525,0,0,1,0,12.306A6.53,6.53,0,1,0,1198.759,126Z" transform="translate(-1179.181 -118.089)" fill="#aeadaf"/>
        <path id="Path_74289" data-name="Path 74289" d="M1084.7,63a3.627,3.627,0,0,1,2.628,1.123,4.632,4.632,0,0,0,0,5.038A3.642,3.642,0,1,1,1084.7,63Z" transform="translate(-1078.171 -63)" fill="#aeadaf"/>
        <path id="Path_74290" data-name="Path 74290" d="M1064.619,126a6.516,6.516,0,0,1,2.189.377,7.524,7.524,0,0,0,0,12.306A6.53,6.53,0,1,1,1064.619,126Z" transform="translate(-1058.092 -118.089)" fill="#aeadaf"/>
        <ellipse id="Ellipse_272" data-name="Ellipse 272" cx="0.953" cy="0.953" rx="0.953" ry="0.953" transform="translate(9.988 13.656)"/>
        <path id="Path_74291" data-name="Path 74291" d="M1140.2,157.5h-4.408a.679.679,0,1,1,0-1.359h4.408a.428.428,0,0,0,.422-.422v-3.835a.423.423,0,0,0-.422-.422h-4.4a.679.679,0,0,1,0-1.359h4.4a1.783,1.783,0,0,1,1.781,1.782v3.831A1.782,1.782,0,0,1,1140.2,157.5Z" transform="translate(-1125.438 -139.162)"/>
      </g>
    </g>
    <g id="Group_1249" data-name="Group 1249" transform="translate(-42.118 -43.674)">
      <g id="Group_1207-2" data-name="Group 1207" transform="translate(176.328 147.674)">
        <ellipse id="Ellipse_270-2" data-name="Ellipse 270" cx="3.642" cy="3.642" rx="3.642" ry="3.642" transform="translate(9.41 0)" fill="#aeadaf"/>
        <ellipse id="Ellipse_271-2" data-name="Ellipse 271" cx="6.53" cy="6.53" rx="6.53" ry="6.53" transform="translate(6.522 7.911)" fill="#aeadaf"/>
        <path id="Path_74287-2" data-name="Path 74287" d="M1195.7,63a3.628,3.628,0,0,0-2.628,1.123,4.633,4.633,0,0,1,0,5.038A3.642,3.642,0,1,0,1195.7,63Z" transform="translate(-1176.12 -63)" fill="#aeadaf"/>
        <path id="Path_74288-2" data-name="Path 74288" d="M1198.759,126a6.511,6.511,0,0,0-2.189.377,7.525,7.525,0,0,1,0,12.306A6.53,6.53,0,1,0,1198.759,126Z" transform="translate(-1179.181 -118.089)" fill="#aeadaf"/>
        <path id="Path_74289-2" data-name="Path 74289" d="M1084.7,63a3.627,3.627,0,0,1,2.628,1.123,4.632,4.632,0,0,0,0,5.038A3.642,3.642,0,1,1,1084.7,63Z" transform="translate(-1078.171 -63)" fill="#aeadaf"/>
        <path id="Path_74290-2" data-name="Path 74290" d="M1064.619,126a6.516,6.516,0,0,1,2.189.377,7.524,7.524,0,0,0,0,12.306A6.53,6.53,0,1,1,1064.619,126Z" transform="translate(-1058.092 -118.089)" fill="#aeadaf"/>
        <ellipse id="Ellipse_272-2" data-name="Ellipse 272" cx="0.953" cy="0.953" rx="0.953" ry="0.953" transform="translate(9.988 13.656)" fill="#e3e0e0"/>
        <path id="Path_74291-2" data-name="Path 74291" d="M1140.2,157.5h-4.408a.679.679,0,1,1,0-1.359h4.408a.428.428,0,0,0,.422-.422v-3.835a.423.423,0,0,0-.422-.422h-4.4a.679.679,0,0,1,0-1.359h4.4a1.783,1.783,0,0,1,1.781,1.782v3.831A1.782,1.782,0,0,1,1140.2,157.5Z" transform="translate(-1125.438 -139.162)" fill="#e3e0e0"/>
      </g>
    </g>
  </g>
</svg>
