<svg xmlns="http://www.w3.org/2000/svg" width="33.001" height="13.754" viewBox="0 0 33.001 13.754">
  <g id="Group_1358" data-name="Group 1358" transform="translate(8418.489 4081.622)">
    <g id="Group_1357" data-name="Group 1357" transform="translate(-8418.489 -4081.622)">
      <path id="Path_74801" data-name="Path 74801" d="M919.18,133.067l-4.61-.466-5.618-.524a5.4,5.4,0,0,1-4.282-3.176h0c-.011-.025-.023-.05-.036-.073a.325.325,0,0,1-.019-.1.311.311,0,0,1,.2-.292l.129-.022,3.017-.475a4,4,0,0,0,3.179-4.506.7.7,0,0,0-.017-.1l-12.571,1.981A1.864,1.864,0,0,0,896.783,124h-4.817a1.864,1.864,0,0,0-1.857,1.864v9.364a1.864,1.864,0,0,0,1.857,1.855h4.817a1.864,1.864,0,0,0,1.805-1.437l24.021,1.431a3.174,3.174,0,0,0,.5,0C922.914,134.649,921.3,133.5,919.18,133.067Z" transform="translate(-890.11 -123.33)" fill="#aeadaf"/>
      <rect id="Rectangle_1964" data-name="Rectangle 1964" width="6.265" height="1.128" transform="matrix(0.993, 0.121, -0.121, 0.993, 21.475, 6.959)" fill="#aeadaf"/>
      <rect id="Rectangle_1965" data-name="Rectangle 1965" width="6.265" height="1.128" transform="matrix(0.993, 0.121, -0.121, 0.993, 21.647, 5.531)" fill="#aeadaf"/>
      <rect id="Rectangle_1966" data-name="Rectangle 1966" width="6.265" height="1.128" transform="matrix(0.993, 0.121, -0.121, 0.993, 21.82, 4.102)" fill="#aeadaf"/>
      <rect id="Rectangle_1967" data-name="Rectangle 1967" width="6.265" height="1.128" transform="matrix(0.993, 0.121, -0.121, 0.993, 21.995, 2.675)" fill="#aeadaf"/>
    </g>
  </g>
</svg>
