<svg xmlns="http://www.w3.org/2000/svg" width="568.89" height="337.04" viewBox="0 0 568.89 337.04">
  <g id="OBJECTS" transform="translate(-72.838 -19.675)">
    <path id="Path_64760" data-name="Path 64760" d="M111,272.14c-8.51,6.37-32.56,11.89-32.53,9.29S98.79,261,104.6,262.33,111,272.14,111,272.14Z" fill="#d37d80"/>
    <path id="Path_64761" data-name="Path 64761" d="M130.58,292c-5.76,8.93-26.38,22.49-27.25,20s12-26.29,17.88-27S130.58,292,130.58,292Z" fill="#d37d80"/>
    <path id="Path_64762" data-name="Path 64762" d="M92.11,90.63l4.49-7.12,5.06,2.55-4.01,6.85Z" fill="#ad7a59"/>
    <path id="Path_64763" data-name="Path 64763" d="M98.49,85.67c-3.65-2.26-2.41-5.75-.3-8.34s5.09-4,5.37-3.74-1,1.81-1,1.81,2.19-1.34,3.54-1.94c.69-.32-1.47,2.87-1.29,3s2.68-2.51,3.09-2.17c.69.37-1.49,3.67-1.49,3.67s2.49-2,2.57-1.17-4.31,4.94-4.31,4.94,2.38-1.32,2.31-.11S102.78,88.34,98.49,85.67Z" fill="#ad7a59"/>
    <path id="Path_64764" data-name="Path 64764" d="M172.7,80.06l-3.24-7.77-5.4,1.66,2.79,7.42Z" fill="#ad7a59"/>
    <path id="Path_64765" data-name="Path 64765" d="M167.24,74.1c4-1.62,3.34-5.26,1.7-8.17s-4.35-4.78-4.66-4.59.73,2,.73,2-1.94-1.69-3.17-2.51c-.63-.43,1,3.08.76,3.22s-2.22-2.92-2.68-2.66c-.75.25.85,3.87.85,3.87s-2.12-2.42-2.33-1.59,3.42,5.6,3.42,5.6-2.13-1.71-2.27-.5S162.56,76,167.24,74.1Z" fill="#ad7a59"/>
    <path id="Path_64766" data-name="Path 64766" d="M179.42,230.46s24.37,65.86,9,80.73C179.19,320.13,125.1,301,125.1,301l3.44-10.78L161.36,295l-8.28-41.73L165,228.91Z" fill="#060606"/>
    <path id="Path_64767" data-name="Path 64767" d="M153.82,221.32s-25.49,16.25-22,32.35S133,295.53,133,295.53l-22.62-26.8-7.88,8.13s22.17,52.55,46.28,45.08c23.44-7.27,22.16-86.85,22.16-86.85Z" fill="#41403e"/>
    <path id="Path_64768" data-name="Path 64768" d="M145.62,132.8c2.73,8.14-.66,13.77-6.26,15.65s-11.29-.71-14-8.85-.07-15,5.53-16.9S142.89,124.65,145.62,132.8Z" fill="#ad7a59"/>
    <path id="Path_64769" data-name="Path 64769" d="M130.71,249.45c31.66,0,50.51-17.22,50.51-17.22s-2.89-50.17.32-62.54c4.54-17.5,6.93-44.95,7.62-59.54S174,77.58,174,77.58L162.37,80s9.26,18.59,9.26,29.71-1.3,22.21-10.67,30.28c-22,18.92-45,20.79-52.17,10.64-9.25-13.16-17.05-19.49-15.59-28.74s10.72-29.71,10.72-29.71L93.69,89.2s-25.81,25.33-20,46.76,33.12,53.09,33.12,53.09Z" fill="#ef7353"/>
    <path id="Path_64770" data-name="Path 64770" d="M131.55,157.7c-1.77-2.21-.59-15-.59-15l10.16,1,2.46,10s1.29,7-3.2,8S134.14,161,131.55,157.7Z" fill="#ad7a59"/>
    <path id="Path_64771" data-name="Path 64771" d="M129.88,130.07s4,1.68,4.34-.77,7.37,1,9.09-2.54,1.34-9.34-1.6-9.64-7.9,5.87-10.52,3.12S118.71,123,119,127.37s-.11,13.15,5.41,15.72,7.6-2.93,6.41-6.26a18.51,18.51,0,0,1-.94-6.76Z" fill="#060606"/>
    <circle id="Ellipse_231" data-name="Ellipse 231" cx="2.92" cy="2.92" r="2.92" transform="translate(125.53 134.49)" fill="#ad7a59"/>
    <circle id="Ellipse_232" data-name="Ellipse 232" cx="2.92" cy="2.92" r="2.92" transform="translate(140.96 129.12)" fill="#ad7a59"/>
    <ellipse id="Ellipse_233" data-name="Ellipse 233" cx="0.85" cy="1.06" rx="0.85" ry="1.06" transform="translate(135.275 134.81) rotate(-15.64)" fill="#060606"/>
    <ellipse id="Ellipse_234" data-name="Ellipse 234" cx="0.85" cy="1.06" rx="0.85" ry="1.06" transform="translate(140.89 132.821) rotate(-15.64)" fill="#060606"/>
    <path id="Path_64772" data-name="Path 64772" d="M141.16,138.8l-.34-.56c.19-.11.73-.51.79-.89s-.92-1-1.89-1.65l.35-.55c.87.55,2.31,1.58,2.19,2.31A2.4,2.4,0,0,1,141.16,138.8Z" fill="#634242"/>
    <path id="Path_64773" data-name="Path 64773" d="M138.85,141.87l4.52-2s.23,2.07-.9,2.92S138.85,141.87,138.85,141.87Z" fill="#e7e3ff"/>
    <path id="Path_64774" data-name="Path 64774" d="M135.31,306.21a19.21,19.21,0,0,1-3.45-12.36l1.29.16a18.34,18.34,0,0,0,3.24,11.45Z" fill="#060606"/>
    <path id="Path_64775" data-name="Path 64775" d="M133.55,262.14l-.81-1c.07-.06,7.19-5.81,9.53-12.37l1.23.44C141,256.1,133.86,261.9,133.55,262.14Z" fill="#060606"/>
    <path id="Path_64776" data-name="Path 64776" d="M170.8,261.32l-1.27-.35c3.75-13.58-.25-17.32-.29-17.36l.87-1C170.3,242.8,174.75,247,170.8,261.32Z" fill="#060606"/>
    <path id="Path_64777" data-name="Path 64777" d="M631.23,135.49l4.43-7.16-4.5-3.42-4.4,6.59Z" fill="#e7a376"/>
    <path id="Path_64778" data-name="Path 64778" d="M632.89,127.58c3.64,2.29,6.23-.35,7.63-3.38s1.35-6.32,1-6.46-1.17,1.73-1.17,1.73.24-2.55.2-4c0-.76-1.94,2.58-2.18,2.49s1.08-3.51.6-3.73c-.64-.46-2.64,3-2.64,3s.73-3.13-.08-2.83-2.56,6.05-2.56,6.05.16-2.73-.91-2.14S628.61,124.89,632.89,127.58Z" fill="#e7a376"/>
    <path id="Path_64779" data-name="Path 64779" d="M520.1,126.36l-.96-8.37,5.53-1.18,1.18,7.85Z" fill="#e7a376"/>
    <path id="Path_64780" data-name="Path 64780" d="M522,118.5c-4.27.52-5.48-3-5.46-6.32s1.47-6.29,1.83-6.28.32,2.07.32,2.07.87-2.41,1.54-3.73c.35-.68.66,3.16.91,3.18s.52-3.64,1-3.63c.78-.14,1.14,3.8,1.14,3.8s.67-3.15,1.27-2.53-.26,6.56-.26,6.56,1-2.53,1.73-1.55S527,117.89,522,118.5Z" fill="#e7a376"/>
    <path id="Path_64781" data-name="Path 64781" d="M606.84,261.49l-4.68-5a4.78,4.78,0,0,1,.42-6.95s15.7-19.86,17.67-14.71-6.42,22.23-6.42,22.23Z" fill="#f2a61c"/>
    <path id="Path_64782" data-name="Path 64782" d="M531.58,300.11s5.84,1.46,7.79,3.41,14.12,19.09,10.72,21.43c-7.79,5.36-24.84-17.53-24.84-17.53S525.25,300.6,531.58,300.11Z" fill="#f2a61c"/>
    <path id="Path_64783" data-name="Path 64783" d="M549.6,246.53S480,268,477,278.19s48.22,32.15,48.22,32.15l6.33-10.23-9.26-9.74s21.44-9.74,35.07-6.82,50.66,29.71,61.86,23.38-5.84-49.2-5.84-49.2H602.69l1,15.1-20-15.58Z" fill="#e7e3ff"/>
    <path id="Path_64784" data-name="Path 64784" d="M563.73,182.24c15.87,3.68,29-.66,40.42-16.57,8.77-12.17,23.38-36.53,23.38-36.53l7.31,4.39c1,3.41-30.48,65.38-39.94,91.08-10.3,28-9.74,34.58-9.74,34.58-19.63,5.55-40,1.43-51.63-8.28,0,0,9.25-43.83,3.41-58.45s-19-69.16-19-69.16l8.28-1S547.85,178.55,563.73,182.24Z" fill="#5265ff"/>
    <path id="Path_64785" data-name="Path 64785" d="M522.31,291.28c-.08-.1-8.25-9.67-12.94-12l.58-1.17c4.94,2.47,13,11.94,13.36,12.34Z" fill="#060606"/>
    <path id="Path_64786" data-name="Path 64786" d="M616.27,287.8c-.07-.11-6.84-10.69-13.49-15.91l.8-1c6.83,5.36,13.51,15.79,13.79,16.23Z" fill="#060606"/>
    <path id="Path_64787" data-name="Path 64787" d="M553,282.46c-3.55-5.07,1.17-20.84,1.37-21.51l1.26.38c-1.33,4.39-4.2,16.6-1.56,20.38Z" fill="#060606"/>
    <path id="Path_64788" data-name="Path 64788" d="M532.25,257a10,10,0,0,1-5.94-1.66l.8-1c.17.13,4.21,3.11,11.51-.08l.53,1.2a17.2,17.2,0,0,1-6.9,1.54Z" fill="#060606"/>
    <path id="Path_64789" data-name="Path 64789" d="M590.17,265c-4.8,0-12.69-3.55-13.08-3.73l.55-1.19c2.91,1.32,11.12,4.52,14.11,3.39l.46,1.23a6,6,0,0,1-2.04.3Z" fill="#060606"/>
    <path id="Path_64790" data-name="Path 64790" d="M561.93,160.46c-4.07,7.57-1.68,13.69,3.52,16.48s11.24,1.22,15.31-6.34,2.62-14.8-2.58-17.6S566,152.9,561.93,160.46Z" fill="#e7a376"/>
    <path id="Path_64791" data-name="Path 64791" d="M577.31,186.56c1.51-2.4-1.1-15-1.1-15l-10,2.11-1.32,10.21s-1.13,5,3.45,5.51S575.1,190.07,577.31,186.56Z" fill="#e7a376"/>
    <circle id="Ellipse_235" data-name="Ellipse 235" cx="2.92" cy="2.92" r="2.92" transform="translate(560.85 157.09)" fill="#e7a376"/>
    <ellipse id="Ellipse_236" data-name="Ellipse 236" cx="1.06" cy="0.85" rx="1.06" ry="0.85" transform="matrix(0.429, -0.903, 0.903, 0.429, 569.355, 165.42)" fill="#060606"/>
    <ellipse id="Ellipse_237" data-name="Ellipse 237" cx="1.06" cy="0.85" rx="1.06" ry="0.85" transform="matrix(0.429, -0.903, 0.903, 0.429, 564.171, 162.502)" fill="#060606"/>
    <path id="Path_64792" data-name="Path 64792" d="M565.31,167.14a2.38,2.38,0,0,1-.86-1.51c0-.74,1.6-1.51,2.55-1.91l.25.61a5.5,5.5,0,0,0-2.15,1.31c0,.38.47.86.63,1Z" fill="#ad7a59"/>
    <path id="Path_64793" data-name="Path 64793" d="M567.07,170.55l-4.13-2.75s-.57,2,.41,3S567.07,170.55,567.07,170.55Z" fill="#e7e3ff"/>
    <path id="Path_64794" data-name="Path 64794" d="M570.73,153.44s-9,6.94-7.86,2,9.32-6,12.06-17.17,13.52-7.49,14.61-12.24,15-1.28,15,2.56-4.2,5.66-.37,12.05-4.38,8-6,15-9.5,6.57-10.23,11.14-7.31,7.86-8.4,6.58-3.11-6.58-2.93-11S569.08,160.74,570.73,153.44Z" fill="#060606"/>
    <circle id="Ellipse_238" data-name="Ellipse 238" cx="2.92" cy="2.92" r="2.92" transform="translate(575.15 165)" fill="#e7a376"/>
    <path id="Path_64795" data-name="Path 64795" d="M457.54,318.61c3,10.2,18.9,29.06,20.43,27s-4-28.59-9.46-31S457.54,318.61,457.54,318.61Z" fill="#e7e3ff"/>
    <path id="Path_64796" data-name="Path 64796" d="M398.11,311.9c-1.26,10.55,6,34.14,8.23,32.81s7.54-27.87,3.44-32.22S398.11,311.9,398.11,311.9Z" fill="#e7e3ff"/>
    <path id="Path_64797" data-name="Path 64797" d="M469.86,244.56l-5.22,6.61-4.76-3.07,4.71-6.39Z" fill="#4a3139"/>
    <path id="Path_64798" data-name="Path 64798" d="M463,248.82c3.39,2.64,1.79,6-.58,8.32s-5.48,3.42-5.73,3.16,1.23-1.69,1.23-1.69-2.32,1.1-3.72,1.56c-.73.24,1.76-2.7,1.6-2.89s-2.94,2.21-3.3,1.83c-.65-.45,1.87-3.49,1.87-3.49s-2.7,1.75-2.68.89,4.81-4.46,4.81-4.46-2.51,1.07-2.32-.13S459,245.71,463,248.82Z" fill="#4a3139"/>
    <path id="Path_64799" data-name="Path 64799" d="M393.81,39l3.24-7.78,5.41,1.66-2.8,7.43Z" fill="#4a3139"/>
    <path id="Path_64800" data-name="Path 64800" d="M399.27,33c-4-1.63-3.34-5.26-1.7-8.17s4.35-4.78,4.66-4.6-.73,2-.73,2,1.94-1.69,3.17-2.52c.63-.42-1,3.08-.76,3.22s2.23-2.92,2.68-2.65c.75.24-.85,3.86-.85,3.86s2.12-2.42,2.33-1.59-3.42,5.6-3.42,5.6,2.13-1.71,2.27-.5S404,35,399.27,33Z" fill="#4a3139"/>
    <path id="Path_64801" data-name="Path 64801" d="M407,189.11s-65.65,57.44-60.1,78.09c3.33,12.42,50.63,49.47,50.63,49.47l5.85-6.22L378.42,267.2l43.58-48,2.25-27Z" fill="#5265ff"/>
    <path id="Path_64802" data-name="Path 64802" d="M437.77,191.36l6.5,25.95-9.75,67.21,27.77,31.18-3,7.9s-40-13.47-56.89-32.27c-16.39-18.27,13.59-97,13.59-97Z" fill="#5265ff"/>
    <path id="Path_64803" data-name="Path 64803" d="M461,183.06c-3.24,2.59-17.18,35.32-17.18,35.32-29.16,17.5-48.6-17.5-48.6-17.5s2.88-50.17-.33-62.54c-4.53-17.5-7.73-36.61-8.42-51.2s4.86-52.49,4.86-52.49L403,37s.69,18.77.69,29.89,4.17,32,11.82,41.69,34.16,18.73,45.17,27.8c14.26,11.75,27.84,50,27.84,63.62s-19.47,48.85-19.47,48.85l-10.25-7.17s8.88-34.85,6.83-41S461,183.06,461,183.06Z" fill="#d37d80"/>
    <path id="Path_64804" data-name="Path 64804" d="M426.24,106.4c-.45,8.58,4.33,13.09,10.23,13.39s10.68-3.71,11.13-12.28-4-14.5-9.86-14.8S426.68,97.82,426.24,106.4Z" fill="#4a3139"/>
    <path id="Path_64805" data-name="Path 64805" d="M444.2,127.55c1.85-2.13-2.14-14.24-2.14-14.24l-10.19.56.46,9.19s-1.56,6.9,2.89,8.11S441.48,130.69,444.2,127.55Z" fill="#4a3139"/>
    <circle id="Ellipse_239" data-name="Ellipse 239" cx="2.92" cy="2.92" r="2.92" transform="translate(444.06 104.05)" fill="#4a3139"/>
    <circle id="Ellipse_240" data-name="Ellipse 240" cx="2.92" cy="2.92" r="2.92" transform="translate(424.17 102.92)" fill="#4a3139"/>
    <ellipse id="Ellipse_241" data-name="Ellipse 241" cx="1.06" cy="0.85" rx="1.06" ry="0.85" transform="translate(438.345 107.068) rotate(-89.93)" fill="#060606"/>
    <ellipse id="Ellipse_242" data-name="Ellipse 242" cx="1.06" cy="0.85" rx="1.06" ry="0.85" transform="translate(432.397 106.658) rotate(-89.93)" fill="#060606"/>
    <path id="Path_64806" data-name="Path 64806" d="M435.39,110.53a2.63,2.63,0,0,1-1.54-1.09c-.27-.58.24-1.59,1.52-3l.74.68a6.12,6.12,0,0,0-1.34,2,2,2,0,0,0,.87.48Z" fill="#634242"/>
    <path id="Path_64807" data-name="Path 64807" d="M438.48,112.7l-4.9-.73s.34,2.06,1.66,2.58S438.48,112.7,438.48,112.7Z" fill="#e7e3ff"/>
    <path id="Path_64808" data-name="Path 64808" d="M426.49,95.21c-1.15,5.94.62,9.12.62,9.12s1.64-6.07,5-7.51c1.94-.83,8.33-1,10.82.94,1,.79,3.58,8.48,3.58,8.48l2.14-3.45s4.83-5.46,3.87-8.22c-2.14-6.17-5.7-3.63-8.7-5.17s-8.44-8-8.44-8l-.93,4.4-4.92-3.7-1.05,6.44-2.58-2.88Z" fill="#060606"/>
    <path id="Path_64809" data-name="Path 64809" d="M402.07,243.1l-1.31-.09a115.533,115.533,0,0,1,2.07-15.15c1.39-5.53,5.74-11.27,5.92-11.51l1.05.8c-.05,0-4.38,5.77-5.7,11S402.08,243,402.07,243.1Z" fill="#060606"/>
    <path id="Path_64810" data-name="Path 64810" d="M441.61,233.61c-.26-.25-6.28-6.3-7.68-10.5l1.25-.42c1.3,3.91,7.29,9.94,7.35,10Z" fill="#060606"/>
    <path id="Path_64811" data-name="Path 64811" d="M392.77,207.92a5.61,5.61,0,0,1-4.11-1.64l.92-.92c3,3,8.35-.4,8.41-.43l.71,1.1a12.47,12.47,0,0,1-5.93,1.89Z" fill="#060606"/>
    <path id="Path_64812" data-name="Path 64812" d="M290.78,328.46l5,4.66a4.78,4.78,0,0,1,0,7s-14.39,20.82-16.69,15.82,5-22.6,5-22.6Z" fill="#e7e3ff"/>
    <path id="Path_64813" data-name="Path 64813" d="M271.11,229.64s-11.81,50.78-11.81,64.62c0,11.69,24.35,40.92,24.35,40.92l9.75-5.36L278.3,286s37-38.48,28.73-66.24S271.11,229.64,271.11,229.64Z" fill="#dd8b00"/>
    <path id="Path_64814" data-name="Path 64814" d="M310.17,291.84l6.76-1a4.79,4.79,0,0,1,5.45,4.34s7.22,24.26,1.88,22.92-14.5-18-14.5-18Z" fill="#e7e3ff"/>
    <path id="Path_64815" data-name="Path 64815" d="M341.27,162.59l1.13-8.34-5.51-1.29-1.33,7.82Z" fill="#634242"/>
    <path id="Path_64816" data-name="Path 64816" d="M339.57,154.7c4.25.6,5.53-2.86,5.58-6.21s-1.34-6.31-1.71-6.31-.36,2.06-.36,2.06-.82-2.43-1.46-3.76c-.34-.69-.73,3.14-1,3.16s-.45-3.65-1-3.65c-.77-.16-1.21,3.77-1.21,3.77s-.61-3.16-1.22-2.55.13,6.56.13,6.56-1-2.55-1.7-1.57S334.56,154,339.57,154.7Z" fill="#634242"/>
    <path id="Path_64817" data-name="Path 64817" d="M241.3,111.62l2.65-8,5.52,1.26-2.24,7.61Z" fill="#634242"/>
    <path id="Path_64818" data-name="Path 64818" d="M246.3,105.27c-4.08-1.32-3.72-5-2.29-8s4-5.09,4.3-4.93-.58,2-.58,2a40.522,40.522,0,0,1,3-2.75c.6-.47-.73,3.14-.52,3.27s2-3.08,2.48-2.85c.76.19-.57,3.92-.57,3.92s1.94-2.57,2.22-1.76-3,5.84-3,5.84,2-1.86,2.23-.67S251.11,106.83,246.3,105.27Z" fill="#634242"/>
    <path id="Path_64819" data-name="Path 64819" d="M279.13,276.19l33.75,14.18-3.41,11.2s-62.35-13.64-63.81-24.84C244,263.62,286,219.44,286,219.44l22.7-2.82S325.89,250.86,279.13,276.19Z" fill="#f2a61c"/>
    <path id="Path_64820" data-name="Path 64820" d="M292.42,156.91c14.13.48,30.69,19,36.05,19.48s5.84-19,5.84-19l9.74,1s1.46,32.63-7.3,39c-7,5.07-27.28-10.72-28.25-1,0,0,3.74,15.81,2.92,27.28s-32,7.36-40.31,6c-9.86-1.62-16.19-34-17.65-41.32-.39-1.93-23.34-18.52-24.59-35.32-1.7-22.92,11.43-45.29,11.43-45.29l9.79,2.77s-12.65,31.3-5,37.9c8.85,7.63,15.68,9.11,22.24,10C278.3,159.83,278.3,156.42,292.42,156.91Z" fill="#060606"/>
    <path id="Path_64821" data-name="Path 64821" d="M263.65,140.28c-.76,8.56,3.85,13.24,9.73,13.76s10.81-3.31,11.57-11.87-3.43-14.63-9.31-15.15S264.4,131.73,263.65,140.28Z" fill="#634242"/>
    <path id="Path_64822" data-name="Path 64822" d="M282.28,160.9c1.53-2.38-1-15-1-15l-10,2-1.47,12.16s-.52,5.1,4.06,5.66S280,164.39,282.28,160.9Z" fill="#634242"/>
    <circle id="Ellipse_243" data-name="Ellipse 243" cx="2.92" cy="2.92" r="2.92" transform="translate(262.24 136.22)" fill="#634242"/>
    <ellipse id="Ellipse_244" data-name="Ellipse 244" cx="1.06" cy="0.85" rx="1.06" ry="0.85" transform="translate(272.401 141.891) rotate(-87.84)" fill="#060606"/>
    <ellipse id="Ellipse_245" data-name="Ellipse 245" cx="1.06" cy="0.85" rx="1.06" ry="0.85" transform="matrix(0.04, -1, 1, 0.04, 267.202, 141.406)" fill="#060606"/>
    <path id="Path_64823" data-name="Path 64823" d="M269.39,145.08A2.36,2.36,0,0,1,268,144c-.29-.67.87-2,1.59-2.75l.47.45a5.66,5.66,0,0,0-1.46,2.06c.15.34.77.6,1,.67Z" fill="#4a3139"/>
    <path id="Path_64824" data-name="Path 64824" d="M272.35,147.53l-4.88-.9s.27,2.07,1.57,2.63S272.35,147.53,272.35,147.53Z" fill="#e7e3ff"/>
    <path id="Path_64825" data-name="Path 64825" d="M268.07,131.09s3.41,5.85,9.25,6.33,3.9,13.16,6.33,11.69,12.91-15.58,2.2-23.38-20.7.73-21.68,4.14a14.691,14.691,0,0,0-.24,6.58S265.88,134,268.07,131.09Z" fill="#060606"/>
    <path id="Path_64826" data-name="Path 64826" d="M284.34,127.56s-6.87-11.72,3.63-11.31S294.44,136,284.34,127.56Z" fill="#060606"/>
    <circle id="Ellipse_246" data-name="Ellipse 246" cx="2.92" cy="2.92" r="2.92" transform="translate(278.5 137.85)" fill="#634242"/>
    <rect id="Rectangle_1838" data-name="Rectangle 1838" width="9.99" height="1.31" transform="matrix(0.731, -0.683, 0.683, 0.731, 268.602, 238.48)" fill="#060606"/>
    <path id="Path_64827" data-name="Path 64827" d="M275.37,278.56l-.48-1.22,2.7-1.08-5-.83.21-1.29,9.62,1.6Z" fill="#060606"/>
    <path id="Path_64828" data-name="Path 64828" d="M146.49,190.38c.13,3-1.64,6.15-4,6.87s-4.25-1.26-4.26-4.36,1.79-5.92,4-6.59S146.36,187.43,146.49,190.38Z" fill="#fff"/>
    <path id="Path_64829" data-name="Path 64829" d="M161,209.54l-20.88,6.92c-1.82.6-3.29-1.1-3.28-3.75s1.44-5.1,3.18-5.66l20-6.44c1-.33,1.73-1.81,1.57-3.22l-2.43-21.11c-.13-1.12-1-1.84-1.89-1.58l-17.51,5.13c-1.52.45-2.76-.73-2.75-2.6a4.3,4.3,0,0,1,2.68-4.06l16.91-4.83c3.7-1.06,7.21,1.71,7.89,6.37l3,20.8C168.41,201.6,165.52,208,161,209.54Z" fill="#fff"/>
    <path id="Path_64830" data-name="Path 64830" d="M276.84,202.3c.38,2.35-.86,4.24-2.78,4.26s-3.84-1.85-4.29-4.21.78-4.4,2.77-4.4S276.45,199.91,276.84,202.3Z" fill="#fff"/>
    <path id="Path_64831" data-name="Path 64831" d="M289.19,217.82l-15.13.31a3.2,3.2,0,0,1-2.9-2.69c-.3-1.54.54-2.82,1.88-2.84l15.48-.24a1.46,1.46,0,0,0,1.26-1.77l-2-17.1a2.17,2.17,0,0,0-1.83-2H269.17c-1.46,0-2.93-1.51-3.3-3.39s.54-3.47,2-3.45l17.23.14c3.78,0,7.23,4,7.69,8.77l1.66,17C294.88,214.53,292.51,217.76,289.19,217.82Z" fill="#fff"/>
    <path id="Path_64832" data-name="Path 64832" d="M423.27,165c-.69,2.28-2.63,3.43-4.36,2.61s-2.64-3.35-2-5.67,2.63-3.61,4.42-2.74S424,162.71,423.27,165Z" fill="#fff"/>
    <path id="Path_64833" data-name="Path 64833" d="M427.55,184.4,413.83,178a3.21,3.21,0,0,1-1.43-3.7c.41-1.51,1.72-2.29,2.93-1.72l14,6.58a1.47,1.47,0,0,0,1.91-1L437,161.92a2.17,2.17,0,0,0-.75-2.62l-15.06-7.41c-1.31-.64-2-2.65-1.48-4.5s2-2.87,3.34-2.2l15.42,7.69c3.39,1.69,4.72,6.8,3.06,11.26l-6,16C434.11,183.94,430.56,185.8,427.55,184.4Z" fill="#fff"/>
    <path id="Path_64834" data-name="Path 64834" d="M561.1,215.87a4.2,4.2,0,0,1-4.64,3.79,4.33,4.33,0,0,1-3.35-5.12,4.18,4.18,0,0,1,4.69-3.68A4.34,4.34,0,0,1,561.1,215.87Z" fill="#fff"/>
    <path id="Path_64835" data-name="Path 64835" d="M570.68,235.24l-18.86-2.39a3.16,3.16,0,0,1-2.48-3.82,3.33,3.33,0,0,1,3.54-3l18.53,2.62a1.82,1.82,0,0,0,1.91-1.74l1.83-17.21a1.91,1.91,0,0,0-1.41-2.1l-17.36-3.27a3,3,0,0,1-2.32-3.5,2.77,2.77,0,0,1,3.24-2.37l17.08,3.43c3.65.73,6.27,4.62,5.88,8.75l-1.59,17C578.24,232.33,574.68,235.75,570.68,235.24Z" fill="#fff"/>
  </g>
</svg>
