<svg xmlns="http://www.w3.org/2000/svg" width="441.702" height="261.688" viewBox="0 0 441.702 261.688">
  <g id="OBJECTS" transform="translate(-72.838 -19.675)">
    <path id="Path_64760" data-name="Path 64760" d="M103.727,269.931c-6.607,4.946-25.281,9.232-25.257,7.213s15.777-15.862,20.288-14.83S103.727,269.931,103.727,269.931Z" transform="translate(-1.259 -54.235)" fill="#d37d80"/>
    <path id="Path_64761" data-name="Path 64761" d="M124.478,290.425c-4.472,6.933-20.482,17.462-21.158,15.529s9.317-20.412,13.883-20.964S124.478,290.425,124.478,290.425Z" transform="translate(-6.808 -59.309)" fill="#d37d80"/>
    <path id="Path_64762" data-name="Path 64762" d="M92.11,89.038,95.6,83.51l3.929,1.98-3.113,5.319Z" transform="translate(-4.309 -14.272)" fill="#ad7a59"/>
    <path id="Path_64763" data-name="Path 64763" d="M97.97,82.935c-2.834-1.755-1.871-4.464-.233-6.475s3.952-3.106,4.169-2.9-.776,1.405-.776,1.405,1.7-1.04,2.749-1.506c.536-.248-1.141,2.228-1,2.329s2.081-1.949,2.4-1.685c.536.287-1.157,2.849-1.157,2.849s1.933-1.553,2-.908-3.346,3.836-3.346,3.836,1.848-1.025,1.794-.085S101.3,85.008,97.97,82.935Z" transform="translate(-5.215 -12.02)" fill="#ad7a59"/>
    <path id="Path_64764" data-name="Path 64764" d="M170.768,78.323l-2.516-6.033-4.193,1.289,2.166,5.761Z" transform="translate(-20.395 -11.763)" fill="#ad7a59"/>
    <path id="Path_64765" data-name="Path 64765" d="M165.271,71.125c3.106-1.258,2.593-4.084,1.32-6.343s-3.377-3.711-3.618-3.564.567,1.553.567,1.553-1.506-1.312-2.461-1.949c-.489-.334.776,2.391.59,2.5s-1.724-2.267-2.081-2.065c-.582.194.66,3,.66,3s-1.646-1.879-1.809-1.235,2.655,4.348,2.655,4.348-1.654-1.328-1.762-.388S161.637,72.6,165.271,71.125Z" transform="translate(-19.136 -9.193)" fill="#ad7a59"/>
    <path id="Path_64766" data-name="Path 64766" d="M167.276,230.113s18.922,51.136,6.988,62.681c-7.166,6.941-49.163-7.912-49.163-7.912l2.671-8.37,25.482,3.711-6.429-32.4,9.255-18.914Z" transform="translate(-11.684 -46.779)" fill="#060606"/>
    <path id="Path_64767" data-name="Path 64767" d="M142.346,221.32s-19.791,12.617-17.081,25.117.916,32.5.916,32.5L108.618,258.13l-6.118,6.312s17.213,40.8,35.933,35c18.2-5.645,17.206-67.433,17.206-67.433Z" transform="translate(-6.632 -45.082)" fill="#41403e"/>
    <path id="Path_64768" data-name="Path 64768" d="M140.851,130.435c2.12,6.32-.512,10.691-4.86,12.151s-8.766-.551-10.87-6.871-.054-11.646,4.294-13.122S138.731,124.107,140.851,130.435Z" transform="translate(-11.503 -22.927)" fill="#ad7a59"/>
    <path id="Path_64769" data-name="Path 64769" d="M117.771,211.025c24.582,0,39.217-13.37,39.217-13.37s-2.244-38.953.248-48.558c3.525-13.587,5.381-34.9,5.916-46.229S151.383,77.58,151.383,77.58l-9.03,1.879s7.19,14.434,7.19,23.068-1.009,17.244-8.284,23.51c-17.081,14.69-34.939,16.142-40.506,8.261-7.182-10.218-13.238-15.133-12.1-22.315s8.323-23.068,8.323-23.068L89.028,86.6S68.988,106.269,73.5,122.908s25.715,41.221,25.715,41.221Z" transform="translate(0 -12.946)" fill="#ef7353"/>
    <path id="Path_64770" data-name="Path 64770" d="M131.332,154.346c-1.374-1.716-.458-11.646-.458-11.646l7.889.776,1.91,7.764s1,5.435-2.485,6.211S133.343,156.909,131.332,154.346Z" transform="translate(-12.908 -27.505)" fill="#ad7a59"/>
    <path id="Path_64771" data-name="Path 64771" d="M127.446,127.172s3.106,1.3,3.37-.6,5.722.776,7.058-1.972,1.04-7.252-1.242-7.485-6.134,4.558-8.168,2.422-9.69,2.143-9.465,5.536-.085,10.21,4.2,12.205,5.9-2.275,4.977-4.86a14.372,14.372,0,0,1-.73-5.249Z" transform="translate(-10.319 -21.784)" fill="#060606"/>
    <circle id="Ellipse_231" data-name="Ellipse 231" cx="2.267" cy="2.267" r="2.267" transform="translate(113.75 108.821)" fill="#ad7a59"/>
    <circle id="Ellipse_232" data-name="Ellipse 232" cx="2.267" cy="2.267" r="2.267" transform="translate(125.73 104.651)" fill="#ad7a59"/>
    <ellipse id="Ellipse_233" data-name="Ellipse 233" cx="0.66" cy="0.823" rx="0.66" ry="0.823" transform="translate(121.316 109.069) rotate(-15.64)" fill="#060606"/>
    <ellipse id="Ellipse_234" data-name="Ellipse 234" cx="0.66" cy="0.823" rx="0.66" ry="0.823" transform="translate(125.676 107.525) rotate(-15.64)" fill="#060606"/>
    <path id="Path_64772" data-name="Path 64772" d="M140.838,137.984l-.264-.435c.148-.085.567-.4.613-.691s-.714-.776-1.467-1.281l.272-.427c.675.427,1.794,1.227,1.7,1.794A1.863,1.863,0,0,1,140.838,137.984Z" transform="translate(-14.953 -25.817)" fill="#634242"/>
    <path id="Path_64773" data-name="Path 64773" d="M138.85,141.423l3.509-1.553s.179,1.607-.7,2.267S138.85,141.423,138.85,141.423Z" transform="translate(-14.758 -26.872)" fill="#e7e3ff"/>
    <path id="Path_64774" data-name="Path 64774" d="M134.529,303.447a14.915,14.915,0,0,1-2.679-9.6l1,.124a14.24,14.24,0,0,0,2.516,8.89Z" transform="translate(-13.186 -61.298)" fill="#060606"/>
    <path id="Path_64775" data-name="Path 64775" d="M133.369,259.151l-.629-.776c.054-.047,5.583-4.511,7.4-9.6l.955.342C139.153,254.461,133.61,258.965,133.369,259.151Z" transform="translate(-13.392 -51.219)" fill="#060606"/>
    <path id="Path_64776" data-name="Path 64776" d="M170.451,257.137l-.986-.272c2.912-10.544-.194-13.448-.225-13.479l.676-.776C170.063,242.758,173.518,246.019,170.451,257.137Z" transform="translate(-21.553 -49.842)" fill="#060606"/>
    <path id="Path_64777" data-name="Path 64777" d="M630.231,133.125l3.44-5.559-3.494-2.655-3.416,5.117Z" transform="translate(-123.841 -23.528)" fill="#e7a376"/>
    <path id="Path_64778" data-name="Path 64778" d="M632.4,124.586c2.826,1.778,4.837-.272,5.924-2.624s1.048-4.907.776-5.016-.908,1.343-.908,1.343.186-1.98.155-3.106c0-.59-1.506,2-1.693,1.933s.839-2.725.466-2.9c-.5-.357-2.05,2.329-2.05,2.329s.567-2.43-.062-2.2-1.988,4.7-1.988,4.7.124-2.12-.706-1.662S629.075,122.5,632.4,124.586Z" transform="translate(-124.72 -21.13)" fill="#e7a376"/>
    <path id="Path_64779" data-name="Path 64779" d="M519.885,124.225l-.745-6.5,4.294-.916.916,6.095Z" transform="translate(-99.78 -21.717)" fill="#e7a376"/>
    <path id="Path_64780" data-name="Path 64780" d="M520.779,115.21c-3.315.4-4.255-2.329-4.239-4.907s1.141-4.884,1.421-4.876.248,1.607.248,1.607.676-1.871,1.2-2.9c.272-.528.512,2.454.707,2.469s.4-2.826.776-2.818c.606-.109.885,2.95.885,2.95s.52-2.446.986-1.964-.2,5.093-.2,5.093.776-1.964,1.343-1.2S524.661,114.737,520.779,115.21Z" transform="translate(-99.199 -18.805)" fill="#e7a376"/>
    <path id="Path_64781" data-name="Path 64781" d="M605.5,255.339l-3.634-3.882a3.711,3.711,0,0,1,.326-5.4s12.19-15.42,13.719-11.421-4.985,17.26-4.985,17.26Z" transform="translate(-118.05 -47.912)" fill="#f2a61c"/>
    <path id="Path_64782" data-name="Path 64782" d="M530.165,300.11s4.534,1.134,6.048,2.648,10.963,14.822,8.323,16.639c-6.048,4.162-19.286-13.611-19.286-13.611S525.25,300.49,530.165,300.11Z" transform="translate(-101.146 -62.697)" fill="#f2a61c"/>
    <path id="Path_64783" data-name="Path 64783" d="M533.34,246.53S479.3,263.2,476.972,271.112s37.439,24.962,37.439,24.962l4.915-7.943-7.19-7.562s16.647-7.562,27.229-5.3,39.334,23.068,48.03,18.153-4.534-38.2-4.534-38.2h-8.3l.776,11.724-15.529-12.1Z" transform="translate(-90.331 -50.718)" fill="#e7e3ff"/>
    <path id="Path_64784" data-name="Path 64784" d="M553.493,168.839c12.322,2.857,22.516-.512,31.383-12.865,6.809-9.449,18.153-28.363,18.153-28.363l5.676,3.409c.776,2.648-23.666,50.763-31.011,70.717-8,21.74-7.562,26.849-7.562,26.849-15.241,4.309-31.057,1.11-40.087-6.429,0,0,7.182-34.031,2.648-45.382s-14.752-53.7-14.752-53.7l6.429-.776S541.163,165.974,553.493,168.839Z" transform="translate(-99.512 -22.944)" fill="#5265ff"/>
    <path id="Path_64785" data-name="Path 64785" d="M519.417,288.336c-.062-.078-6.406-7.508-10.047-9.317l.45-.908c3.836,1.918,10.094,9.271,10.373,9.581Z" transform="translate(-97.596 -57.779)" fill="#060606"/>
    <path id="Path_64786" data-name="Path 64786" d="M613.254,284.019c-.054-.085-5.311-8.3-10.474-12.353l.621-.776c5.3,4.162,10.49,12.26,10.707,12.6Z" transform="translate(-118.48 -56.164)" fill="#060606"/>
    <path id="Path_64787" data-name="Path 64787" d="M552.705,277.651c-2.756-3.937.908-16.181,1.064-16.7l.978.3c-1.033,3.409-3.261,12.889-1.211,15.824Z" transform="translate(-107.056 -53.942)" fill="#060606"/>
    <path id="Path_64788" data-name="Path 64788" d="M530.922,256.387a7.764,7.764,0,0,1-4.612-1.289l.621-.776c.132.1,3.269,2.415,8.937-.062l.412.932A13.354,13.354,0,0,1,530.922,256.387Z" transform="translate(-101.383 -52.446)" fill="#060606"/>
    <path id="Path_64789" data-name="Path 64789" d="M587.246,263.9c-3.727,0-9.853-2.756-10.156-2.9l.427-.924c2.259,1.025,8.634,3.509,10.955,2.632l.357.955a4.66,4.66,0,0,1-1.584.233Z" transform="translate(-112.736 -53.748)" fill="#060606"/>
    <path id="Path_64790" data-name="Path 64790" d="M561.47,158.551c-3.16,5.878-1.3,10.629,2.733,12.8s8.727.947,11.887-4.923,2.034-11.491-2-13.665S564.63,152.681,561.47,158.551Z" transform="translate(-108.887 -29.566)" fill="#e7a376"/>
    <path id="Path_64791" data-name="Path 64791" d="M574.506,183.206c1.172-1.863-.854-11.646-.854-11.646l-7.764,1.638-1.025,7.927s-.877,3.882,2.679,4.278S572.79,185.932,574.506,183.206Z" transform="translate(-109.981 -33.957)" fill="#e7a376"/>
    <circle id="Ellipse_235" data-name="Ellipse 235" cx="2.267" cy="2.267" r="2.267" transform="translate(451.744 126.368)" fill="#e7a376"/>
    <ellipse id="Ellipse_236" data-name="Ellipse 236" cx="0.823" cy="0.66" rx="0.823" ry="0.66" transform="matrix(0.429, -0.903, 0.903, 0.429, 458.348, 132.836)" fill="#060606"/>
    <ellipse id="Ellipse_237" data-name="Ellipse 237" cx="0.823" cy="0.66" rx="0.823" ry="0.66" transform="matrix(0.429, -0.903, 0.903, 0.429, 454.323, 130.57)" fill="#060606"/>
    <path id="Path_64792" data-name="Path 64792" d="M565.118,166.375a1.848,1.848,0,0,1-.668-1.172c0-.575,1.242-1.172,1.98-1.483l.194.474a4.27,4.27,0,0,0-1.669,1.017c0,.3.365.668.489.776Z" transform="translate(-109.91 -32.204)" fill="#ad7a59"/>
    <path id="Path_64793" data-name="Path 64793" d="M566.11,169.935,562.9,167.8s-.443,1.553.318,2.329S566.11,169.935,566.11,169.935Z" transform="translate(-109.536 -33.116)" fill="#e7e3ff"/>
    <path id="Path_64794" data-name="Path 64794" d="M568.95,146.8s-6.988,5.388-6.1,1.553,7.236-4.659,9.364-13.331,10.5-5.815,11.344-9.5,11.646-.994,11.646,1.988-3.261,4.395-.287,9.356-3.4,6.211-4.659,11.646-7.376,5.1-7.943,8.649-5.676,6.1-6.522,5.109-2.415-5.109-2.275-8.541S567.669,152.465,568.95,146.8Z" transform="translate(-109.535 -23.263)" fill="#060606"/>
    <circle id="Ellipse_238" data-name="Ellipse 238" cx="2.267" cy="2.267" r="2.267" transform="translate(462.847 132.509)" fill="#e7a376"/>
    <path id="Path_64795" data-name="Path 64795" d="M457.54,317.595c2.329,7.92,14.674,22.563,15.862,20.964s-3.106-22.2-7.345-24.069S457.54,317.595,457.54,317.595Z" transform="translate(-86.008 -65.818)" fill="#e7e3ff"/>
    <path id="Path_64796" data-name="Path 64796" d="M398.077,311.563c-.978,8.191,4.659,26.507,6.39,25.475s5.854-21.639,2.671-25.017S398.077,311.563,398.077,311.563Z" transform="translate(-72.689 -64.996)" fill="#e7e3ff"/>
    <path id="Path_64797" data-name="Path 64797" d="M467.629,243.923l-4.053,5.132-3.7-2.384,3.657-4.961Z" transform="translate(-86.531 -49.641)" fill="#4a3139"/>
    <path id="Path_64798" data-name="Path 64798" d="M460.471,248.6c2.632,2.05,1.39,4.659-.45,6.46s-4.255,2.655-4.449,2.453.955-1.312.955-1.312-1.8.854-2.888,1.211c-.567.186,1.367-2.1,1.242-2.244s-2.283,1.716-2.562,1.421c-.5-.349,1.452-2.71,1.452-2.71s-2.1,1.359-2.081.691,3.735-3.463,3.735-3.463-1.949.831-1.8-.1S457.366,246.181,460.471,248.6Z" transform="translate(-84.7 -51.006)" fill="#4a3139"/>
    <path id="Path_64799" data-name="Path 64799" d="M393.81,37.261l2.516-6.041,4.2,1.289-2.174,5.769Z" transform="translate(-71.76 -2.581)" fill="#4a3139"/>
    <path id="Path_64800" data-name="Path 64800" d="M398.6,30.021c-3.106-1.266-2.593-4.084-1.32-6.343s3.377-3.711,3.618-3.572-.567,1.553-.567,1.553,1.506-1.312,2.461-1.957c.489-.326-.776,2.391-.59,2.5s1.731-2.267,2.081-2.058c.582.186-.66,3-.66,3s1.646-1.879,1.809-1.235-2.655,4.348-2.655,4.348,1.654-1.328,1.762-.388S402.276,31.574,398.6,30.021Z" transform="translate(-72.314)" fill="#4a3139"/>
    <path id="Path_64801" data-name="Path 64801" d="M393.489,189.11s-50.973,44.6-46.663,60.631c2.585,9.643,39.311,38.41,39.311,38.41l4.542-4.829L371.3,249.741l33.837-37.269,1.747-20.964Z" transform="translate(-61.198 -37.881)" fill="#5265ff"/>
    <path id="Path_64802" data-name="Path 64802" d="M428.767,191.36l5.047,20.148-7.57,52.184L447.8,287.9l-2.329,6.134S414.418,283.576,401.3,268.98c-12.726-14.185,10.552-75.314,10.552-75.314Z" transform="translate(-72.585 -38.384)" fill="#5265ff"/>
    <path id="Path_64803" data-name="Path 64803" d="M444.324,149.88c-2.516,2.011-13.339,27.423-13.339,27.423-22.641,13.588-37.734-13.587-37.734-13.587s2.236-38.953-.256-48.558c-3.517-13.588-6-28.425-6.538-39.753S390.23,34.65,390.23,34.65l9.061,1.825s.536,14.574.536,23.207S403.065,84.528,409,92.051s26.523,14.543,35.071,21.585c11.072,9.123,21.616,38.821,21.616,49.4s-15.117,37.929-15.117,37.929l-7.958-5.567s6.895-27.059,5.3-31.834S444.324,149.88,444.324,149.88Z" transform="translate(-70.106 -3.348)" fill="#d37d80"/>
    <path id="Path_64804" data-name="Path 64804" d="M426.233,103.337c-.349,6.662,3.362,10.163,7.943,10.4s8.292-2.881,8.642-9.535-3.106-11.258-7.656-11.491S426.575,96.675,426.233,103.337Z" transform="translate(-79.004 -16.326)" fill="#4a3139"/>
    <path id="Path_64805" data-name="Path 64805" d="M441.443,124.366c1.436-1.654-1.662-11.056-1.662-11.056l-7.912.435.357,7.135s-1.211,5.357,2.244,6.3S439.331,126.8,441.443,124.366Z" transform="translate(-80.269 -20.934)" fill="#4a3139"/>
    <circle id="Ellipse_239" data-name="Ellipse 239" cx="2.267" cy="2.267" r="2.267" transform="translate(361.065 85.186)" fill="#4a3139"/>
    <circle id="Ellipse_240" data-name="Ellipse 240" cx="2.267" cy="2.267" r="2.267" transform="translate(345.622 84.309)" fill="#4a3139"/>
    <ellipse id="Ellipse_241" data-name="Ellipse 241" cx="0.823" cy="0.66" rx="0.823" ry="0.66" transform="translate(356.628 87.53) rotate(-89.93)" fill="#060606"/>
    <ellipse id="Ellipse_242" data-name="Ellipse 242" cx="0.823" cy="0.66" rx="0.823" ry="0.66" transform="translate(352.01 87.211) rotate(-89.93)" fill="#060606"/>
    <path id="Path_64806" data-name="Path 64806" d="M435.03,109.616a2.042,2.042,0,0,1-1.2-.846c-.21-.45.186-1.235,1.18-2.329l.575.528a4.752,4.752,0,0,0-1.04,1.553,1.553,1.553,0,0,0,.676.373Z" transform="translate(-80.696 -19.398)" fill="#634242"/>
    <path id="Path_64807" data-name="Path 64807" d="M437.385,112.537l-3.8-.567s.264,1.6,1.289,2S437.385,112.537,437.385,112.537Z" transform="translate(-80.652 -20.635)" fill="#e7e3ff"/>
    <path id="Path_64808" data-name="Path 64808" d="M426.358,92.122c-.893,4.612.481,7.081.481,7.081s1.273-4.713,3.882-5.831c1.506-.644,6.468-.776,8.4.73.776.613,2.78,6.584,2.78,6.584l1.662-2.679s3.75-4.239,3-6.382c-1.662-4.791-4.426-2.818-6.755-4.014S433.26,81.4,433.26,81.4l-.722,3.416-3.82-2.873-.815,5-2-2.236Z" transform="translate(-78.935 -13.8)" fill="#060606"/>
    <path id="Path_64809" data-name="Path 64809" d="M401.777,237.119l-1.017-.07a89.7,89.7,0,0,1,1.607-11.763c1.079-4.294,4.457-8.75,4.6-8.937l.815.621a28.184,28.184,0,0,0-4.426,8.541A90.388,90.388,0,0,0,401.777,237.119Z" transform="translate(-73.314 -43.971)" fill="#060606"/>
    <path id="Path_64810" data-name="Path 64810" d="M439.893,231.169c-.2-.194-4.876-4.892-5.963-8.152l.971-.326c1.009,3.036,5.66,7.718,5.707,7.764Z" transform="translate(-80.73 -45.388)" fill="#060606"/>
    <path id="Path_64811" data-name="Path 64811" d="M391.851,207.252a4.356,4.356,0,0,1-3.191-1.273l.714-.714c2.329,2.329,6.483-.311,6.53-.334l.551.854A9.682,9.682,0,0,1,391.851,207.252Z" transform="translate(-70.609 -41.418)" fill="#060606"/>
    <path id="Path_64812" data-name="Path 64812" d="M288.066,328.46l3.882,3.618a3.711,3.711,0,0,1,0,5.435S280.776,353.678,278.99,349.8s3.882-17.547,3.882-17.547Z" transform="translate(-46.012 -69.035)" fill="#e7e3ff"/>
    <path id="Path_64813" data-name="Path 64813" d="M268.47,225.148s-9.17,39.427-9.17,50.173c0,9.076,18.906,31.771,18.906,31.771l7.57-4.162-11.724-34.023s28.728-29.877,22.307-51.431S268.47,225.148,268.47,225.148Z" transform="translate(-41.688 -42.45)" fill="#dd8b00"/>
    <path id="Path_64814" data-name="Path 64814" d="M310.078,291.606l5.249-.776a3.719,3.719,0,0,1,4.232,3.37s5.606,18.836,1.46,17.8-11.258-13.976-11.258-13.976Z" transform="translate(-52.969 -60.614)" fill="#e7e3ff"/>
    <path id="Path_64815" data-name="Path 64815" d="M339.993,160.437l.877-6.475-4.278-1-1.033,6.072Z" transform="translate(-58.737 -29.799)" fill="#634242"/>
    <path id="Path_64816" data-name="Path 64816" d="M338.6,151.41c3.3.466,4.294-2.221,4.332-4.822s-1.04-4.9-1.328-4.9-.28,1.6-.28,1.6-.637-1.887-1.134-2.919c-.264-.536-.567,2.438-.776,2.454s-.349-2.834-.776-2.834c-.6-.124-.94,2.927-.94,2.927s-.474-2.454-.947-1.98.1,5.093.1,5.093-.776-1.98-1.32-1.219S334.707,150.867,338.6,151.41Z" transform="translate(-58.66 -26.898)" fill="#634242"/>
    <path id="Path_64817" data-name="Path 64817" d="M241.3,109.831l2.058-6.211,4.286.978-1.739,5.909Z" transform="translate(-37.663 -18.768)" fill="#634242"/>
    <path id="Path_64818" data-name="Path 64818" d="M245.567,102.2c-3.168-1.025-2.888-3.882-1.778-6.211s3.106-3.952,3.339-3.828-.45,1.553-.45,1.553a31.462,31.462,0,0,1,2.329-2.135c.466-.365-.567,2.438-.4,2.539s1.553-2.391,1.926-2.213c.59.148-.443,3.044-.443,3.044s1.506-2,1.724-1.367-2.329,4.534-2.329,4.534,1.553-1.444,1.731-.52S249.3,103.413,245.567,102.2Z" transform="translate(-38.048 -16.069)" fill="#634242"/>
    <path id="Path_64819" data-name="Path 64819" d="M271.636,262.872l26.2,11.01-2.648,8.7s-48.41-10.591-49.544-19.286c-1.289-10.179,31.321-44.482,31.321-44.482l17.625-2.19S307.942,243.2,271.636,262.872Z" transform="translate(-38.627 -44.031)" fill="#f2a61c"/>
    <path id="Path_64820" data-name="Path 64820" d="M278.178,145.917c10.971.373,23.829,14.752,27.99,15.125S310.7,146.29,310.7,146.29l7.562.776S319.4,172.4,312.6,177.347c-5.435,3.937-21.181-8.323-21.934-.776,0,0,2.9,12.275,2.267,21.181s-24.846,5.715-31.3,4.659c-7.656-1.258-12.57-26.4-13.7-32.082-.3-1.5-18.122-14.379-19.092-27.423-1.32-17.8,8.875-35.164,8.875-35.164l7.6,2.151s-9.822,24.3-3.882,29.427c6.871,5.924,12.174,7.073,17.268,7.764C267.215,148.184,267.215,145.537,278.178,145.917Z" transform="translate(-34.85 -19.689)" fill="#060606"/>
    <path id="Path_64821" data-name="Path 64821" d="M263.632,137.307c-.59,6.646,2.989,10.28,7.555,10.684s8.393-2.57,8.983-9.216-2.663-11.359-7.229-11.763S264.214,130.669,263.632,137.307Z" transform="translate(-42.642 -23.991)" fill="#634242"/>
    <path id="Path_64822" data-name="Path 64822" d="M279.488,157.546c1.188-1.848-.776-11.646-.776-11.646l-7.764,1.553-1.141,9.441s-.4,3.96,3.152,4.395S277.718,160.256,279.488,157.546Z" transform="translate(-44.033 -28.22)" fill="#634242"/>
    <circle id="Ellipse_243" data-name="Ellipse 243" cx="2.267" cy="2.267" r="2.267" transform="translate(219.895 110.164)" fill="#634242"/>
    <ellipse id="Ellipse_244" data-name="Ellipse 244" cx="0.823" cy="0.66" rx="0.823" ry="0.66" transform="translate(227.784 114.567) rotate(-87.84)" fill="#060606"/>
    <ellipse id="Ellipse_245" data-name="Ellipse 245" cx="0.823" cy="0.66" rx="0.823" ry="0.66" transform="matrix(0.04, -1, 1, 0.04, 223.748, 114.19)" fill="#060606"/>
    <path id="Path_64823" data-name="Path 64823" d="M269.069,144.224a1.832,1.832,0,0,1-1.079-.839c-.225-.52.675-1.553,1.235-2.135l.365.349a4.395,4.395,0,0,0-1.134,1.6c.116.264.6.466.776.52Z" transform="translate(-43.622 -27.181)" fill="#4a3139"/>
    <path id="Path_64824" data-name="Path 64824" d="M271.259,147.329l-3.789-.7s.21,1.607,1.219,2.042S271.259,147.329,271.259,147.329Z" transform="translate(-43.514 -28.384)" fill="#e7e3ff"/>
    <path id="Path_64825" data-name="Path 64825" d="M267.086,129.178s2.648,4.542,7.182,4.915,3.028,10.218,4.915,9.076,10.024-12.1,1.708-18.153-16.072.567-16.833,3.214a11.406,11.406,0,0,0-.186,5.109S265.385,131.438,267.086,129.178Z" transform="translate(-42.664 -22.998)" fill="#060606"/>
    <path id="Path_64826" data-name="Path 64826" d="M283.846,125.029s-5.334-9.1,2.818-8.781S291.688,131.582,283.846,125.029Z" transform="translate(-46.792 -21.589)" fill="#060606"/>
    <circle id="Ellipse_246" data-name="Ellipse 246" cx="2.267" cy="2.267" r="2.267" transform="translate(232.52 111.429)" fill="#634242"/>
    <rect id="Rectangle_1838" data-name="Rectangle 1838" width="7.757" height="1.017" transform="matrix(0.731, -0.683, 0.683, 0.731, 224.835, 189.562)" fill="#060606"/>
    <path id="Path_64827" data-name="Path 64827" d="M274.748,277.572l-.373-.947,2.1-.839-3.882-.644.163-1,7.469,1.242Z" transform="translate(-44.659 -56.891)" fill="#060606"/>
    <path id="Path_64828" data-name="Path 64828" d="M144.643,189.437c.1,2.329-1.273,4.775-3.106,5.334s-3.3-.978-3.308-3.385,1.39-4.6,3.106-5.117S144.542,187.146,144.643,189.437Z" transform="translate(-14.62 -37.221)" fill="#fff"/>
    <path id="Path_64829" data-name="Path 64829" d="M155.6,200.278l-16.212,5.373c-1.413.466-2.554-.854-2.547-2.912s1.118-3.96,2.469-4.395l15.529-5a2.4,2.4,0,0,0,1.219-2.5l-1.887-16.39c-.1-.87-.776-1.429-1.467-1.227l-13.6,3.983c-1.18.349-2.143-.567-2.135-2.019a3.339,3.339,0,0,1,2.081-3.152l13.129-3.75c2.873-.823,5.6,1.328,6.126,4.946l2.329,16.15C161.352,194.114,159.108,199.083,155.6,200.278Z" transform="translate(-14.309 -33.187)" fill="#fff"/>
    <path id="Path_64830" data-name="Path 64830" d="M275.239,201.327c.3,1.825-.668,3.292-2.158,3.308s-2.981-1.436-3.331-3.269.606-3.416,2.151-3.416S274.936,199.472,275.239,201.327Z" transform="translate(-44.008 -39.857)" fill="#fff"/>
    <path id="Path_64831" data-name="Path 64831" d="M283.958,210.4l-11.747.241a2.484,2.484,0,0,1-2.252-2.089,1.676,1.676,0,0,1,1.46-2.205l12.019-.186a1.134,1.134,0,0,0,.978-1.374l-1.553-13.277a1.685,1.685,0,0,0-1.421-1.553H268.414a3.054,3.054,0,0,1-2.562-2.632c-.287-1.46.419-2.694,1.553-2.679l13.378.109c2.935,0,5.614,3.106,5.971,6.809l1.289,13.2C288.376,207.85,286.536,210.358,283.958,210.4Z" transform="translate(-43.138 -36.884)" fill="#fff"/>
    <path id="Path_64832" data-name="Path 64832" d="M421.8,163.642c-.536,1.77-2.042,2.663-3.385,2.026s-2.05-2.6-1.553-4.4,2.042-2.8,3.432-2.127S422.369,161.864,421.8,163.642Z" transform="translate(-76.879 -31.133)" fill="#fff"/>
    <path id="Path_64833" data-name="Path 64833" d="M424.131,175.588l-10.653-4.969a2.492,2.492,0,0,1-1.11-2.873,1.673,1.673,0,0,1,2.275-1.335l10.87,5.109a1.141,1.141,0,0,0,1.483-.776l4.472-12.609a1.685,1.685,0,0,0-.582-2.034l-11.693-5.753a3.034,3.034,0,0,1-1.149-3.494c.4-1.436,1.553-2.228,2.593-1.708l11.973,5.971c2.632,1.312,3.665,5.28,2.376,8.743l-4.659,12.423C429.225,175.23,426.468,176.675,424.131,175.588Z" transform="translate(-75.885 -28.015)" fill="#fff"/>
    <path id="Path_64834" data-name="Path 64834" d="M559.293,214.742a3.261,3.261,0,0,1-3.6,2.943,3.362,3.362,0,0,1-2.6-3.975,3.245,3.245,0,0,1,3.641-2.857A3.37,3.37,0,0,1,559.293,214.742Z" transform="translate(-107.355 -42.736)" fill="#fff"/>
    <path id="Path_64835" data-name="Path 64835" d="M565.891,227.007l-14.643-1.856a2.453,2.453,0,0,1-1.925-2.966,2.585,2.585,0,0,1,2.748-2.329l14.387,2.034a1.413,1.413,0,0,0,1.483-1.351l1.421-13.362a1.483,1.483,0,0,0-1.095-1.631l-13.479-2.539a2.329,2.329,0,0,1-1.8-2.717,2.151,2.151,0,0,1,2.516-1.84l13.261,2.663c2.834.567,4.868,3.587,4.565,6.794l-1.235,13.2C571.76,224.748,569,227.4,565.891,227.007Z" transform="translate(-106.514 -39.961)" fill="#fff"/>
  </g>
</svg>
