<svg xmlns="http://www.w3.org/2000/svg" width="39.628" height="39.917" viewBox="0 0 39.628 39.917">
  <g id="Group_1213" data-name="Group 1213" transform="translate(635.895 -9052.587)">
    <path id="Path_35656" data-name="Path 35656" d="M1363.788,937.025l-4.338-4.339a.354.354,0,0,0,0-.043V923.9a1.878,1.878,0,1,0-3.754,0v5.034l-9.745-9.747a1.88,1.88,0,0,0-2.654,0l-18.041,18.041a1.877,1.877,0,0,0,2.654,2.654l16.714-16.714,16.508,16.508a1.876,1.876,0,0,0,2.652-2.654Z" transform="translate(-1960.6 8133.945)" fill="#6f6f6f"/>
    <path id="Path_35657" data-name="Path 35657" d="M1358.49,950.764a.927.927,0,0,0-1.425,0l-15.525,15.951h0v11.242a5.644,5.644,0,0,0,5.627,5.63h5.585V972.9a1.378,1.378,0,0,1,1.378-1.378h7.31a1.378,1.378,0,0,1,1.378,1.378v10.689h5.583a5.646,5.646,0,0,0,5.629-5.63V966.715h0Z" transform="translate(-1973.855 8108.917)" fill="#6f6f6f"/>
  </g>
</svg>
