<svg xmlns="http://www.w3.org/2000/svg" width="116" height="37.252" viewBox="0 0 116 37.252">
  <g id="Group_1370" data-name="Group 1370" transform="translate(-156 -19.748)">
    <text id="Partner_Dashboard" data-name="Partner Dashboard" transform="translate(160 54)" fill="#6f6f6f" font-size="9" font-family="Poppins-Light, Poppins" font-weight="300" letter-spacing="0.17em"><tspan x="0" y="0">Partner Dashboard</tspan></text>
    <g id="dextersvg-01" transform="translate(156 19.748)">
      <circle id="Ellipse_286" data-name="Ellipse 286" cx="3.05" cy="3.05" r="3.05" transform="translate(0.997 8.691)" fill="#6f6f6f"/>
      <path id="Path_75137" data-name="Path 75137" d="M20.06,30.987H5.967a2.167,2.167,0,1,1,0-4.335H20.055A1.365,1.365,0,0,0,21.4,25.3V13a1.365,1.365,0,0,0-1.349-1.349H6.021a2.167,2.167,0,1,1,0-4.335H20.06A5.7,5.7,0,0,1,25.76,13V25.276a5.711,5.711,0,0,1-5.7,5.711Z" transform="translate(-3.8 -7.32)" fill="#6f6f6f"/>
      <path id="Path_75138" data-name="Path 75138" d="M97.632,8.6H91.553l-3.885,6.643L83.246,8.6H77.01l7.206,10.809L77.167,30.6h6.079l3.95-6.735L91.677,30.6h6.236L90.642,19.691Z" transform="translate(-37.343 -7.906)" fill="#6f6f6f"/>
      <path id="Path_75139" data-name="Path 75139" d="M47.91,30.6H61.385V26.307H53.269V21.479h7.179V17.34H53.269V12.891h8.117V8.6H47.91Z" transform="translate(-24.01 -7.906)" fill="#6f6f6f"/>
      <path id="Path_75140" data-name="Path 75140" d="M198.227,21.886a6.389,6.389,0,0,0,4.876-6.361c0-3.825-2.709-6.925-8.089-6.925H186.02v22h5.359V22.292h1.284l4.578,8.306h6.047ZM194.716,18.5h-3.321V13.048h3.321c2.01,0,2.948,1.084,2.948,2.709,0,1.728-.937,2.742-2.948,2.742Z" transform="translate(-87.288 -7.906)" fill="#6f6f6f"/>
      <path id="Path_75141" data-name="Path 75141" d="M154.76,30.6h13.475V26.307h-8.117V21.479H167.3V17.34h-7.179V12.891h8.117V8.6H154.76Z" transform="translate(-72.966 -7.906)" fill="#6f6f6f"/>
      <path id="Path_75142" data-name="Path 75142" d="M118.37,12.891h5.83V30.6h5.359V12.891h5.83V8.6H118.37Z" transform="translate(-56.293 -7.906)" fill="#6f6f6f"/>
    </g>
  </g>
</svg>
