<svg xmlns="http://www.w3.org/2000/svg" width="49.444" height="33.07" viewBox="0 0 49.444 33.07">
  <defs>
    <style>
      .cls-1 {
        fill: #151218;
      }
    </style>
  </defs>
  <g id="Group_1452" data-name="Group 1452" transform="translate(0 0)">
    <path id="Path_75264" data-name="Path 75264" class="cls-1" d="M119.654,100.943c1.318-1.34,2.573-2.594,3.828-3.849.532-.532,1.042-1.085,1.595-1.595a2.541,2.541,0,0,1,3.573,0,2.481,2.481,0,0,1,0,3.615c-1.786,1.829-3.615,3.637-5.423,5.444-.6.6-1.148,1.191-1.765,1.744a2.464,2.464,0,0,1-3.615-.043c-1.425-1.382-2.85-2.786-4.253-4.189a2.544,2.544,0,1,1,3.594-3.594c.808.787,1.595,1.595,2.446,2.467Z" transform="translate(-83.905 -74.001)"/>
    <path id="Path_75265" data-name="Path 75265" class="cls-1" d="M148.559,89.933H99.2v-1.3a4.926,4.926,0,0,1,.106-1.255,3.091,3.091,0,0,1,2.956-2.361c1.574-.043,3.147,0,4.721,0h38.173a3.329,3.329,0,0,1,2.127.617,2.944,2.944,0,0,1,1.255,2.3c.043.659,0,1.34,0,2.042Z" transform="translate(-99.2 -85.001)"/>
    <path id="Path_75266" data-name="Path 75266" class="cls-1" d="M99.2,92.082V88.02h49.338v4.062Z" transform="translate(-99.2 -81.6)"/>
    <path id="Path_75267" data-name="Path 75267" class="cls-1" d="M105.283,98.038h-2.254a1.1,1.1,0,0,1-1.148-1.085V95.8a1.063,1.063,0,0,1,1.085-1.085h4.615a1.056,1.056,0,0,1,1.085,1.106V96.91a1.049,1.049,0,0,1-1.106,1.106h-2.275Z" transform="translate(-96.181 -74.051)"/>
    <path id="Path_75268" data-name="Path 75268" class="cls-1" d="M148.644,90.7H99.2v13.44a3.437,3.437,0,0,0,.043.659,3.186,3.186,0,0,0,3.211,2.616h25.392a4.026,4.026,0,0,1-1.085-2.743,3.7,3.7,0,0,1,1.127-2.658,3.752,3.752,0,0,1,2.658-1.106,4.1,4.1,0,0,1,2.828,1.212l1.552,1.552.213-.213c.914-.914,1.808-1.829,2.7-2.722l.447-.447c.383-.383.766-.787,1.17-1.17a3.923,3.923,0,0,1,2.7-1.085,3.817,3.817,0,0,1,2.68,6.529c-.936.957-1.871,1.914-2.807,2.85h3.615v-.106a1.451,1.451,0,0,0,.255-.021,3.14,3.14,0,0,0,2.7-3.211V90.7ZM104.3,93.89a1.053,1.053,0,0,1,.362-.043h7.443a.693.693,0,0,1,.659.362.786.786,0,0,1-.021.808.821.821,0,0,1-.766.362h-7.422a.785.785,0,0,1-.787-.7.759.759,0,0,1,.553-.808Zm8.847,8.1a2.522,2.522,0,0,1-2.594,2.042h-4.487a2.545,2.545,0,0,1-2.68-2.467,7.553,7.553,0,0,1,.085-1.956,2.489,2.489,0,0,1,2.446-1.957h4.742a2.529,2.529,0,0,1,2.573,2.446,8.247,8.247,0,0,1-.064,1.914Zm9.315-6.529H114.98a.756.756,0,0,1-.808-.893.678.678,0,0,1,.553-.617c.106,0,.191-.021.3-.021h7.358a.831.831,0,0,1,.851.553A.791.791,0,0,1,122.465,95.464Zm11.122-.638a.817.817,0,0,1-.766.638h-7.507a.757.757,0,0,1-.808-.659.741.741,0,0,1,.6-.851,1.611,1.611,0,0,1,.319-.021h7.252a1.086,1.086,0,0,1,.447.064.748.748,0,0,1,.468.829Zm9.889.532a2.312,2.312,0,0,1-.319.043H135.8a.937.937,0,0,1-.34-.043.768.768,0,0,1-.532-.766.691.691,0,0,1,.51-.7,1.259,1.259,0,0,1,.4-.021h7.464a.688.688,0,0,1,.723.638.808.808,0,0,1-.553.851Z" transform="translate(-99.2 -78.58)"/>
  </g>
</svg>
