<svg id="Group_1451" data-name="Group 1451" xmlns="http://www.w3.org/2000/svg" width="32.291" height="42.698" viewBox="0 0 32.291 42.698">
  <defs>
    <style>
      .cls-1 {
        fill: #151218;
      }
    </style>
  </defs>
  <path id="Path_75254" data-name="Path 75254" class="cls-1" d="M63.228,51.228c.017-.413.017-.776.066-1.155a3.469,3.469,0,0,1,6.817-.182,5.071,5.071,0,0,1,.083.875V52h.281c1.882-.083,3.764-.149,5.662-.231,1.8-.066,3.6-.149,5.414-.215,1.106-.05,2.2-.083,3.3-.132a.847.847,0,0,1,1.007.924c.017.512.033,1.04.05,1.552,0,.132.033.215.2.215.413.033.825.1,1.238.149a.84.84,0,0,1,.809,1.056c-.2,1.552-.4,3.1-.594,4.638-.215,1.667-.413,3.334-.627,4.985-.132,1.106-.314,2.212-.413,3.334-.05.66.033,1.321.05,1.981.066,1.469.116,2.938.182,4.407.1,2.294.182,4.589.281,6.883.083,1.931.149,3.879.231,5.81a.79.79,0,0,1-.858.908c-.71.033-1.436.066-2.146.083-.215,0-.314.083-.314.314a4.706,4.706,0,0,1-.05.479.8.8,0,0,1-.941.693L76.7,89.045c-.693-.083-1.37-.182-2.063-.248-.165-.017-.347,0-.528,0-1.8.066-3.582.149-5.381.215-2.74.116-5.5.231-8.237.33l-1.321.05a.833.833,0,0,1-.924-.858c-.017-.528-.05-1.073-.05-1.6,0-.165-.05-.231-.231-.248-.462-.05-.908-.1-1.37-.182a.791.791,0,0,1-.71-.924c.149-1.221.314-2.443.462-3.681.2-1.535.38-3.07.578-4.589.2-1.552.413-3.087.578-4.638a14.808,14.808,0,0,0,0-2.1c-.05-1.453-.116-2.905-.182-4.358-.1-2.327-.2-4.655-.281-6.982-.083-1.931-.149-3.863-.231-5.777a.8.8,0,0,1,.842-.924c.71-.033,1.42-.066,2.129-.083.215,0,.3-.083.3-.3a4.707,4.707,0,0,1,.05-.479.818.818,0,0,1,.974-.71c.693.1,1.387.182,2.1.264ZM70.21,53.7v3.78a2.263,2.263,0,1,1-4.523-.017V53.126l-4.044-.512L57.566,85l24.843,3.12,4.077-32.386L70.21,53.687Zm-4.523-2.179a1.884,1.884,0,0,1,.033-.446.728.728,0,0,1,.5-.644.794.794,0,0,1,1.089.759V57.5a.67.67,0,1,0,1.337,0V50.551a1.842,1.842,0,0,0-1.321-1.75,1.892,1.892,0,0,0-2.063.677,2.813,2.813,0,0,0-.363,1.931l.809.1Z" transform="translate(-55.876 -47.149)"/>
  <path id="Path_75255" data-name="Path 75255" class="cls-1" d="M71.408,53.63a3.021,3.021,0,0,1,1.882,5.381c-.5.4-.462.792.083,1.122a5.9,5.9,0,0,1,2.806,3.995,1.3,1.3,0,0,1-1.535,1.651c-2.443-.314-4.9-.611-7.346-.924-.479-.066-.941-.116-1.42-.182a1.257,1.257,0,0,1-.99-1.8,5.564,5.564,0,0,1,2.146-2.542c.512-.314,1.089-.512,1.634-.776a1.419,1.419,0,0,0,.5-.38c.149-.231.033-.446-.116-.66a3.014,3.014,0,0,1,.941-4.506,2.738,2.738,0,0,1,1.436-.363Z" transform="translate(-50.092 -42.932)"/>
  <path id="Path_75256" data-name="Path 75256" class="cls-1" d="M75.426,69.119c-.825-.1-1.733-.215-2.625-.33-1.684-.215-3.367-.429-5.035-.627-1.354-.165-2.707-.33-4.077-.512a.816.816,0,0,1-.743-.627.755.755,0,0,1,.38-.842,1.357,1.357,0,0,1,.627-.1c2.2.264,4.391.545,6.586.825,1.651.215,3.318.413,4.969.611.5.066.776.281.858.627a.816.816,0,0,1-.924.974Z" transform="translate(-51.287 -34.833)"/>
  <path id="Path_75257" data-name="Path 75257" class="cls-1" d="M70.231,66.3c-.842-.1-1.75-.215-2.658-.33-1.42-.182-2.823-.363-4.242-.528-1.222-.149-2.443-.3-3.681-.462a.786.786,0,0,1-.677-.924.8.8,0,0,1,.908-.66c2.129.264,4.259.528,6.372.792,1.4.182,2.806.347,4.226.545a.778.778,0,0,1,.693.891.8.8,0,0,1-.941.677Z" transform="translate(-53.867 -36.584)"/>
  <path id="Path_75258" data-name="Path 75258" class="cls-1" d="M68.725,70.445c-.594-.066-1.255-.149-1.9-.231-1.271-.165-2.542-.33-3.83-.479-1.3-.165-2.608-.33-3.929-.5a.777.777,0,0,1-.693-.924.8.8,0,0,1,.924-.644c2.608.33,5.216.644,7.824.974.611.083,1.205.149,1.816.248a.759.759,0,0,1,.66.875.826.826,0,0,1-.875.693Z" transform="translate(-54.259 -33.799)"/>
  <path id="Path_75259" data-name="Path 75259" class="cls-1" d="M63.439,61.67c.792.1,1.519.182,2.228.281l3.45.446a.793.793,0,1,1-.215,1.568c-1.816-.231-3.632-.446-5.431-.677a.821.821,0,0,1-.776-.627.787.787,0,0,1,.38-.858,1.747,1.747,0,0,1,.38-.132Z" transform="translate(-51.449 -37.701)"/>
  <path id="Path_75260" data-name="Path 75260" class="cls-1" d="M68.149,64.44c.825.1,1.585.2,2.327.3,1.007.132,2,.264,3,.38a.8.8,0,0,1,.792.891.816.816,0,0,1-1.007.693c-1.684-.215-3.367-.429-5.068-.644a.846.846,0,0,1-.809-.627.755.755,0,0,1,.363-.858,1.746,1.746,0,0,1,.38-.132Z" transform="translate(-48.401 -35.898)"/>
  <path id="Path_75261" data-name="Path 75261" class="cls-1" d="M68.731,62.34c.99.116,1.882.231,2.757.347.71.083,1.42.182,2.129.281a.792.792,0,1,1-.215,1.568c-1.552-.2-3.1-.38-4.638-.578A.828.828,0,0,1,68,63.363a.721.721,0,0,1,.264-.825,1.955,1.955,0,0,1,.446-.2Z" transform="translate(-48.009 -37.265)"/>
  <path id="Path_75262" data-name="Path 75262" class="cls-1" d="M59.476,65.51c.693.083,1.42.182,2.129.264.743.1,1.469.2,2.212.281a.827.827,0,0,1,.792.908.818.818,0,0,1-.99.677c-1.4-.182-2.806-.363-4.209-.528a.8.8,0,0,1-.759-.875.781.781,0,0,1,.842-.71Z" transform="translate(-54.073 -35.202)"/>
  <path id="Path_75263" data-name="Path 75263" class="cls-1" d="M62.771,63.19c-.792-.1-1.552-.2-2.311-.281-.2-.033-.4-.05-.594-.083a.8.8,0,1,1,.215-1.585c.891.116,1.783.231,2.674.33a.824.824,0,0,1,.809.743.785.785,0,0,1-.545.825,2.35,2.35,0,0,1-.264.05Z" transform="translate(-53.735 -37.983)"/>
</svg>
