<svg xmlns="http://www.w3.org/2000/svg" width="31.741" height="30.491" viewBox="0 0 31.741 30.491">
  <g id="Group_630" data-name="Group 630" transform="matrix(0.899, 0.438, -0.438, 0.899, 9.083, 0)">
    <path id="Path_36018" data-name="Path 36018" d="M23.428,12.452a12.091,12.091,0,0,0-2.8-6.948,10.857,10.857,0,0,0-6.007-3.754,2.035,2.035,0,0,0-4.03,0A10.845,10.845,0,0,0,4.584,5.5a12.112,12.112,0,0,0-2.8,6.948,4.622,4.622,0,0,0,2.847,8.267H20.584a4.622,4.622,0,0,0,2.845-8.267Zm-2.845,6.435H4.633a2.792,2.792,0,0,1-1.466-5.168.916.916,0,0,0,.432-.757C3.7,8.273,7.293,4,11.611,3.437a.916.916,0,0,0,.8-.916V2.059a.2.2,0,0,1,.4,0v.474a.916.916,0,0,0,.8.916c4.318.564,7.91,4.84,8.011,9.526a.916.916,0,0,0,.431.757A2.79,2.79,0,0,1,20.585,18.9Z" transform="translate(0 0)" fill="#6f6f6f"/>
    <path id="Path_36019" data-name="Path 36019" d="M6.714,0H.916A.916.916,0,0,0,0,.916a3.812,3.812,0,0,0,7.624,0A.916.916,0,0,0,6.714,0Zm-2.9,2.9A1.981,1.981,0,0,1,2.063,1.832H5.574A1.984,1.984,0,0,1,3.812,2.9Z" transform="translate(8.795 21.188)" fill="#6f6f6f"/>
  </g>
</svg>
