<svg xmlns="http://www.w3.org/2000/svg" xmlns:xlink="http://www.w3.org/1999/xlink" width="811.235" height="525.349" viewBox="0 0 811.235 525.349">
  <defs>
    <linearGradient id="linear-gradient" x1="-3.197" y1="0.145" x2="-3.758" y2="0.873" gradientUnits="objectBoundingBox">
      <stop offset="0" stop-color="#dae3fe"/>
      <stop offset="1" stop-color="#e9effd"/>
    </linearGradient>
    <linearGradient id="linear-gradient-2" x1="1.312" y1="0.5" x2="2.292" y2="0.5" gradientUnits="objectBoundingBox">
      <stop offset="0" stop-color="#9c9de2"/>
      <stop offset="1" stop-color="#4fb1ff"/>
    </linearGradient>
    <linearGradient id="linear-gradient-3" x1="-0.117" y1="2.312" x2="0.431" y2="0.946" gradientUnits="objectBoundingBox">
      <stop offset="0" stop-color="#4042e2"/>
      <stop offset="1" stop-color="#4f52ff"/>
    </linearGradient>
    <linearGradient id="linear-gradient-4" x1="1.001" y1="-5.078" x2="0.814" y2="-3.048" gradientUnits="objectBoundingBox">
      <stop offset="0" stop-color="#09005d"/>
      <stop offset="1" stop-color="#1a0f91"/>
    </linearGradient>
    <linearGradient id="linear-gradient-5" y1="0.5" x2="1" y2="0.5" gradientUnits="objectBoundingBox">
      <stop offset="0" stop-color="#fe7062"/>
      <stop offset="1" stop-color="#ff928e"/>
    </linearGradient>
    <linearGradient id="linear-gradient-6" x1="0.464" y1="0.304" x2="0.798" y2="2.219" gradientUnits="objectBoundingBox">
      <stop offset="0" stop-color="#e1473d"/>
      <stop offset="1" stop-color="#e9605a"/>
    </linearGradient>
    <linearGradient id="linear-gradient-7" x1="0.465" y1="0.306" x2="0.799" y2="2.221" xlink:href="#linear-gradient-6"/>
    <linearGradient id="linear-gradient-8" x1="0.883" y1="-0.025" x2="0.347" y2="0.708" xlink:href="#linear-gradient-4"/>
    <linearGradient id="linear-gradient-9" x1="0.405" y1="0.78" x2="-0.227" y2="1.866" xlink:href="#linear-gradient-3"/>
    <linearGradient id="linear-gradient-10" x1="0.858" y1="1.126" x2="0.373" y2="0.286" xlink:href="#linear-gradient-4"/>
    <linearGradient id="linear-gradient-11" x1="0.862" y1="-5.124" x2="0.851" y2="-4.942" xlink:href="#linear-gradient-4"/>
    <linearGradient id="linear-gradient-12" x1="0.247" y1="-0.355" x2="0.783" y2="1.542" xlink:href="#linear-gradient-4"/>
    <linearGradient id="linear-gradient-13" x1="-60.412" y1="0.5" x2="-59.414" y2="0.5" gradientUnits="objectBoundingBox">
      <stop offset="0" stop-color="#ff928e"/>
      <stop offset="1" stop-color="#feb3b1"/>
    </linearGradient>
    <linearGradient id="linear-gradient-14" x1="0.937" y1="0.697" x2="0.007" y2="0.175" xlink:href="#linear-gradient-4"/>
    <linearGradient id="linear-gradient-15" x1="0.879" y1="-2.018" x2="0.626" y2="-0.299" xlink:href="#linear-gradient-4"/>
    <linearGradient id="linear-gradient-16" x1="0.466" y1="2.02" x2="0.549" y2="-1.942" xlink:href="#linear-gradient-3"/>
    <linearGradient id="linear-gradient-17" x1="-66.2" y1="0.499" x2="-65.199" y2="0.499" xlink:href="#linear-gradient-13"/>
    <linearGradient id="linear-gradient-18" x1="-10.609" y1="1.035" x2="-10.57" y2="0.189" xlink:href="#linear-gradient-4"/>
    <linearGradient id="linear-gradient-19" x1="1.257" y1="-1.162" x2="0.868" y2="-0.274" xlink:href="#linear-gradient-6"/>
    <linearGradient id="linear-gradient-20" x1="-16.488" y1="0.5" x2="-15.488" y2="0.5" xlink:href="#linear-gradient-13"/>
    <linearGradient id="linear-gradient-21" x1="-8.101" y1="0.175" x2="-9.108" y2="0.862" xlink:href="#linear-gradient-5"/>
    <linearGradient id="linear-gradient-22" x1="-28.24" y1="0.5" x2="-27.24" y2="0.5" xlink:href="#linear-gradient-13"/>
    <linearGradient id="linear-gradient-23" x1="-15.763" y1="-0.027" x2="-17.548" y2="0.826" xlink:href="#linear-gradient-5"/>
    <linearGradient id="linear-gradient-24" x1="1.809" y1="-2.714" x2="1.118" y2="-1.023" xlink:href="#linear-gradient-6"/>
    <linearGradient id="linear-gradient-25" x1="0.712" y1="-3.379" x2="0.646" y2="-2.065" xlink:href="#linear-gradient-13"/>
    <linearGradient id="linear-gradient-26" x1="-28.292" y1="-21.121" x2="-29.911" y2="-19.769" xlink:href="#linear-gradient-13"/>
    <linearGradient id="linear-gradient-27" x1="-15.834" y1="-12.695" x2="-14.786" y2="-12.695" xlink:href="#linear-gradient-4"/>
    <linearGradient id="linear-gradient-28" x1="-79.562" y1="-58.043" x2="-76.309" y2="-60.431" xlink:href="#linear-gradient-13"/>
    <linearGradient id="linear-gradient-29" x1="67.708" y1="51.466" x2="66.968" y2="53.903" xlink:href="#linear-gradient-4"/>
    <linearGradient id="linear-gradient-30" x1="0.142" y1="1.208" x2="0.715" y2="0.111" xlink:href="#linear-gradient-4"/>
    <linearGradient id="linear-gradient-31" x1="0.311" y1="0.528" x2="-0.481" y2="1.539" xlink:href="#linear-gradient-5"/>
    <linearGradient id="linear-gradient-32" x1="0.153" y1="1.133" x2="1.117" y2="-1.145" xlink:href="#linear-gradient-13"/>
    <linearGradient id="linear-gradient-33" x1="-0.264" y1="1.647" x2="1.246" y2="-0.283" xlink:href="#linear-gradient-13"/>
    <linearGradient id="linear-gradient-34" x1="1.119" y1="-0.598" x2="0.029" y2="0.869" xlink:href="#linear-gradient-13"/>
    <linearGradient id="linear-gradient-35" x1="0.986" y1="0.153" x2="-1.225" y2="2.844" xlink:href="#linear-gradient-13"/>
    <linearGradient id="linear-gradient-36" x1="0" y1="0.5" x2="1" y2="0.5" xlink:href="#linear-gradient-13"/>
    <linearGradient id="linear-gradient-37" x1="1.44" y1="-0.93" x2="0.268" y2="0.669" xlink:href="#linear-gradient-13"/>
    <linearGradient id="linear-gradient-38" x1="-26.421" y1="-6.233" x2="-26.436" y2="-7.549" xlink:href="#linear-gradient-13"/>
    <linearGradient id="linear-gradient-39" x1="-112.087" y1="-20.519" x2="-112.149" y2="-24.736" xlink:href="#linear-gradient-13"/>
    <linearGradient id="linear-gradient-40" y1="0.5" x2="1" y2="0.5" gradientUnits="objectBoundingBox">
      <stop offset="0" stop-color="#151218"/>
      <stop offset="1"/>
    </linearGradient>
    <linearGradient id="linear-gradient-41" x1="1.201" y1="-1.825" x2="0.068" y2="2.268" xlink:href="#linear-gradient-3"/>
    <linearGradient id="linear-gradient-42" x1="0.992" y1="-1.488" x2="0.426" y2="0.798" gradientUnits="objectBoundingBox">
      <stop offset="0" stop-color="#53d8ff"/>
      <stop offset="1" stop-color="#3840f7"/>
    </linearGradient>
    <linearGradient id="linear-gradient-43" x1="1" y1="1.086" x2="0.433" y2="0.422" xlink:href="#linear-gradient-3"/>
    <linearGradient id="linear-gradient-44" x1="0.69" y1="0.129" x2="0.39" y2="1.264" xlink:href="#linear-gradient-3"/>
    <linearGradient id="linear-gradient-45" x1="0.059" y1="0.814" x2="0.72" y2="0.586" xlink:href="#linear-gradient-3"/>
    <linearGradient id="linear-gradient-46" x1="0" y1="0.5" x2="1" y2="0.5" xlink:href="#linear-gradient-3"/>
    <linearGradient id="linear-gradient-48" x1="0.002" y1="0.499" x2="1.001" y2="0.499" xlink:href="#linear-gradient-4"/>
    <linearGradient id="linear-gradient-49" x1="0" y1="0.5" x2="1" y2="0.5" xlink:href="#linear-gradient-4"/>
  </defs>
  <g id="Splash_ILLUSTRATION-01" transform="translate(-257.265 -141.099)">
    <path id="Path_74875" data-name="Path 74875" d="M903.757,386.113c14.681,14.188,35.763,19.288,55.652,14.692,18.861-4.357,41.248-3.079,64.109,12.656,44.239,30.478,46.225,84.733,26.375,118.3a75.138,75.138,0,0,0-8.372,57.681c4.573,17.083.77,36.233-32.249,45.036-66.657,17.749-432.6.227-479.347-7.7S308.768,575.129,419.406,516.744c0,0-191.787-207.022-70.418-318.669,109.868-101.061,224.432-44.243,276.89-7.564a112.436,112.436,0,0,0,67.5,20.27c61.38-1.671,174.924,11.382,170.339,131.643a35.459,35.459,0,0,0,25.02,35.282A37.287,37.287,0,0,1,903.757,386.113Z" transform="translate(-31.658 0)" fill="url(#linear-gradient)"/>
    <path id="Path_74876" data-name="Path 74876" d="M844.492,498.657a4.688,4.688,0,0,1-4.577-4.619c-.47-25.747-8.5-153.607-121.1-180.328-125.357-29.747-182.726,97.739-182.726,97.739S380.961,351.956,351.23,511.314c-97.254,23.342-122.524,150.354-59.278,212.415a54.374,54.374,0,0,0,37.6,15.562l609.069,5.485A40.1,40.1,0,0,0,977.432,716.1C996.47,651.9,1021.406,502.8,844.492,498.657Z" transform="translate(0 -103.402)" fill="url(#linear-gradient-2)"/>
    <path id="Path_74877" data-name="Path 74877" d="M859.022,525.8a4.688,4.688,0,0,1-4.577-4.588c-.5-24.7-8.468-143.26-114.5-168.111-118.556-27.78-172.784,91.273-172.784,91.273S420.5,388.818,392.366,537.633c-91.08,21.59-115.392,138.141-57.738,196.695A54.386,54.386,0,0,0,372.9,750.552l573.36,5.1a40.093,40.093,0,0,0,38.831-28.784C1002.975,665.87,1024.192,529.758,859.022,525.8Z" transform="translate(-28.449 -127.816)" opacity="0.5" fill="url(#linear-gradient-3)"/>
    <path id="Path_74878" data-name="Path 74878" d="M1177.228,1254.723c-.115-1.436-1.586-2.694-4.073-3.68,2.694-1.49,4.2-3.079,4.073-4.65-.385-4.742-15.4-7.4-33.523-5.936s-32.518,6.49-32.137,11.228c.115,1.436,1.586,2.695,4.072,3.68-2.694,1.49-4.2,3.079-4.072,4.65.115,1.44,1.586,2.694,4.072,3.68-2.694,1.49-4.2,3.079-4.072,4.654.115,1.436,1.586,2.694,4.072,3.68-2.694,1.49-4.2,3.079-4.072,4.654.169,2.094,3.2,3.784,8.083,4.889a42.83,42.83,0,0,0,.123,5.12c.712,8.734,10.531,15.578,23.526,15.578s24.25-9.334,24.362-18.091a44.633,44.633,0,0,0-.254-5.716c6.216-2.075,10.008-4.619,9.8-7.071-.115-1.436-1.586-2.694-4.072-3.68,2.694-1.49,4.2-3.079,4.072-4.65-.115-1.44-1.586-2.694-4.072-3.68C1175.858,1257.887,1177.355,1256.29,1177.228,1254.723Z" transform="translate(-525.459 -675.945)" fill="url(#linear-gradient-4)"/>
    <path id="Path_74879" data-name="Path 74879" d="M1149.731,1345.228a78.22,78.22,0,0,1-14.385-1.178.435.435,0,0,1,.166-.855c6.37,1.22,14.877,1.49,23.958.77a102.55,102.55,0,0,0,20.089-3.464.435.435,0,0,1,.246.835,103.815,103.815,0,0,1-20.266,3.5C1156.167,1345.094,1152.872,1345.228,1149.731,1345.228Z" transform="translate(-539.872 -737.716)" fill="#7d97f4"/>
    <path id="Path_74880" data-name="Path 74880" d="M1144.79,1319.875c-6.994,0-13.249-.658-17.656-1.925a.436.436,0,1,1,.239-.839c6.282,1.79,16.4,2.344,27.068,1.486,10.547-.851,20.4-2.991,26.317-5.728a.441.441,0,0,1,.385.793c-6.02,2.775-15.967,4.942-26.614,5.8C1151.187,1319.744,1147.915,1319.875,1144.79,1319.875Z" transform="translate(-534.842 -720.703)" fill="#7d97f4"/>
    <path id="Path_74881" data-name="Path 74881" d="M1143.057,1298.257c-7.552,0-14.165-.77-18.615-2.24a.436.436,0,0,1,.273-.828c6.193,2.044,16.69,2.694,28.08,1.794,10.547-.851,20.4-2.991,26.317-5.724a.439.439,0,1,1,.385.789c-6.02,2.775-15.966,4.946-26.613,5.8C1149.493,1298.126,1146.194,1298.257,1143.057,1298.257Z" transform="translate(-533.198 -707.411)" fill="#7d97f4"/>
    <path id="Path_74882" data-name="Path 74882" d="M1147.832,1276.709a74.977,74.977,0,0,1-15.678-1.424.436.436,0,0,1,.189-.851c6.37,1.417,15.543,1.782,25.17,1.009,10.454-.843,20.243-2.96,26.175-5.666a.436.436,0,1,1,.362.793c-6.028,2.745-15.924,4.888-26.475,5.739C1154.249,1276.579,1150.966,1276.709,1147.832,1276.709Z" transform="translate(-537.916 -694.201)" fill="#7d97f4"/>
    <path id="Path_74883" data-name="Path 74883" d="M1013.37,882.094a61.3,61.3,0,0,0-10.982-21.44c-10.778-13.6-28.4-41.267-30.57-79.024-3.153-54.921,45.559-82.419,90.006-78.686s88.3,36.825,83.5,87.92c-2.956,31.437-20.551,55.286-33.654,68.978a72.749,72.749,0,0,0-17.464,30.948c-3.934,14.2-13.291,31.883-35.528,32.965C1029.891,925.148,1017.939,898.322,1013.37,882.094Z" transform="translate(-439.417 -345.372)" fill="url(#linear-gradient-5)"/>
    <path id="Path_74884" data-name="Path 74884" d="M1216.727,1081.938l15.555-101.15c.319-2.09,1.347-3.5,2.31-3.137s1.451,2.344,1.132,4.434a.382.382,0,0,1-.031.181l-17.706,100.21c-.135.77-.516,1.228-.854,1.062S1216.615,1082.669,1216.727,1081.938Z" transform="translate(-590.124 -514.511)" fill="url(#linear-gradient-6)"/>
    <path id="Path_74885" data-name="Path 74885" d="M1144.334,1084.046,1128.784,982.9c-.32-2.09-1.351-3.491-2.31-3.133s-1.455,2.344-1.132,4.434a.361.361,0,0,0,.031.177L1143.08,1084.6c.131.751.516,1.228.854,1.062S1144.446,1084.777,1144.334,1084.046Z" transform="translate(-533.875 -515.815)" fill="url(#linear-gradient-7)"/>
    <path id="Path_74886" data-name="Path 74886" d="M1184.026,943.776a1.632,1.632,0,0,0-2.044-.527l-8.657,4.046-3.006-8.564a1.856,1.856,0,0,0-1.055-1.062,2.144,2.144,0,0,0-2.66.82v.031l-7.121,12.983-6.609-18.476v-.031a2.11,2.11,0,0,0-1-1.128,2.594,2.594,0,0,0-3.268.643l-9.958,13.707a1.2,1.2,0,0,0,.35,1.728,1.67,1.67,0,0,0,2.117-.227l8.769-9.781,7.891,17.583h0a1.39,1.39,0,0,0,.693.681,1.651,1.651,0,0,0,2.067-.535l7.618-12.221,2.864,6.182.027.054a1.4,1.4,0,0,0,.069.131,1.628,1.628,0,0,0,2.04.531l10.281-4.8a1.228,1.228,0,0,0,.593-1.763Z" transform="translate(-541.98 -486.187)" fill="#fff" opacity="0.75"/>
    <path id="Path_74887" data-name="Path 74887" d="M1334.179,1053.507a1.251,1.251,0,0,1-.77-.254,1.278,1.278,0,0,1-.266-1.794,115.608,115.608,0,0,0,7.26-11.024,1.282,1.282,0,0,1,2.221,1.282,118.335,118.335,0,0,1-7.421,11.271A1.282,1.282,0,0,1,1334.179,1053.507Z" transform="translate(-661.593 -552.768)" fill="#fff" opacity="0.54"/>
    <path id="Path_74888" data-name="Path 74888" d="M1367.433,899.958a1.25,1.25,0,0,1-.508-.1,1.278,1.278,0,0,1-.666-1.686c16.552-38.126,2.256-70.175,2.109-70.495a1.283,1.283,0,0,1,2.333-1.07c.15.331,14.916,33.423-2.09,72.585a1.282,1.282,0,0,1-1.178.77Z" transform="translate(-682.052 -421.179)" fill="#fff" opacity="0.54"/>
    <path id="Path_74889" data-name="Path 74889" d="M295.431,1027.1s-21.309,11.8-23.072,31.779-.146,102.9,42.58,123.306,99.287,15.7,120.939,13.472,33.65-16.937,36.333-27.075,7.013-47.865-15.782-60.048-46.676-30.813-70.575-48.97S320.986,1011.763,295.431,1027.1Z" transform="translate(-9.014 -542.341)" fill="url(#linear-gradient-8)"/>
    <path id="Path_74890" data-name="Path 74890" d="M723.545,1263.39s-5.751.3-6.455,12.137c0,0,13.334,11.933,31.348,14.8,1.355.216-1.89-9.238-2.379-10.508C743.742,1273.725,736.436,1269.807,723.545,1263.39Z" transform="translate(-282.828 -690.297)" fill="url(#linear-gradient-9)"/>
    <path id="Path_74891" data-name="Path 74891" d="M563.842,1154.876h12.137s37.249-41.136,61.68-45.286c0,0,17.006,21.706-.908,62.269a5.913,5.913,0,0,1-8.468,2.791,4.838,4.838,0,0,1-1.925-2.309l1.44-34.643s-31.771,27.791-37.3,33.153S556.887,1172.956,563.842,1154.876Z" transform="translate(-187.893 -595.698)" fill="#7d97f4"/>
    <path id="Path_74892" data-name="Path 74892" d="M824.322,1434.229a45.6,45.6,0,0,0-24.885-10.89l-3.957,2.417a43.168,43.168,0,0,0,7.129,7.652c4.234,2.46,10.778,5.774,16.2,6.513C824.083,1440.627,824.861,1437.451,824.322,1434.229Z" transform="translate(-331.044 -788.679)" fill="#ce6e70"/>
    <path id="Path_74893" data-name="Path 74893" d="M746.059,1296.317c-3.129,1.012-4.507,5.451-12.46,2.517a70.436,70.436,0,0,1-16.352-8.615c-.065.574-.119,1.155-.158,1.809,0,0,14.061,13.372,32.076,16.217a1.79,1.79,0,0,0,1.925-2.413A45.065,45.065,0,0,0,746.059,1296.317Z" transform="translate(-282.828 -706.8)" fill="#91b3fa"/>
    <path id="Path_74894" data-name="Path 74894" d="M839.547,1454.127a42.228,42.228,0,0,0-3.849-3.807c.539,3.21-.239,6.4-5.512,5.693-5.408-.72-11.952-4.053-16.186-6.513,5.308,4.527,13.384,9.334,23.58,9.05a2.671,2.671,0,0,0,1.967-4.423Z" transform="translate(-342.436 -804.769)" fill="#ec7e81"/>
    <path id="Path_74895" data-name="Path 74895" d="M527.742,1250.06l56.834.616s32.457,26.848,38.342,67.8c0,0,.978,3.01-4.889,3.526a112.59,112.59,0,0,1-32.418-35.474c-15.689-27.784-46.768-15.278-46.768-15.278-10.212-7.36-24.635-8.853-35.513-11.313Z" transform="translate(-151.349 -682.098)" fill="#7d97f4"/>
    <path id="Path_74896" data-name="Path 74896" d="M554.189,1131.12s6.116,30.663,36.094,42.792l10.662-1.259,2.517,4.015-25.02.8a68.444,68.444,0,0,1-32.718-31.564C545.367,1145.158,539.131,1132.279,554.189,1131.12Z" transform="translate(-176.453 -608.941)" fill="#a67c52"/>
    <path id="Path_74897" data-name="Path 74897" d="M474.572,1129.391s-6.959-18.915-8.468-37.291a80.085,80.085,0,0,1,8.272-6.259,2.31,2.31,0,0,0,.9-2.983c-2.34-4.846-16.482-23.865-17.545-24.135-5.774-1.44-29.377-12.668-46.01,10.085-7.14,9.766,1.417,39.824,33.8,70.957l6.682,1.278Z" transform="translate(-93.557 -561.929)" fill="#fff"/>
    <path id="Path_74898" data-name="Path 74898" d="M492.669,1162.65s19.331,22.887,44.043,26.232c0,0,6.386-5.824,11.136-3.745s11.263,11.255,11.263,11.255H527.377s-30-1.055-45-19.246C483.589,1170.776,487.2,1166.973,492.669,1162.65Z" transform="translate(-138.463 -628.334)" fill="#c69c6d"/>
    <path id="Path_74899" data-name="Path 74899" d="M472.943,1023.46l-4.234,14.107a1.54,1.54,0,0,0,.6,1.728,15.771,15.771,0,0,0,14.662,1.47,2.31,2.31,0,0,0,1.478-1.975l1-12.287Z" transform="translate(-130.012 -542.721)" fill="#a67c52"/>
    <path id="Path_74900" data-name="Path 74900" d="M499.477,978.354s-2.079,14.627-7.7,19.119-16.552,1.112-20.258-9.912l7.367-18.861Z" transform="translate(-131.784 -509.04)" fill="#c69c6d"/>
    <path id="Path_74901" data-name="Path 74901" d="M464.877,961.27a.724.724,0,0,0,.943-.577,18.855,18.855,0,0,1,1.732-5.843s-.535-1.925,4.85.982,13.472,7.156,18.23,4.619c4.642-2.471,9.346-14.912-2.922-12.606a.724.724,0,0,1-.862-.77c.15-2.044-.054-6.748-4.815-8.257-4.457-1.413-6.9.6-7.9,1.813a.72.72,0,0,1-1.128,0c-1.336-1.744-4.962-5.454-10.3-3.1-4.4,1.925-5.081,4.646-5,6.332a.72.72,0,0,1-1.028.689c-1.347-.62-3.514-.943-5.589,1.659-2.868,3.591,1.232,6.709,2.46,7.525a.731.731,0,0,1,.331.6c0,1.871.3,10.008,4.388,14.627a.728.728,0,0,0,1.213-.208l3.145-7.494a.728.728,0,0,1,.893-.412Z" transform="translate(-118.601 -489.4)"/>
    <path id="Path_74902" data-name="Path 74902" d="M479.259,995.124s-1.925-7.825-4.838-5.285.77,8.13,4.1,9.2Z" transform="translate(-132.917 -521.73)" fill="#c69c6d"/>
    <path id="Path_74903" data-name="Path 74903" d="M677.57,1171.355l14.242-47.515a4.862,4.862,0,0,1,4.323-3.464l19.246-1.316a2.729,2.729,0,0,1,2.76,3.626l-15.932,45.386a4,4,0,0,1-3.368,2.652l-18.942,2.1Z" transform="translate(-258.521 -601.519)" fill="url(#linear-gradient-10)"/>
    <path id="Path_74904" data-name="Path 74904" d="M737.708,1165.158c-1.062,2.148-2.9,3.4-4.1,2.81s-1.313-2.822-.25-4.969,2.9-3.4,4.1-2.806S738.771,1163.01,737.708,1165.158Z" transform="translate(-292.384 -626.731)" fill="#7d97f4"/>
    <path id="Path_74905" data-name="Path 74905" d="M616.228,1249.711h-.092l-40.363-2.04a1.809,1.809,0,1,1,.181-3.614l40.363,2.04a1.809,1.809,0,0,1-.089,3.614Z" transform="translate(-194.85 -678.404)" fill="url(#linear-gradient-11)"/>
    <path id="Path_74906" data-name="Path 74906" d="M550.892,1119.948h0a.423.423,0,0,1-.423-.427c.027-8.414-3.222-19.6-3.256-19.708a.428.428,0,0,1,.82-.243c.035.115,3.318,11.413,3.291,19.954A.427.427,0,0,1,550.892,1119.948Z" transform="translate(-178.329 -589.347)" fill="#0071bc"/>
    <path id="Path_74907" data-name="Path 74907" d="M489.4,1132.122a.431.431,0,0,1-.335-.162c-.089-.116-8.926-11.348-11.967-19.054a.428.428,0,1,1,.8-.312c2.995,7.587,11.752,18.723,11.84,18.834a.427.427,0,0,1-.335.693Z" transform="translate(-135.199 -597.379)" fill="#0071bc"/>
    <path id="Path_74908" data-name="Path 74908" d="M443.143,1173.76l-.319-.135c-12.806-5.485-20.713-20.786-20.786-20.921a.43.43,0,1,1,.77-.385c.073.15,7.7,14.908,20.047,20.4l1.266-1.79a.428.428,0,1,1,.7.5Z" transform="translate(-101.32 -621.834)" fill="#0071bc"/>
    <path id="Path_74909" data-name="Path 74909" d="M735.462,471.748H701.015l6.074-50.81L691.8,419.083,717.016,382l25.112,38.534H729.784Zm-31.787-2.371h29.146l-5.678-51.195h10.624l-20.786-31.9-21.04,30.944,13.78,1.674Z" transform="translate(-267.273 -148.173)" fill="#ec7e81"/>
    <path id="Path_74910" data-name="Path 74910" d="M856.453,444.359,831.31,406.445h12.364L838,355.25h34.451l-6.074,50.175,15.289,1.859Zm-20.74-35.548,20.763,31.306,21.047-30.955-13.78-1.659,6.039-49.894H840.637l5.678,51.2Z" transform="translate(-353.083 -131.72)" fill="#fff"/>
    <path id="Path_74911" data-name="Path 74911" d="M753.9,1017.023h-6.836a2.136,2.136,0,1,1,0-4.273H753.9a2.136,2.136,0,1,1,0,4.273Zm-17.949,0h-6.84a2.136,2.136,0,1,1,0-4.273h6.825a2.136,2.136,0,1,1,0,4.273Zm-17.953,0h-6.84a2.136,2.136,0,1,1,0-4.273H718a2.136,2.136,0,1,1,0,4.273Zm-17.953,0h-6.836a2.136,2.136,0,1,1,0-4.273h6.84a2.136,2.136,0,1,1,0,4.273Zm-17.953,0h-6.84a2.136,2.136,0,1,1,0-4.273h6.84a2.136,2.136,0,1,1,0,4.273Zm-17.953,0h-6.836a2.136,2.136,0,1,1,0-4.273h6.836a2.136,2.136,0,1,1,0,4.273Z" transform="translate(-244.743 -536.134)" fill="#fff"/>
    <path id="Path_74912" data-name="Path 74912" d="M1510.863,792.971h-6.84a2.136,2.136,0,0,1,0-4.273h2.564a2.14,2.14,0,1,1,4.276,0Zm-17.953,0h-6.84a2.136,2.136,0,1,1,0-4.273h6.84a2.136,2.136,0,0,1,0,4.273Zm-17.941,0h-6.852a2.136,2.136,0,0,1,0-4.273h6.852a2.136,2.136,0,0,1,0,4.273Zm-17.953,0h-6.84a2.136,2.136,0,0,1,0-4.273h6.84a2.136,2.136,0,1,1,0,4.273Zm51.718-13.249a2.14,2.14,0,0,1-2.136-2.136v-6.859a2.14,2.14,0,0,1,4.276,0v6.848a2.14,2.14,0,0,1-2.152,2.129Zm0-17.953a2.14,2.14,0,0,1-2.136-2.136v-6.859a2.14,2.14,0,0,1,4.276,0v6.84a2.14,2.14,0,0,1-2.152,2.136Zm29.493-8.976h-2.563a2.136,2.136,0,0,1,0-4.273h2.563a2.136,2.136,0,1,1,0,4.273Zm-13.676,0H1517.7a2.136,2.136,0,1,1,0-4.273h6.84a2.136,2.136,0,1,1,0,4.273Z" transform="translate(-732.42 -373.612)" fill="#fff"/>
    <path id="Path_74913" data-name="Path 74913" d="M1522.134,985.933h-6.84a2.136,2.136,0,0,1,0-4.273h6.84a2.136,2.136,0,1,1,0,4.273Zm-17.953,0h-6.836a2.136,2.136,0,1,1,0-4.273h6.836a2.136,2.136,0,1,1,0,4.273Zm-17.949,0h-6.84a2.136,2.136,0,1,1,0-4.273h6.859a2.136,2.136,0,1,1,0,4.273Zm-17.953,0h-6.84a2.136,2.136,0,0,1,0-4.273h6.84a2.136,2.136,0,1,1,0,4.273Zm-17.953,0h-6.84a2.136,2.136,0,0,1,0-4.273h6.84a2.136,2.136,0,1,1,0,4.273Z" transform="translate(-728.305 -517.011)" fill="#ec7e81"/>
    <rect id="Rectangle_2051" data-name="Rectangle 2051" width="5.939" height="64.228" transform="translate(880.047 587.882)" fill="#7d97f4"/>
    <path id="Path_74914" data-name="Path 74914" d="M1867.378,1465.708H1815.36v-2.941a.924.924,0,0,1,.924-.928h50.1a1,1,0,0,1,1,1Z" transform="translate(-958.351 -812.359)" fill="#7d97f4"/>
    <rect id="Rectangle_2052" data-name="Rectangle 2052" width="69.509" height="19.712" rx="9.856" transform="translate(849.357 572.585)" fill="#7d97f4"/>
    <path id="Path_74915" data-name="Path 74915" d="M1774.056,1434.368s-16.96,12.225-14.015,20.436c0,0,18.553-8.006,20.786-14.312s-.385-9.092-.385-9.092Z" transform="translate(-924.114 -793.636)" fill="url(#linear-gradient-12)"/>
    <path id="Path_74916" data-name="Path 74916" d="M1791.579,1412.49l2.771,8.018a2.787,2.787,0,0,1-1.082,3.272,7.314,7.314,0,0,1-2.309.889,3.253,3.253,0,0,1-3.591-1.632l-3.318-6.247Z" transform="translate(-939.093 -782.005)" fill="url(#linear-gradient-13)"/>
    <path id="Path_74917" data-name="Path 74917" d="M1787.28,1225s-34.835,6.039-49.778,19.843,13.7,57.846,13.7,57.846,4.7-.031,10.393-4.908c0,0-16.99-33.1-2.348-42.772,16.463-10.859,35.44-13.3,35.44-13.3l-7.079-15.632Z" transform="translate(-907.806 -666.684)" fill="url(#linear-gradient-14)"/>
    <path id="Path_74918" data-name="Path 74918" d="M1758.432,1465.258c3.73-1.724,14.292-9.119,16.07-9.442s4.869,1.763,4.869,1.763a4.811,4.811,0,0,1-.054,3.707c-2.475,3-7.979,8.718-15.4,10.847-5.443,1.571-9.238.108-11.621-1.6a15.743,15.743,0,0,1,6.132-5.273Z" transform="translate(-919.564 -808.633)" fill="url(#linear-gradient-15)"/>
    <path id="Path_74919" data-name="Path 74919" d="M1762.27,1480.927c7.4-2.129,12.9-7.845,15.4-10.847a14.956,14.956,0,0,1-4.469,6.047c-6.632,5.962-19.3,8.114-22,7.7-2.163-.331-1.959-2.31-.531-4.5C1753.02,1481.035,1756.827,1482.5,1762.27,1480.927Z" transform="translate(-917.893 -817.427)" fill="url(#linear-gradient-16)"/>
    <path id="Path_74920" data-name="Path 74920" d="M1815.206,1442.133c-.042,1.028-2.144,4.55-3.372,6.544a3.191,3.191,0,0,1-2.695,1.516,8.107,8.107,0,0,1-2.24-.27,2.079,2.079,0,0,1-1.4-2.583l2.4-8.191Z" transform="translate(-952.234 -798.403)" fill="url(#linear-gradient-17)"/>
    <path id="Path_74921" data-name="Path 74921" d="M1865.216,1197.86s7.737,20.686,0,26.975-26.175,13.376-30.312,25.905-11.12,36.879-20.482,45.505c0,0-6.578-.639-9.042-3.26,0,0,5.335-36.352,8.853-45.679,3.045-8.083,7.533-19.739,16.132-26.255,2.464-1.863,2.032-4.819.893-7.7l-2.079-5.223Z" transform="translate(-952.212 -649.991)" fill="url(#linear-gradient-18)"/>
    <path id="Path_74922" data-name="Path 74922" d="M1750.74,1122.526c12.972.77,8.93-19.943,8.7-20.786l19.689,13.907s-1.043,11.082-17.41,16.894a20.348,20.348,0,0,1-11.274.816A17.911,17.911,0,0,0,1750.74,1122.526Z" transform="translate(-918.42 -590.87)" fill="url(#linear-gradient-19)"/>
    <path id="Path_74923" data-name="Path 74923" d="M1672.615,1137.151c4.835-3.364,10.308,0,10.308,0,6.463,4.234,11.248,6.024,14.773,6.236a17.912,17.912,0,0,1-.3,10.851c-7.24-1.54-12.421-6.794-14.669-9.484a2.34,2.34,0,0,0-3.237-.354c-1.008.8-1.986,1.882-1.809,3.029.35,2.259-2.271,2.975-2.467,2.159s.9-5.678.9-5.678-5.243,5.273-7.291,7.314-4.619,0-4.619,0S1667.78,1140.511,1672.615,1137.151Z" transform="translate(-865.375 -611.73)" fill="url(#linear-gradient-20)"/>
    <path id="Path_74924" data-name="Path 74924" d="M1820.116,1017.233s-18.861-7.556-53.989,21.44c0,0-2.933,6.07.266,11.474s33.692,31.741,37.884,46.345c0,0,18.165,5.9,36.953-8.083C1841.229,1088.4,1839.57,1047.753,1820.116,1017.233Z" transform="translate(-927.313 -538.345)" fill="url(#linear-gradient-21)"/>
    <path id="Path_74925" data-name="Path 74925" d="M1791.4,1001.13l9.292,11.263a3.7,3.7,0,0,1,.485,3.976c-1.286,2.629-4.346,6.459-11.132,5.928a5.7,5.7,0,0,1-4.688-3.2l-6.494-13.426Z" transform="translate(-935.9 -528.987)" fill="url(#linear-gradient-22)"/>
    <path id="Path_74926" data-name="Path 74926" d="M1914.326,1066.925c2.19-8.923-20.016-28.815-20.016-28.815l5.389-19.419s47.915,31.9,35.705,57.55a18.708,18.708,0,0,1-6.771,7.975C1924.792,1073.815,1918.641,1069.049,1914.326,1066.925Z" transform="translate(-1006.911 -539.787)" fill="url(#linear-gradient-23)"/>
    <path id="Path_74927" data-name="Path 74927" d="M1913.621,1092.941a.52.52,0,0,0,.508-.385c2.24-9.123-19.246-28.484-20.158-29.327a.524.524,0,0,0-.7.77c.219.2,21.941,19.781,19.843,28.3a.524.524,0,0,0,.385.635.48.48,0,0,0,.123.011Z" transform="translate(-1006.19 -567.12)" fill="url(#linear-gradient-24)"/>
    <path id="Path_74928" data-name="Path 74928" d="M1823.59,1141.326s26.309,10.216,32.718,2.533a4.321,4.321,0,0,0,.878-1.763c4.315,2.14,10.466,6.906,14.323,17.291-13.857,8.853-37.488-4.919-43.881-8.976a4.773,4.773,0,0,0-3.534-.647c-2.464.512-6.725,1.263-9.023.908-3.364-.52-8.191,11.34-13.642,7.7C1801.438,1158.339,1806.1,1137.727,1823.59,1141.326Z" transform="translate(-949.783 -614.958)" fill="url(#linear-gradient-25)"/>
    <path id="Path_74929" data-name="Path 74929" d="M1758.916,953.74c-.092.362,2.179,24.978,2.179,24.978l14.027-1.594,1.316-23.653S1760.486,947.677,1758.916,953.74Z" transform="translate(-923.631 -498.137)" fill="url(#linear-gradient-26)"/>
    <path id="Path_74930" data-name="Path 74930" d="M1763.627,944.52l.285,12.5a1.621,1.621,0,0,1-.054.473c-.242.951-1.324,4.161-4.542,2.856-2.918-1.186-5.6-2.221-7.572-1.848a1.751,1.751,0,0,0-1.417,1.878,75.05,75.05,0,0,0,1.925,11.548,1.74,1.74,0,0,0,1.99,1.255,56.035,56.035,0,0,0,12.61-3.611,1.744,1.744,0,0,0,1.016-1.47c.212-3.126.885-12.625,1.482-15.243.562-2.46,3.78-3.614,5.166-4a1.713,1.713,0,0,0,1.055-.851c.77-1.47,2.021-4.942-2.309-6.894a1.755,1.755,0,0,1-.854-2.371c.87-1.778,1.459-4.573-1.844-6.509a6.455,6.455,0,0,0-7.791.993,1.744,1.744,0,0,1-2.244.019,1.389,1.389,0,0,0-1.57-.119,1.717,1.717,0,0,1-2.34-1,5.218,5.218,0,0,0-5.7-3.664c-6.251.385-7.7,7.1-6.509,11.259s7.933,3.364,11.455,1.721c2.695-1.251,5.774.708,7.086,1.717A1.728,1.728,0,0,1,1763.627,944.52Z" transform="translate(-914.478 -484.282)" fill="url(#linear-gradient-27)"/>
    <path id="Path_74931" data-name="Path 74931" d="M1809.137,988.822s-1.744-7.337,1.035-8.784,6.521-.127,5.112,4.9C1813.518,991.182,1809.137,988.822,1809.137,988.822Z" transform="translate(-954.191 -515.674)" fill="url(#linear-gradient-28)"/>
    <path id="Path_74932" data-name="Path 74932" d="M1731.64,1186.294h-.127l-55.2-.062a2.471,2.471,0,0,1,0-4.943l55.2.062a2.471,2.471,0,0,1,.123,4.939Z" transform="translate(-871.305 -639.799)" fill="url(#linear-gradient-29)"/>
    <path id="Path_74933" data-name="Path 74933" d="M1545.462,1064.09h45.971a8.753,8.753,0,0,1,7.922,5.023l21.255,45.063h-57.13a5.327,5.327,0,0,1-4.954-3.368l-16.479-41.7a3.668,3.668,0,0,1,3.414-5.02Z" transform="translate(-790.083 -567.712)" fill="url(#linear-gradient-30)"/>
    <path id="Path_74934" data-name="Path 74934" d="M1623.738,1116.757c.993,3.079.258,6.1-1.644,6.717s-4.257-1.4-5.254-4.5-.258-6.1,1.644-6.713S1622.741,1113.662,1623.738,1116.757Z" transform="translate(-835.972 -597.276)" fill="#7d97f4"/>
    <path id="Path_74935" data-name="Path 74935" d="M1566.99,1319.758a2.4,2.4,0,0,1-.916-.185,2.213,2.213,0,0,1-1.212-2.948l48.646-109.491a2.356,2.356,0,0,1,3.049-1.155,2.214,2.214,0,0,1,1.213,2.948l-48.646,109.491a2.309,2.309,0,0,1-2.132,1.339Z" transform="translate(-804.159 -654.869)" fill="#91b3fa"/>
    <path id="Path_74936" data-name="Path 74936" d="M1631.629,1319.726a2.309,2.309,0,0,1-2.133-1.359l-48.65-109.491a2.221,2.221,0,0,1,1.216-2.949,2.348,2.348,0,0,1,3.045,1.155l48.65,109.491a2.217,2.217,0,0,1-1.213,2.949A2.417,2.417,0,0,1,1631.629,1319.726Z" transform="translate(-813.993 -654.836)" fill="#91b3fa"/>
    <path id="Path_74937" data-name="Path 74937" d="M1958.21,1319.758a2.4,2.4,0,0,1-.916-.185,2.214,2.214,0,0,1-1.212-2.948l48.646-109.491a2.356,2.356,0,0,1,3.048-1.155,2.214,2.214,0,0,1,1.213,2.948l-48.646,109.491A2.309,2.309,0,0,1,1958.21,1319.758Z" transform="translate(-1044.79 -654.869)" fill="#91b3fa"/>
    <path id="Path_74938" data-name="Path 74938" d="M2022.849,1319.726a2.309,2.309,0,0,1-2.132-1.359l-48.65-109.491a2.221,2.221,0,0,1,1.216-2.949,2.348,2.348,0,0,1,3.045,1.155l48.65,109.491a2.221,2.221,0,0,1-1.212,2.948A2.417,2.417,0,0,1,2022.849,1319.726Z" transform="translate(-1054.624 -654.836)" fill="#91b3fa"/>
    <path id="Path_74939" data-name="Path 74939" d="M1757.989,1195.844a2.694,2.694,0,0,0-.462-2.025,2.105,2.105,0,0,0-1.686-.889h-221.33a2.46,2.46,0,0,0-2.121,1.3,3.125,3.125,0,0,0-.166,2.694l2.4,5.808a3.356,3.356,0,0,0,3.049,2.182h216.638a2.633,2.633,0,0,0,2.5-2.309Z" transform="translate(-784.059 -646.958)" fill="#bdd0fb"/>
    <path id="Path_74940" data-name="Path 74940" d="M1343.922,310.763l-6.159-3.537a5.878,5.878,0,0,1-2.91-4.584,62.635,62.635,0,0,0-2.895-14.011,5.875,5.875,0,0,1,.855-5.37l4.261-5.693a7.021,7.021,0,0,0,.188-8.153l-5-7.406a7.025,7.025,0,0,0-7.645-2.837l-6.863,1.859a5.885,5.885,0,0,1-5.308-1.193,62.7,62.7,0,0,0-11.932-7.868,5.874,5.874,0,0,1-3.187-4.4l-1.012-7.033a7.017,7.017,0,0,0-5.628-5.9l-8.788-1.686a7.029,7.029,0,0,0-7.452,3.4l-3.537,6.159a5.885,5.885,0,0,1-4.588,2.91,62.643,62.643,0,0,0-14.007,2.895,5.874,5.874,0,0,1-5.389-.855l-5.693-4.261a7.033,7.033,0,0,0-8.156-.189l-7.4,5.023a7.025,7.025,0,0,0-2.837,7.645l1.855,6.863a5.882,5.882,0,0,1-1.189,5.308,62.51,62.51,0,0,0-7.868,11.933,5.874,5.874,0,0,1-4.4,3.187l-7.032,1.012a7.013,7.013,0,0,0-5.9,5.631l-1.686,8.784a7.029,7.029,0,0,0,3.4,7.414l6.159,3.537a5.87,5.87,0,0,1,2.906,4.588,62.864,62.864,0,0,0,2.922,14.027,5.885,5.885,0,0,1-.854,5.37l-4.261,5.693a7.029,7.029,0,0,0-.189,8.157l5,7.4a7.025,7.025,0,0,0,7.645,2.837l6.863-1.855a5.882,5.882,0,0,1,5.308,1.189,62.516,62.516,0,0,0,11.933,7.868,5.874,5.874,0,0,1,3.187,4.4l1.008,7.033a7.033,7.033,0,0,0,5.631,5.9l8.788,1.682a7.025,7.025,0,0,0,7.414-3.4l3.537-6.159a5.862,5.862,0,0,1,4.588-2.906,62.647,62.647,0,0,0,14.007-2.9,5.885,5.885,0,0,1,5.389.855l5.708,4.261a7.013,7.013,0,0,0,8.153.189l7.406-5a7.025,7.025,0,0,0,2.837-7.645l-1.855-6.863a5.87,5.87,0,0,1,1.189-5.308,62.51,62.51,0,0,0,7.868-11.933,5.874,5.874,0,0,1,4.4-3.187l7.032-1.008a7.025,7.025,0,0,0,5.912-5.666l1.686-8.788a7.029,7.029,0,0,0-3.418-7.414Zm-76.53,49.4a52.064,52.064,0,1,1,56.453-47.272A52.064,52.064,0,0,1,1267.392,360.164Z" transform="translate(-577.7 -56.419)" fill="#ce6e70"/>
    <path id="Path_74941" data-name="Path 74941" d="M1261.44,383.013a8.256,8.256,0,0,1-1.559-.15l-8.788-1.682a8.311,8.311,0,0,1-6.659-6.979l-1.012-7.029a4.619,4.619,0,0,0-2.5-3.437,64.215,64.215,0,0,1-12.19-8.026,4.619,4.619,0,0,0-4.149-.939l-6.863,1.855a8.307,8.307,0,0,1-9.042-3.353l-5-7.4a8.31,8.31,0,0,1,.223-9.623l4.242-5.7a4.619,4.619,0,0,0,.662-4.2,64.215,64.215,0,0,1-2.937-14.311,4.619,4.619,0,0,0-2.271-3.587l-6.159-3.537a8.306,8.306,0,0,1-4.022-8.765l1.682-8.788a8.314,8.314,0,0,1,6.979-6.659l7.029-1.012a4.619,4.619,0,0,0,3.437-2.494A64.06,64.06,0,0,1,1220.565,265a4.619,4.619,0,0,0,.939-4.146l-1.855-6.867a8.307,8.307,0,0,1,3.353-9.042l7.4-5.023a8.318,8.318,0,0,1,9.623.223l5.693,4.261a4.592,4.592,0,0,0,4.2.662,64.219,64.219,0,0,1,14.3-2.952,4.619,4.619,0,0,0,3.588-2.271l3.537-6.159a8.314,8.314,0,0,1,8.765-4.022l8.788,1.682a8.311,8.311,0,0,1,6.655,6.979l1.012,7.029a4.619,4.619,0,0,0,2.494,3.437,63.958,63.958,0,0,1,12.194,8.029,4.619,4.619,0,0,0,4.15.935l6.863-1.855a8.314,8.314,0,0,1,9.042,3.353l5.046,7.4a8.318,8.318,0,0,1-.223,9.642l-4.261,5.689a4.619,4.619,0,0,0-.662,4.2,64.209,64.209,0,0,1,2.952,14.3,4.619,4.619,0,0,0,2.271,3.587l6.159,3.537a8.314,8.314,0,0,1,4.022,8.769l-1.7,8.784a8.311,8.311,0,0,1-6.979,6.659l-7.029,1.012a4.619,4.619,0,0,0-3.437,2.5,63.94,63.94,0,0,1-8.03,12.19,4.619,4.619,0,0,0-.935,4.149l1.855,6.863a8.307,8.307,0,0,1-3.353,9.042l-7.406,5a8.311,8.311,0,0,1-9.623-.223l-5.689-4.261a4.619,4.619,0,0,0-4.2-.662,64.127,64.127,0,0,1-14.3,2.952,4.619,4.619,0,0,0-3.587,2.271l-3.537,6.159A8.318,8.318,0,0,1,1261.44,383.013Zm-35.686-30.959a7.2,7.2,0,0,1,4.619,1.69,61.824,61.824,0,0,0,11.706,7.7,7.156,7.156,0,0,1,3.876,5.358l1.012,7.029a5.743,5.743,0,0,0,4.619,4.823l8.788,1.686a5.747,5.747,0,0,0,6.059-2.783l3.537-6.159a7.171,7.171,0,0,1,5.585-3.545,61.779,61.779,0,0,0,13.723-2.837,7.16,7.16,0,0,1,6.544,1.047l5.693,4.257a5.739,5.739,0,0,0,6.663.158l7.406-5a5.751,5.751,0,0,0,2.31-6.251l-1.855-6.863a7.179,7.179,0,0,1,1.443-6.463,61.581,61.581,0,0,0,7.7-11.705,7.156,7.156,0,0,1,5.358-3.876l7.029-1.012a5.743,5.743,0,0,0,4.823-4.619l1.686-8.788a5.747,5.747,0,0,0-2.783-6.059l-6.159-3.537a7.152,7.152,0,0,1-3.545-5.585,61.82,61.82,0,0,0-2.837-13.722,7.179,7.179,0,0,1,1.043-6.544l4.25-5.685a5.739,5.739,0,0,0,.158-6.663l-5-7.406a5.751,5.751,0,0,0-6.251-2.31l-6.863,1.855a7.179,7.179,0,0,1-6.467-1.443,61.485,61.485,0,0,0-11.7-7.7,7.179,7.179,0,0,1-3.88-5.362l-1.009-7.029a5.743,5.743,0,0,0-4.619-4.823l-8.788-1.682a5.739,5.739,0,0,0-6.059,2.779l-3.537,6.159a7.179,7.179,0,0,1-5.585,3.549,61.588,61.588,0,0,0-13.722,2.833,7.167,7.167,0,0,1-6.544-1.043l-5.693-4.261a5.732,5.732,0,0,0-6.663-.154l-7.406,5.023a5.743,5.743,0,0,0-2.31,6.247l1.855,6.867a7.175,7.175,0,0,1-1.443,6.459,61.469,61.469,0,0,0-7.7,11.705,7.171,7.171,0,0,1-5.358,3.88l-7.032,1.008a5.743,5.743,0,0,0-4.819,4.619l-1.686,8.788a5.747,5.747,0,0,0,2.783,6.059l6.159,3.537a7.171,7.171,0,0,1,3.545,5.585,61.833,61.833,0,0,0,2.849,13.707,7.175,7.175,0,0,1-1.043,6.544l-4.261,5.693a5.743,5.743,0,0,0-.158,6.667l5,7.4a5.751,5.751,0,0,0,6.251,2.31l6.863-1.855A7.125,7.125,0,0,1,1225.754,352.054Zm44.266,7.56q-2.356,0-4.742-.212h0a53.3,53.3,0,1,1,4.758.212Zm-4.492-2.764a50.772,50.772,0,1,0-46.11-55.044A50.8,50.8,0,0,0,1265.528,356.85Z" transform="translate(-575.713 -54.384)" fill="#bdd0fb"/>
    <path id="Path_74942" data-name="Path 74942" d="M1336.595,326.5c-1.278.55,6.324,49.655-1.925,81.919,0,0,15.181,7.748,31.948,4.488,0,0,28.407-43.473,29.185-48.7.882-5.928-3.672-36.317-3.672-36.317S1368.077,312.887,1336.595,326.5Z" transform="translate(-662.689 -110.523)" fill="url(#linear-gradient-31)"/>
    <path id="Path_74943" data-name="Path 74943" d="M1409.7,347.181c14.7.5,15.866-12.094,15.012-20.493a61.9,61.9,0,0,0-33.35-5.52C1391.077,328.335,1392.055,346.58,1409.7,347.181Z" transform="translate(-697.536 -110.529)" fill="url(#linear-gradient-32)"/>
    <path id="Path_74944" data-name="Path 74944" d="M1430.763,264.67s-7.313,15.424-11.548,21.941a4.461,4.461,0,0,0,.9,5.9c2.025,1.644,5.308,3.276,10.393,3.326a4.731,4.731,0,0,0,4.6-3.5l4.815-17.618Z" transform="translate(-714.239 -76.006)" fill="url(#linear-gradient-33)"/>
    <path id="Path_74945" data-name="Path 74945" d="M1483.94,339.23s21.483,39.262,60.286,7.641l4.423,7.006s-28.411,43.881-63.439,13.43Z" transform="translate(-754.501 -121.866)" fill="url(#linear-gradient-34)"/>
    <path id="Path_74946" data-name="Path 74946" d="M1668.15,346.282a5.462,5.462,0,0,0-3.191-3.491l-15.012-6.036s-.227-1.925,3.172-3.233,2.6-5.112,2.6-5.112-4.642,2.117-11.436,5.474a15.907,15.907,0,0,0-7.225,7.868l3.849,5.081a68.685,68.685,0,0,0,28.053,2.209Z" transform="translate(-848.682 -115.211)" fill="url(#linear-gradient-35)"/>
    <path id="Path_74947" data-name="Path 74947" d="M1287.354,335.62s-36.456,18.88-32.43,54.493,59.247,2.918,59.247,2.918l-1.339-8.568s-33.785,9.8-39.408,1.37c-4.126-6.186,9.708-20.674,17.375-27.957a9.065,9.065,0,0,0,2.005-10.354Z" transform="translate(-613.447 -119.646)" fill="url(#linear-gradient-36)"/>
    <path id="Path_74948" data-name="Path 74948" d="M1396.325,423.734l15.289-53.385a1.54,1.54,0,0,1,1.316-1.12c2.768-.323,10.778-1.232,20.062-2.017,11.163-.943,24.123-1.709,31.868-1.059a1.563,1.563,0,0,1,1.278,2.248c-4.4,8.915-22.522,45.163-31.594,57.038a1.574,1.574,0,0,1-1.262.62l-35.467-.331a1.567,1.567,0,0,1-1.49-1.994Z" transform="translate(-700.575 -138.277)" fill="#bdd0fb"/>
    <path id="Path_74949" data-name="Path 74949" d="M1403.644,453.536s-2.129-8.753-1.27-11.859,2.521-7.1,8.083-6.216a80.958,80.958,0,0,1,12.087,3.21s-.331,4.046-4.546,2.741l2.614,2.025s-.385,3.237-3.934,1.509l2.429,2.694a2.839,2.839,0,0,1-4.15.955C1412.347,446.888,1411.081,454.591,1403.644,453.536Z" transform="translate(-704.206 -180.978)" fill="url(#linear-gradient-37)"/>
    <path id="Path_74950" data-name="Path 74950" d="M1474.842,225.146s3.38,7.81-.593,19.681-10.462,12.9-14.573,9.966-9.438-8.18-10.1-18.93S1470.185,215.269,1474.842,225.146Z" transform="translate(-733.355 -49.188)" fill="url(#linear-gradient-38)"/>
    <path id="Path_74951" data-name="Path 74951" d="M1446.347,216.049s7.175-16.067,17.933-6.059l.828,4.134s10.247-2.918,6.879-12.2a18.81,18.81,0,0,0-26.56-9.561c-10.951,6.016-14.681,13.087-14.092,21.556s6.929,5.558,6.929,5.558,1.22-6.213,4.2-7.314,2.914,3.6,2.914,3.6Z" transform="translate(-722.109 -30.076)" fill="#151218"/>
    <path id="Path_74952" data-name="Path 74952" d="M1456.2,244.541s3.734-8.237-1.5-8.534-3.106,7.941-2.063,10.943Z" transform="translate(-734.436 -58.371)" fill="url(#linear-gradient-39)"/>
    <path id="Path_74953" data-name="Path 74953" d="M1338.989,187.273a3.677,3.677,0,0,0,2.117-6.159c-6.436-7.033-18.584-14.835-35.894-2.86-19.5,13.472-30.024,19.589-34.832,18.307a3.7,3.7,0,0,0-4.4,5.169c1.1,2.14,3.333,4.377,7.464,6.417C1305.32,223.871,1321.795,189.367,1338.989,187.273Z" transform="translate(-620.186 -19.032)" fill="#151218"/>
    <path id="Path_74954" data-name="Path 74954" d="M1825.3,487.277l-6.066-7.252a7.821,7.821,0,0,1-1.54-7.067,83.44,83.44,0,0,0,2.821-18.83,7.829,7.829,0,0,1,3.534-6.317l7.941-5.15a9.35,9.35,0,0,0,3.98-10.1l-2.871-11.548a9.35,9.35,0,0,0-8.249-7.06l-9.427-.835a7.81,7.81,0,0,1-6.078-3.926,83.776,83.776,0,0,0-11.309-15.32,7.814,7.814,0,0,1-1.963-6.956l1.971-9.238a9.342,9.342,0,0,0-4.323-9.954l-10.2-6.159a9.357,9.357,0,0,0-10.824.843l-7.248,6.066a7.825,7.825,0,0,1-7.067,1.54,83.279,83.279,0,0,0-18.83-2.821,7.825,7.825,0,0,1-6.317-3.537l-5.154-7.937a9.35,9.35,0,0,0-10.1-3.984l-11.548,2.871a9.354,9.354,0,0,0-7.052,8.222l-.835,9.427a7.837,7.837,0,0,1-3.926,6.082,83.277,83.277,0,0,0-15.32,11.309,7.822,7.822,0,0,1-6.959,1.959l-9.238-1.967a9.35,9.35,0,0,0-9.958,4.323l-6.139,10.2a9.35,9.35,0,0,0,.839,10.82l6.07,7.252a7.815,7.815,0,0,1,1.54,7.063,83.49,83.49,0,0,0-2.821,18.83,7.822,7.822,0,0,1-3.534,6.317l-7.941,5.154a9.357,9.357,0,0,0-3.984,10.1l2.875,11.548a9.346,9.346,0,0,0,8.222,7.067l9.427.835a7.826,7.826,0,0,1,6.082,3.93,83.606,83.606,0,0,0,11.309,15.316,7.826,7.826,0,0,1,1.963,6.959l-1.971,9.238a9.353,9.353,0,0,0,4.323,9.958l10.2,6.159a9.35,9.35,0,0,0,10.824-.839l7.248-6.07a7.821,7.821,0,0,1,7.067-1.54,83.463,83.463,0,0,0,18.83,2.822,7.821,7.821,0,0,1,6.317,3.534l5.15,7.941a9.357,9.357,0,0,0,10.1,3.984l11.548-2.872a9.354,9.354,0,0,0,7.059-8.249l.835-9.427a7.825,7.825,0,0,1,3.926-6.082,83.282,83.282,0,0,0,15.32-11.309,7.806,7.806,0,0,1,6.955-1.959l9.238,1.967a9.349,9.349,0,0,0,9.958-4.323l6.14-10.2A9.342,9.342,0,0,0,1825.3,487.277ZM1706.991,513.81a69.286,69.286,0,1,1,92.246-33.1A69.286,69.286,0,0,1,1706.991,513.81Z" transform="translate(-848.581 -129.39)" fill="#4e4755"/>
    <path id="Path_74955" data-name="Path 74955" d="M1750.792,550.015a10.639,10.639,0,0,1-8.922-4.845l-5.151-7.938a6.544,6.544,0,0,0-5.285-2.952,85,85,0,0,1-19.123-2.864,6.544,6.544,0,0,0-5.908,1.27l-7.248,6.066a10.643,10.643,0,0,1-12.318.958l-10.2-6.159a10.639,10.639,0,0,1-4.919-11.324l1.971-9.238a6.562,6.562,0,0,0-1.644-5.816,84.878,84.878,0,0,1-11.486-15.551,6.544,6.544,0,0,0-5.081-3.291l-9.427-.835a10.643,10.643,0,0,1-9.38-8.026l-2.872-11.548a10.643,10.643,0,0,1,4.531-11.486l7.937-5.15a6.543,6.543,0,0,0,2.952-5.285,85.074,85.074,0,0,1,2.864-19.123,6.543,6.543,0,0,0-1.266-5.909l-6.07-7.248a10.639,10.639,0,0,1-.958-12.318l6.159-10.2a10.632,10.632,0,0,1,11.321-4.915l9.238,1.967a6.544,6.544,0,0,0,5.816-1.644,84.8,84.8,0,0,1,15.555-11.482,6.543,6.543,0,0,0,3.287-5.085l.835-9.427a10.635,10.635,0,0,1,8.026-9.377l11.548-2.875a10.651,10.651,0,0,1,11.482,4.531l5.169,7.952a6.563,6.563,0,0,0,5.285,2.952,84.845,84.845,0,0,1,19.123,2.864,6.544,6.544,0,0,0,5.909-1.27l7.248-6.07a10.635,10.635,0,0,1,12.318-.955l10.2,6.139a10.635,10.635,0,0,1,4.919,11.324l-1.971,9.238a6.544,6.544,0,0,0,1.644,5.816,85.028,85.028,0,0,1,11.486,15.555,6.544,6.544,0,0,0,5.081,3.287l9.427.839a10.639,10.639,0,0,1,9.381,8.026l2.871,11.548a10.635,10.635,0,0,1-4.531,11.482l-7.933,5.169a6.544,6.544,0,0,0-2.948,5.285,84.775,84.775,0,0,1-2.868,19.119,6.544,6.544,0,0,0,1.27,5.909l6.07,7.252a10.632,10.632,0,0,1,.955,12.318l-6.14,10.2a10.636,10.636,0,0,1-11.351,4.9l-9.238-1.967a6.544,6.544,0,0,0-5.816,1.644,84.751,84.751,0,0,1-15.555,11.482,6.544,6.544,0,0,0-3.287,5.081l-.835,9.427a10.636,10.636,0,0,1-8.026,9.381l-11.548,2.872A10.6,10.6,0,0,1,1750.792,550.015Zm-40.217-21.394a9.158,9.158,0,0,1,2.4.319,82.343,82.343,0,0,0,18.546,2.775,9.123,9.123,0,0,1,7.344,4.119l5.154,7.941a8.083,8.083,0,0,0,8.715,3.437l11.548-2.875a8.084,8.084,0,0,0,6.09-7.117l.843-9.431a9.127,9.127,0,0,1,4.565-7.079,82.289,82.289,0,0,0,15.085-11.136,9.107,9.107,0,0,1,8.083-2.275l9.238,1.967a8.083,8.083,0,0,0,8.591-3.73l6.159-10.2a8.084,8.084,0,0,0-.727-9.338l-6.074-7.244a9.122,9.122,0,0,1-1.778-8.222,82.342,82.342,0,0,0,2.779-18.542,9.123,9.123,0,0,1,4.119-7.348l7.968-5.154a8.084,8.084,0,0,0,3.437-8.711l-2.871-11.548a8.083,8.083,0,0,0-7.117-6.089l-9.427-.835a9.126,9.126,0,0,1-7.078-4.565,82.551,82.551,0,0,0-11.136-15.085,9.115,9.115,0,0,1-2.279-8.083l1.971-9.238a8.083,8.083,0,0,0-3.73-8.591l-10.2-6.139a8.083,8.083,0,0,0-9.338.724l-7.279,6.036a9.119,9.119,0,0,1-8.226,1.778,82.347,82.347,0,0,0-18.542-2.775,9.123,9.123,0,0,1-7.344-4.119l-5.15-7.941a8.084,8.084,0,0,0-8.715-3.437l-11.548,2.875a8.084,8.084,0,0,0-6.089,7.113l-.835,9.427a9.123,9.123,0,0,1-4.565,7.079,82.372,82.372,0,0,0-15.085,11.136,9.107,9.107,0,0,1-8.083,2.279l-9.238-1.971a8.083,8.083,0,0,0-8.591,3.73l-6.159,10.2a8.083,8.083,0,0,0,.728,9.338l6.066,7.252a9.115,9.115,0,0,1,1.782,8.222,82.136,82.136,0,0,0-2.779,18.542,9.122,9.122,0,0,1-4.119,7.348l-7.937,5.15a8.083,8.083,0,0,0-3.437,8.715l2.872,11.548a8.083,8.083,0,0,0,7.117,6.089l9.427.839a9.122,9.122,0,0,1,7.079,4.561,82.158,82.158,0,0,0,11.136,15.085,9.107,9.107,0,0,1,2.275,8.083l-1.967,9.238a8.083,8.083,0,0,0,3.73,8.591l10.2,6.159a8.083,8.083,0,0,0,9.338-.727l7.248-6.066A9.073,9.073,0,0,1,1710.575,528.621Zm23.784-9a70.189,70.189,0,0,1-30.029-6.746l0,0a70.6,70.6,0,1,1,30.024,6.744Zm-28.915-9.065a69.628,69.628,0,1,0-.008,0Z" transform="translate(-846.483 -127.291)" fill="#bdd0fb"/>
    <path id="Path_74956" data-name="Path 74956" d="M1782.259,553.364s29.735-7.46,61.149-2.96a30.543,30.543,0,0,1,21.44,13.957c8.6,13.6,20.744,37.838,18.176,63.127l-13.492,3.337s-9.334-30.012-19.816-42.2c0,0-12.425,28.326-11.8,43.881.019.439.046.87.085,1.286,1.428,15.22-59.663,2.841-59.663,2.841Z" transform="translate(-935.58 -250.867)" fill="#9e005d"/>
    <path id="Path_74957" data-name="Path 74957" d="M1850.85,476.267l1.359,21.09a4.581,4.581,0,0,0,3.176,4.153c4.1,1.212,11.844,2.675,19.435-.385a3.026,3.026,0,0,0,1.636-3.707l-10.039-32.249Z" transform="translate(-980.18 -199.329)" fill="#bda891"/>
    <path id="Path_74958" data-name="Path 74958" d="M1830.416,414.64s-6.413,14.735-6.844,22.468-2.1,12.749,6.844,14.307,16.475-2.9,20.555-10.6c0,0,6.394-11.871,4.958-16.729S1830.416,414.64,1830.416,414.64Z" transform="translate(-963.152 -168.249)" fill="#c7b299"/>
    <path id="Path_74959" data-name="Path 74959" d="M1846.251,409.564h-1.132s4.657-9.554.566-11.232-20.3-4.981-23.8-10.735c-3.372-5.543-.385-12.7,4.134-14.712a.6.6,0,0,1,.77.285l.385.7a.608.608,0,0,0,1.12-.115h0a.6.6,0,0,1,1.089-.166c1.07,1.721,3.969,4.515,11.744,5.951,11.032,2.036,18.326,6.5,18.5,14.127a.608.608,0,0,0,.943.5c.812-.5,2.117-.727,3.849.735,3.029,2.548,1.79,9.157-4.85,14.592a.6.6,0,0,0,.031.974c1.2.77,3,2.648-1.655,5.131-4.754,2.544-7.571,2.267-8.634,1.994a.6.6,0,0,1-.458-.627l.416-6.755a.6.6,0,0,0-.6-.647Z" transform="translate(-961.474 -142.537)" fill="url(#linear-gradient-40)"/>
    <path id="Path_74960" data-name="Path 74960" d="M1886.78,460.356s2.444-9.408,6.667-6.771-2.19,10.543-5.585,10.9Z" transform="translate(-1002.279 -191.917)" fill="#c2ad95"/>
    <path id="Path_74961" data-name="Path 74961" d="M1748.3,621.01c-1.317-9.3,8.314-22.972,12.317-28.161a8.615,8.615,0,0,0,1.794-5.17c.115-13.172-5.412-21.629-14.273-27.329,0,0-32.164,37.468-23.973,66.291a24.228,24.228,0,0,0,3.988,8.083C1729.439,623.878,1741.976,621.51,1748.3,621.01Z" transform="translate(-901.438 -257.872)" fill="#d4145a"/>
    <path id="Path_74962" data-name="Path 74962" d="M1788.6,668.745l-1.224-.139c1.039-9.123,9.042-20.4,12.433-24.8l.978.77C1797.461,648.887,1789.609,659.931,1788.6,668.745Z" transform="translate(-941.141 -309.207)" fill="#1b1464"/>
    <path id="Path_74963" data-name="Path 74963" d="M1757.03,719.226a11.511,11.511,0,0,1-.254-1.286c-6.324.5-18.861,2.868-20.166,13.73,14.354,18.98,53.912,12.133,53.912,12.133v-7.387S1760.14,730.769,1757.03,719.226Z" transform="translate(-909.913 -354.802)" fill="#c7b299"/>
    <path id="Path_74964" data-name="Path 74964" d="M1866.79,763.935s5.855-13.792,16.136-8.9,9.48,8.083,9.48,8.083Z" transform="translate(-989.984 -376.975)" fill="#bda891"/>
    <path id="Path_74965" data-name="Path 74965" d="M1863.371,771.354h0a1.959,1.959,0,0,0,2.017,1.8l53.335-1.863a1.955,1.955,0,0,0,1.8-1.37l1.54-4.954a1.955,1.955,0,0,0-1.763-2.533L1900.85,761.4a1.865,1.865,0,0,0-.527.042l-35.432,7.849A1.955,1.955,0,0,0,1863.371,771.354Z" transform="translate(-987.877 -381.534)" fill="url(#linear-gradient-41)"/>
    <path id="Path_74966" data-name="Path 74966" d="M1956.26,771.276l1.47-6.836,19.977.951-1.316,5.674Z" transform="translate(-1045.015 -383.404)" fill="url(#linear-gradient-42)"/>
    <path id="Path_74967" data-name="Path 74967" d="M1917.355,578.956c-1.128,9.238-6.217,46.776-7.672,57.5a2.463,2.463,0,0,0,2.514,2.795l86.288-2.471a2.468,2.468,0,0,0,2.337-1.925l13.422-60.433a2.467,2.467,0,0,0-2.552-3l-92.031,5.389A2.467,2.467,0,0,0,1917.355,578.956Z" transform="translate(-1016.353 -264.681)" fill="url(#linear-gradient-43)"/>
    <path id="Path_74968" data-name="Path 74968" d="M1999.382,684.93l-12.752,36.183,29.639.627,2.471-36.606a2.848,2.848,0,0,0-3.025-3.033l-13.857.92a2.845,2.845,0,0,0-2.475,1.909Z" transform="translate(-1063.695 -332.755)" fill="url(#linear-gradient-44)"/>
    <path id="Path_74969" data-name="Path 74969" d="M1955.277,779.956h0a1.54,1.54,0,0,0,1.463,2.021h46.437a1.54,1.54,0,0,0,1.54-1.54v-1.99a1.54,1.54,0,0,0-1.605-1.54l-46.448,1.99A1.54,1.54,0,0,0,1955.277,779.956Z" transform="translate(-1044.363 -391.071)" fill="url(#linear-gradient-45)"/>
    <path id="Path_74970" data-name="Path 74970" d="M1925.217,622.75l-.847-.108,4.234-33.434a4.48,4.48,0,0,1,4.172-3.884l79.529-4.8.05.854-79.529,4.8a3.618,3.618,0,0,0-3.368,3.156Z" transform="translate(-1025.4 -270.278)" fill="#bdd0fb"/>
    <rect id="Rectangle_2053" data-name="Rectangle 2053" width="7.294" height="0.855" transform="matrix(0.125, -0.992, 0.992, 0.125, 896.837, 369.115)" fill="#bdd0fb"/>
    <path id="Path_74971" data-name="Path 74971" d="M756,173.929a.812.812,0,0,1-.793-.8c-.081-4.457-1.47-26.583-20.955-31.206-21.694-5.146-31.621,16.913-31.621,16.913s-26.837-10.293-31.987,17.279c-16.829,4.042-21.2,26.021-10.254,36.76a9.4,9.4,0,0,0,6.505,2.694l105.4.962A6.929,6.929,0,0,0,779,211.574C782.294,200.446,786.609,174.645,756,173.929Z" transform="translate(-244.257 -0.03)" fill="#7d97f4"/>
    <path id="Path_74972" data-name="Path 74972" d="M758.5,178.619a.808.808,0,0,1-.793-.793c-.085-4.273-1.463-24.789-19.812-29.089-20.512-4.808-29.9,15.782-29.9,15.782s-25.366-9.585-30.247,16.147c-15.759,3.738-19.966,23.9-10.008,34.035a9.4,9.4,0,0,0,6.621,2.806l99.217.885a6.928,6.928,0,0,0,6.721-4.981C783.412,202.857,787.081,179.3,758.5,178.619Z" transform="translate(-249.171 -4.251)" opacity="0.5" fill="url(#linear-gradient-46)"/>
    <path id="Path_74973" data-name="Path 74973" d="M480.938,344.066a.489.489,0,0,1-.481-.477c-.046-2.694-.885-16.051-12.652-18.861-13.087-3.11-19.092,10.212-19.092,10.212s-16.205-6.216-19.312,10.431c-10.177,2.46-12.818,15.739-6.2,22.214a5.685,5.685,0,0,0,3.93,1.628l63.635.57a4.184,4.184,0,0,0,4.03-2.995C496.8,360.079,499.414,344.5,480.938,344.066Z" transform="translate(-99.83 -112.657)" fill="#7d97f4"/>
    <path id="Path_74974" data-name="Path 74974" d="M482.435,346.934a.493.493,0,0,1-.477-.481c-.054-2.579-.885-14.97-11.963-17.564-12.387-2.9-18.053,9.535-18.053,9.535s-15.324-5.8-18.265,9.746c-9.515,2.256-12.056,14.431-6.032,20.547a5.685,5.685,0,0,0,4,1.7l59.905.531a4.2,4.2,0,0,0,4.057-3.022C497.474,361.564,499.688,347.345,482.435,346.934Z" transform="translate(-102.798 -115.235)" opacity="0.5" fill="url(#linear-gradient-46)"/>
    <path id="Path_74975" data-name="Path 74975" d="M1814.8,1183.489l-1.3,1.12a.452.452,0,1,1-.593-.681h0l1.32-1.078h0a.427.427,0,1,1,.55.654Z" transform="translate(-956.749 -640.697)" fill="#fff"/>
    <path id="Path_74976" data-name="Path 74976" d="M1793.635,1200l-1.359,1.043a.6.6,0,1,1-.735-.955h0l1.382-1h0a.578.578,0,1,1,.689.928Z" transform="translate(-943.531 -650.676)" fill="#fff"/>
    <path id="Path_74977" data-name="Path 74977" d="M1771.5,1215.42l-1.409.978a.77.77,0,1,1-.858-1.232h0l1.428-.931h0a.728.728,0,0,1,.812,1.2Z" transform="translate(-929.682 -659.999)" fill="#fff"/>
    <path id="Path_74978" data-name="Path 74978" d="M1749.135,1229.814l-1.444.92a.91.91,0,0,1-.97-1.54h0l1.463-.87h0a.878.878,0,0,1,.916,1.493Z" transform="translate(-915.871 -668.665)" fill="#fff"/>
    <path id="Path_74979" data-name="Path 74979" d="M1726.083,1243.395l-1.486.862a1.005,1.005,0,1,1-1.008-1.74h0l1.486-.831h0a.993.993,0,0,1,.982,1.724Z" transform="translate(-901.596 -676.88)" fill="#fff"/>
    <path id="Path_74980" data-name="Path 74980" d="M1702.6,1256.269l-1.509.816a1.093,1.093,0,0,1-1.035-1.925h0l1.513-.77h0a1.078,1.078,0,0,1,1.009,1.9Z" transform="translate(-887.073 -684.7)" fill="#fff"/>
    <path id="Path_74981" data-name="Path 74981" d="M1678.75,1268.386l-1.54.77a1.175,1.175,0,0,1-1.066-2.094h.023l1.54-.747h0a1.161,1.161,0,0,1,1.035,2.079Z" transform="translate(-872.327 -692.021)" fill="#fff"/>
    <path id="Path_74982" data-name="Path 74982" d="M1654.562,1279.982l-1.54.739a1.259,1.259,0,1,1-1.085-2.267h0l1.54-.712h0a1.243,1.243,0,1,1,1.055,2.252Z" transform="translate(-857.354 -699.052)" fill="#fff"/>
    <path id="Path_74983" data-name="Path 74983" d="M1630.216,1290.94l-1.59.666a1.306,1.306,0,1,1-1.009-2.41h0l1.57-.647h0a1.3,1.3,0,0,1,1,2.406Z" transform="translate(-842.381 -705.711)" fill="#fff"/>
    <path id="Path_74984" data-name="Path 74984" d="M1605.22,1300.662l-1.617.585a1.316,1.316,0,1,1-.893-2.475h0l1.6-.577h0a1.314,1.314,0,0,1,.893,2.471Z" transform="translate(-826.992 -711.656)" fill="#fff"/>
    <path id="Path_74985" data-name="Path 74985" d="M1579.985,1309.3l-1.636.52a1.325,1.325,0,1,1-.8-2.525h0l1.624-.516h0a1.324,1.324,0,1,1,.8,2.525Z" transform="translate(-811.508 -716.947)" fill="#fff"/>
    <path id="Path_74986" data-name="Path 74986" d="M1554.337,1317.067l-1.651.47a1.336,1.336,0,1,1-.731-2.567h0l1.64-.462h0a1.336,1.336,0,0,1,.731,2.568Z" transform="translate(-795.71 -721.714)" fill="#fff"/>
    <path id="Path_74987" data-name="Path 74987" d="M1528.661,1324.027l-1.663.427a1.345,1.345,0,1,1-.666-2.606h0l1.651-.42h0a1.343,1.343,0,1,1,.666,2.6Z" transform="translate(-779.953 -725.964)" fill="#fff"/>
    <path id="Path_74988" data-name="Path 74988" d="M1502.678,1330.375l-1.667.385a1.356,1.356,0,0,1-.616-2.641h0l1.663-.385h0a1.353,1.353,0,1,1,.608,2.637Z" transform="translate(-763.978 -729.852)" fill="#fff"/>
    <path id="Path_74989" data-name="Path 74989" d="M1476.718,1336.151l-1.678.35a1.366,1.366,0,0,1-.562-2.671h0l1.671-.346h0a1.365,1.365,0,0,1,.558,2.671Z" transform="translate(-748.053 -733.392)" fill="#fff"/>
    <path id="Path_74990" data-name="Path 74990" d="M1450.58,1341.373l-1.686.319a1.374,1.374,0,0,1-.512-2.694h0l1.674-.316a1.374,1.374,0,1,1,.516,2.694Z" transform="translate(-731.996 -736.581)" fill="#fff"/>
    <path id="Path_74991" data-name="Path 74991" d="M1424.258,1346.143l-1.69.289a1.386,1.386,0,0,1-.47-2.729h0l1.682-.285a1.383,1.383,0,1,1,.469,2.725Z" transform="translate(-715.789 -739.508)" fill="#fff"/>
    <path id="Path_74992" data-name="Path 74992" d="M1397.539,1350.476l-1.694.258a1.393,1.393,0,1,1-.427-2.752h0l1.686-.258a1.394,1.394,0,1,1,.427,2.756Z" transform="translate(-699.298 -742.158)" fill="#fff"/>
    <path id="Path_74993" data-name="Path 74993" d="M1370.735,1354.394l-1.7.235a1.4,1.4,0,1,1-.385-2.783h0l1.69-.227a1.4,1.4,0,1,1,.385,2.776Z" transform="translate(-682.844 -744.556)" fill="#fff"/>
    <path id="Path_74994" data-name="Path 74994" d="M1344.282,1357.813l-1.7.208a1.413,1.413,0,0,1-.339-2.806h0l1.694-.2a1.413,1.413,0,1,1,.343,2.8Z" transform="translate(-666.581 -746.64)" fill="#fff"/>
    <path id="Path_74995" data-name="Path 74995" d="M1317.66,1360.863l-1.7.181a1.424,1.424,0,1,1-.3-2.829h0l1.7-.177a1.421,1.421,0,0,1,.3,2.825Z" transform="translate(-650.17 -748.507)" fill="#fff"/>
    <path id="Path_74996" data-name="Path 74996" d="M1291.09,1363.506l-1.705.158a1.436,1.436,0,1,1-.262-2.856h0l1.7-.15a1.432,1.432,0,0,1,.262,2.848Z" transform="translate(-633.828 -750.124)" fill="#fff"/>
    <path id="Path_74997" data-name="Path 74997" d="M1264.507,1365.745l-1.705.131a1.443,1.443,0,1,1-.223-2.875h0l1.7-.127a1.44,1.44,0,1,1,.219,2.871Z" transform="translate(-617.488 -751.484)" fill="#fff"/>
    <path id="Path_74998" data-name="Path 74998" d="M1238.067,1367.593l-1.709.108a1.455,1.455,0,0,1-.181-2.9h0l1.7-.1a1.451,1.451,0,1,1,.181,2.895Z" transform="translate(-601.302 -752.605)" fill="#fff"/>
    <path id="Path_74999" data-name="Path 74999" d="M1211.335,1369.065l-1.713.081a1.463,1.463,0,1,1-.139-2.922h0l1.705-.077a1.46,1.46,0,0,1,.139,2.918Z" transform="translate(-584.832 -753.5)" fill="#fff"/>
    <path id="Path_75000" data-name="Path 75000" d="M1184.681,1370.132l-1.709.054a1.467,1.467,0,1,1-.092-2.933l1.705-.054a1.467,1.467,0,1,1,.1,2.933Z" transform="translate(-568.451 -754.147)" fill="#fff"/>
    <path id="Path_75001" data-name="Path 75001" d="M1157.921,1370.807l-1.713.027a1.459,1.459,0,1,1-.046-2.914l1.705-.031a1.459,1.459,0,1,1,.058,2.918Z" transform="translate(-551.966 -754.572)" fill="#fff"/>
    <path id="Path_75002" data-name="Path 75002" d="M1131.393,1371.082h-1.705a1.447,1.447,0,0,1,0-2.895h1.705a1.451,1.451,0,1,1,0,2.9Z" transform="translate(-535.718 -754.754)" fill="#fff"/>
    <path id="Path_75003" data-name="Path 75003" d="M1104.606,1370.881l-1.713-.031a1.44,1.44,0,1,1,.046-2.875l1.705.027a1.44,1.44,0,0,1-.035,2.879Z" transform="translate(-519.213 -754.623)" fill="#fff"/>
    <path id="Path_75004" data-name="Path 75004" d="M1078.057,1370.252l-1.713-.058a1.429,1.429,0,0,1,.1-2.856l1.705.054a1.432,1.432,0,1,1-.081,2.86Z" transform="translate(-502.948 -754.233)" fill="#fff"/>
    <path id="Path_75005" data-name="Path 75005" d="M1051.433,1369.158l-1.713-.089a1.418,1.418,0,0,1,.146-2.833l1.7.081a1.422,1.422,0,1,1-.127,2.841Z" transform="translate(-486.595 -753.555)" fill="#fff"/>
    <path id="Path_75006" data-name="Path 75006" d="M1024.816,1367.584l-1.713-.115a1.41,1.41,0,0,1,.2-2.814h0l1.7.116h0a1.413,1.413,0,0,1-.193,2.818Z" transform="translate(-470.243 -752.58)" fill="#fff"/>
    <path id="Path_75007" data-name="Path 75007" d="M998.182,1365.507l-1.705-.15a1.4,1.4,0,1,1,.246-2.791h0l1.7.146h0a1.4,1.4,0,1,1-.242,2.794Z" transform="translate(-453.868 -751.293)" fill="#fff"/>
    <path id="Path_75008" data-name="Path 75008" d="M971.8,1362.908l-1.7-.185a1.393,1.393,0,0,1,.3-2.768h0l1.694.185h0a1.393,1.393,0,1,1-.3,2.767Z" transform="translate(-437.722 -749.691)" fill="#fff"/>
    <path id="Path_75009" data-name="Path 75009" d="M945.118,1359.708l-1.7-.227a1.382,1.382,0,1,1,.362-2.737h0l1.69.219h0a1.384,1.384,0,1,1-.354,2.744Z" transform="translate(-421.258 -747.704)" fill="#fff"/>
    <path id="Path_75010" data-name="Path 75010" d="M918.627,1355.9l-1.69-.277a1.37,1.37,0,1,1,.423-2.694h0l1.682.262h0a1.374,1.374,0,0,1-.42,2.694Z" transform="translate(-404.956 -745.344)" fill="#fff"/>
    <path id="Path_75011" data-name="Path 75011" d="M892.508,1351.471l-1.686-.312a1.369,1.369,0,0,1,.489-2.694h0l1.678.3h0a1.369,1.369,0,1,1-.485,2.694Z" transform="translate(-388.996 -742.611)" fill="#fff"/>
    <path id="Path_75012" data-name="Path 75012" d="M866.367,1346.345l-1.678-.358a1.352,1.352,0,0,1,.562-2.644h0l1.667.35h0a1.355,1.355,0,1,1-.558,2.652Z" transform="translate(-372.954 -739.456)" fill="#fff"/>
    <path id="Path_75013" data-name="Path 75013" d="M840.356,1340.415l-1.671-.408a1.344,1.344,0,1,1,.643-2.61h0l1.655.385h0a1.345,1.345,0,0,1-.635,2.614Z" transform="translate(-356.99 -735.793)" fill="#fff"/>
    <path id="Path_75014" data-name="Path 75014" d="M814.552,1333.633l-1.655-.466a1.334,1.334,0,0,1,.724-2.567h0l1.64.458h0a1.336,1.336,0,0,1-.72,2.571Z" transform="translate(-341.159 -731.605)" fill="#fff"/>
    <path id="Path_75015" data-name="Path 75015" d="M789.181,1325.975l-1.636-.531a1.324,1.324,0,0,1,.831-2.506h0l1.617.523h0a1.328,1.328,0,0,1-.812,2.525Z" transform="translate(-325.665 -726.9)" fill="#fff"/>
    <path id="Path_75016" data-name="Path 75016" d="M763.707,1317.112l-1.613-.6a1.316,1.316,0,1,1,.92-2.464h0l1.594.589h0a1.316,1.316,0,1,1-.916,2.467Z" transform="translate(-309.945 -721.39)" fill="#fff"/>
    <path id="Path_75017" data-name="Path 75017" d="M739.032,1307.235l-1.578-.685a1.3,1.3,0,0,1,1.032-2.39h0l1.559.666h0a1.309,1.309,0,0,1-1.024,2.406Z" transform="translate(-294.87 -715.307)" fill="#fff"/>
    <path id="Path_75018" data-name="Path 75018" d="M714.848,1296.012l-1.54-.77a1.279,1.279,0,1,1,1.155-2.283h0l1.54.77h0a1.286,1.286,0,0,1-1.132,2.309Z" transform="translate(-280.071 -708.4)" fill="#fff"/>
    <path id="Path_75019" data-name="Path 75019" d="M691.38,1283.356l-1.49-.874a1.244,1.244,0,0,1,1.251-2.152h0l1.467.847h0a1.251,1.251,0,0,1-1.251,2.167Z" transform="translate(-265.718 -700.613)" fill="#fff"/>
    <path id="Path_75020" data-name="Path 75020" d="M668.885,1269.06l-1.42-.982a1.218,1.218,0,1,1,1.378-2.009h0l1.4.955h0a1.224,1.224,0,1,1-1.382,2.021Z" transform="translate(-251.979 -691.813)" fill="#fff"/>
    <path id="Path_75021" data-name="Path 75021" d="M647.641,1253.029l-1.332-1.1a1.189,1.189,0,0,1,1.513-1.832h0l1.309,1.07h0a1.194,1.194,0,0,1-1.513,1.848Z" transform="translate(-239.054 -681.972)" fill="#fff"/>
    <path id="Path_75022" data-name="Path 75022" d="M627.9,1234.935l-1.212-1.232a1.16,1.16,0,0,1,1.647-1.632h0l1.189,1.2h0a1.165,1.165,0,1,1-1.651,1.644Z" transform="translate(-227.015 -670.822)" fill="#fff"/>
    <path id="Path_75023" data-name="Path 75023" d="M610.271,1214.891l-1.066-1.366a1.132,1.132,0,1,1,1.782-1.4h0l1.047,1.324h0a1.155,1.155,0,0,1-1.786,1.409Z" transform="translate(-216.322 -658.499)" fill="#fff"/>
    <path id="Path_75024" data-name="Path 75024" d="M595.215,1192.825l-.885-1.49a1.1,1.1,0,1,1,1.89-1.132h0l.87,1.443v.019a1.111,1.111,0,0,1-1.9,1.155Z" transform="translate(-207.225 -644.952)" fill="#fff"/>
    <path id="Path_75025" data-name="Path 75025" d="M583.187,1169.021l-.677-1.6a1.074,1.074,0,0,1,1.975-.843v.019l.67,1.54v.023a1.078,1.078,0,1,1-1.979.855Z" transform="translate(-200.005 -630.367)" fill="#fff"/>
    <path id="Path_75026" data-name="Path 75026" d="M574.493,1143.789l-.454-1.671a1.047,1.047,0,0,1,2.017-.554v.023l.454,1.624h0a1.051,1.051,0,0,1-2.021.566Z" transform="translate(-194.825 -614.919)" fill="#fff"/>
    <path id="Path_75027" data-name="Path 75027" d="M569.245,1117.524l-.231-1.713a1.016,1.016,0,1,1,2.013-.281v.023l.235,1.67v.019a1.024,1.024,0,0,1-2.025.289Z" transform="translate(-191.744 -598.813)" fill="#fff"/>
    <path id="Path_75028" data-name="Path 75028" d="M567.337,1090.985l-.027-1.728a.989.989,0,0,1,1.975-.035h0l.035,1.69v.019a.993.993,0,1,1-1.982.038Z" transform="translate(-190.702 -582.608)" fill="#fff"/>
    <path id="Path_75029" data-name="Path 75029" d="M568.2,1064.208l.162-1.717a.966.966,0,1,1,1.925.169h0l-.146,1.686h0a.966.966,0,0,1-1.925-.166Z" transform="translate(-191.249 -566.187)" fill="#fff"/>
    <path id="Path_75030" data-name="Path 75030" d="M571.739,1037.815l.319-1.69a.917.917,0,0,1,1.805.327h0l-.3,1.671h0a.925.925,0,1,1-1.821-.323Z" transform="translate(-193.422 -550.048)" fill="#fff"/>
    <path id="Path_75031" data-name="Path 75031" d="M577.6,1011.939l.454-1.659a.866.866,0,0,1,1.671.447h0l-.427,1.644h0a.874.874,0,0,1-1.69-.443Z" transform="translate(-197.02 -534.249)" fill="#fff"/>
    <path id="Path_75032" data-name="Path 75032" d="M585.358,986.435l.566-1.624a.814.814,0,0,1,1.54.527h0l-.539,1.613h0a.824.824,0,1,1-1.563-.523Z" transform="translate(-201.779 -518.61)" fill="#fff"/>
    <path id="Path_75033" data-name="Path 75033" d="M594.756,961.7l.658-1.586a.77.77,0,0,1,1.413.577h0l-.635,1.578h0a.772.772,0,1,1-1.432-.577Z" transform="translate(-207.551 -503.519)" fill="#fff"/>
    <path id="Path_75034" data-name="Path 75034" d="M605.5,937.254l.735-1.54a.712.712,0,1,1,1.29.6h0l-.724,1.563h0a.721.721,0,1,1-1.309-.6Z" transform="translate(-214.147 -488.499)" fill="#fff"/>
    <path id="Path_75035" data-name="Path 75035" d="M617.42,913.609l.8-1.513a.662.662,0,0,1,1.155.616h0l-.77,1.513h0a.67.67,0,1,1-1.19-.616Z" transform="translate(-221.477 -474.061)" fill="#fff"/>
    <path id="Path_75036" data-name="Path 75036" d="M630.334,890.252l.858-1.482a.612.612,0,0,1,1.059.612l-.843,1.482a.62.62,0,0,1-1.082-.6Z" transform="translate(-229.419 -459.703)" fill="#fff"/>
    <path id="Path_75037" data-name="Path 75037" d="M644.047,867.531l.908-1.451a.562.562,0,0,1,.935.612L645,868.147a.567.567,0,1,1-.97-.589Z" transform="translate(-237.839 -445.793)" fill="#fff"/>
    <path id="Path_75038" data-name="Path 75038" d="M658.551,845.127l.955-1.42a.508.508,0,1,1,.847.562l-.939,1.428a.516.516,0,0,1-.866-.562Z" transform="translate(-246.769 -432.019)" fill="#fff"/>
    <path id="Path_75039" data-name="Path 75039" d="M673.677,823.272l.989-1.393a.458.458,0,0,1,.747.527l-.974,1.4a.467.467,0,0,1-.77-.527Z" transform="translate(-256.071 -418.628)" fill="#fff"/>
    <path id="Path_75040" data-name="Path 75040" d="M683,776.22l4.665,10.609,5.177-7.722Z" transform="translate(-261.86 -390.649)" fill="#7d97f4"/>
    <path id="Path_75041" data-name="Path 75041" d="M705.026,705.89l-17.587,37.722a2.933,2.933,0,0,1-4,1.37l-37.214-19.088a1.178,1.178,0,0,1,.2-2.171Z" transform="translate(-238.851 -347.391)" fill="#cfddfa"/>
    <path id="Path_75042" data-name="Path 75042" d="M683.01,732.962l45.017-27.072-39.02,30.17,1.17,2.995Z" transform="translate(-261.867 -347.391)" fill="#7d97f4"/>
    <path id="Path_75043" data-name="Path 75043" d="M700.024,786.079l-4.9,5.7,1.336-7.51Z" transform="translate(-269.315 -395.601)" fill="#7d97f4"/>
    <path id="Path_75044" data-name="Path 75044" d="M892.762,1145.2l-1.64-4.827h0a.739.739,0,1,1,1.4-.473h0l1.64,4.881a.731.731,0,1,1-1.386.466Z" transform="translate(-389.838 -614.004)" fill="#ffe6ef"/>
    <path id="Path_75045" data-name="Path 75045" d="M879.158,1107.479l-1.755-4.823a.77.77,0,1,1,1.432-.52h0l1.736,4.819a.77.77,0,1,1-1.417.516Z" transform="translate(-381.377 -590.735)" fill="#ffe6ef"/>
    <path id="Path_75046" data-name="Path 75046" d="M866.331,1069.7l-1.54-4.9a.785.785,0,0,1,1.5-.473h0l1.54,4.881h0a.777.777,0,0,1-1.482.466Z" transform="translate(-373.654 -567.518)" fill="#ffe6ef"/>
    <path id="Path_75047" data-name="Path 75047" d="M855.647,1031.074l-1.2-5a.808.808,0,1,1,1.57-.385h0l1.178,4.969v.023a.8.8,0,0,1-1.54.385Z" transform="translate(-367.297 -543.711)" fill="#ffe6ef"/>
    <path id="Path_75048" data-name="Path 75048" d="M848.024,991.741l-.77-5.092a.832.832,0,1,1,1.644-.254h0v.023l.77,5.046v.023a.826.826,0,0,1-1.632.25Z" transform="translate(-362.884 -519.489)" fill="#ffe6ef"/>
    <path id="Path_75049" data-name="Path 75049" d="M843.688,951.808l-.35-5.143a.858.858,0,1,1,1.709-.115h0v.031l.331,5.093v.023a.847.847,0,0,1-1.69.115Z" transform="translate(-360.476 -494.888)" fill="#ffe6ef"/>
    <path id="Path_75050" data-name="Path 75050" d="M842.67,911.93l.081-5.154a.881.881,0,0,1,1.759.031h0v.027l-.1,5.1v.027a.87.87,0,0,1-1.74-.031Z" transform="translate(-360.07 -470.453)" fill="#ffe6ef"/>
    <path id="Path_75051" data-name="Path 75051" d="M844.377,871.746l.489-5.139a.9.9,0,1,1,1.8.173h0v.023l-.512,5.093v.023a.9.9,0,0,1-1.782-.173Z" transform="translate(-361.115 -445.708)" fill="#ffe6ef"/>
    <path id="Path_75052" data-name="Path 75052" d="M849.181,832.147l.862-5.077a.925.925,0,1,1,1.825.312h0v.023L851,832.436v.023a.92.92,0,1,1-1.813-.312Z" transform="translate(-364.071 -421.453)" fill="#ffe6ef"/>
    <path id="Path_75053" data-name="Path 75053" d="M856.765,792.9l1.182-4.973a.951.951,0,1,1,1.848.439h0v.019l-1.189,4.935v.019a.943.943,0,0,1-1.832-.439Z" transform="translate(-368.734 -397.37)" fill="#ffe6ef"/>
    <path id="Path_75054" data-name="Path 75054" d="M866.98,754.506l1.578-4.912a.974.974,0,0,1,1.851.6h0v.023l-1.574,4.854v.027A.966.966,0,0,1,867,754.5Z" transform="translate(-375.014 -373.886)" fill="#ffe6ef"/>
    <path id="Path_75055" data-name="Path 75055" d="M880.216,716.856l1.963-4.765a1,1,0,0,1,1.84.77h0v.023L882.06,717.6v.023a.99.99,0,1,1-1.824-.77Z" transform="translate(-383.127 -350.828)" fill="#ffe6ef"/>
    <path id="Path_75056" data-name="Path 75056" d="M896.521,680.432l2.336-4.6a1.02,1.02,0,1,1,1.817.924h0v.027l-2.309,4.542v.023a1.012,1.012,0,0,1-1.8-.92Z" transform="translate(-393.162 -328.538)" fill="#ffe6ef"/>
    <path id="Path_75057" data-name="Path 75057" d="M915.553,645.579l2.694-4.4a1.04,1.04,0,0,1,1.774,1.085h0v.023l-2.671,4.346v.023a1.033,1.033,0,0,1-1.763-1.078Z" transform="translate(-404.826 -307.28)" fill="#ffe6ef"/>
    <path id="Path_75058" data-name="Path 75058" d="M937.223,612.175l3.01-4.184a1.066,1.066,0,1,1,1.728,1.243h0v.023l-3.018,4.134v.019a1.056,1.056,0,0,1-1.713-1.236Z" transform="translate(-418.11 -286.872)" fill="#ffe6ef"/>
    <path id="Path_75059" data-name="Path 75059" d="M961.474,580.715l3.31-3.949a1.071,1.071,0,0,1,1.644,1.374h0l-3.28,3.911v.019a1.07,1.07,0,0,1-1.64-1.374Z" transform="translate(-433.022 -267.733)" fill="#ffe6ef"/>
    <path id="Path_75060" data-name="Path 75060" d="M987.782,550.954l3.576-3.711a1.074,1.074,0,1,1,1.54,1.493h0l-3.549,3.672h0a1.074,1.074,0,1,1-1.54-1.49Z" transform="translate(-449.122 -249.585)" fill="#ffe6ef"/>
    <path id="Path_75061" data-name="Path 75061" d="M1016.336,523.229l3.822-3.464a1.079,1.079,0,0,1,1.447,1.6h0l-3.784,3.422h0a1.078,1.078,0,0,1-1.447-1.6Z" transform="translate(-466.694 -232.738)" fill="#ffe6ef"/>
    <path id="Path_75062" data-name="Path 75062" d="M1046.513,497.4l4.038-3.2a1.085,1.085,0,1,1,1.347,1.7h0l-4,3.168h0a1.085,1.085,0,1,1-1.347-1.7Z" transform="translate(-485.189 -217.027)" fill="#ffe6ef"/>
    <path id="Path_75063" data-name="Path 75063" d="M1078.453,473.63l4.234-2.941a1.09,1.09,0,1,1,1.243,1.79h-.019l-4.2,2.91h0a1.09,1.09,0,1,1-1.243-1.79Z" transform="translate(-504.819 -202.604)" fill="#ffe6ef"/>
    <path id="Path_75064" data-name="Path 75064" d="M1111.821,451.843l4.4-2.694a1.1,1.1,0,1,1,1.155,1.875h0l-4.365,2.648h0a1.1,1.1,0,0,1-1.155-1.871Z" transform="translate(-525.319 -189.374)" fill="#ffe6ef"/>
    <path id="Path_75065" data-name="Path 75065" d="M1146.395,432.212l4.554-2.406a1.1,1.1,0,0,1,1.028,1.948h0l-4.55,2.39h0a1.1,1.1,0,0,1-1.024-1.944Z" transform="translate(-546.528 -177.499)" fill="#ffe6ef"/>
    <path id="Path_75066" data-name="Path 75066" d="M1182.094,414.653l4.688-2.132a1.106,1.106,0,0,1,.916,2.013h-.023l-4.65,2.109h0a1.1,1.1,0,1,1-.912-2.009Z" transform="translate(-568.424 -166.885)" fill="#ffe6ef"/>
    <path id="Path_75067" data-name="Path 75067" d="M1218.9,399.28l4.808-1.852a1.112,1.112,0,0,1,.8,2.075h0l-4.769,1.832h-.019a1.109,1.109,0,1,1-.8-2.071Z" transform="translate(-591.058 -157.624)" fill="#ffe6ef"/>
    <path id="Path_75068" data-name="Path 75068" d="M1256.479,386.117l4.908-1.559a1.116,1.116,0,0,1,.677,2.125h-.023l-4.869,1.54h0a1.116,1.116,0,1,1-.674-2.125Z" transform="translate(-614.09 -149.723)" fill="#ffe6ef"/>
    <path id="Path_75069" data-name="Path 75069" d="M1294.916,375.218l5-1.263a1.121,1.121,0,0,1,.547,2.175h-.023l-4.954,1.243h0a1.12,1.12,0,1,1-.547-2.171Z" transform="translate(-637.708 -143.204)" fill="#ffe6ef"/>
    <path id="Path_75070" data-name="Path 75070" d="M1333.919,366.742l5.066-.943a1.126,1.126,0,0,1,.412,2.213h-.023l-5,.932h-.027a1.124,1.124,0,1,1-.408-2.209Z" transform="translate(-661.649 -138.197)" fill="#ffe6ef"/>
    <path id="Path_75071" data-name="Path 75071" d="M1373.544,360.765l5.12-.612a1.132,1.132,0,1,1,.269,2.244h0l-5.069.6h-.023a1.132,1.132,0,0,1-.269-2.244Z" transform="translate(-686.039 -134.725)" fill="#ffe6ef"/>
    <path id="Path_75072" data-name="Path 75072" d="M1413.331,357.488l5.15-.258a1.155,1.155,0,0,1,.112,2.271h-.027l-5.1.254h-.027a1.136,1.136,0,0,1-.112-2.267Z" transform="translate(-710.429 -132.938)" fill="#ffe6ef"/>
    <path id="Path_75073" data-name="Path 75073" d="M1453.609,356.85l5.158.123a1.155,1.155,0,0,1-.054,2.283h-.031l-5.1-.123h-.027a1.155,1.155,0,0,1,.054-2.279Z" transform="translate(-735.233 -132.704)" fill="#ffe6ef"/>
    <path id="Path_75074" data-name="Path 75074" d="M1493.111,358.8c1.713.166,3.426.331,5.131.531a1.155,1.155,0,0,1-.262,2.279h0c-1.694-.2-3.384-.358-5.073-.523h0a1.155,1.155,0,1,1,.219-2.279Z" transform="translate(-759.281 -133.892)" fill="#ffe6ef"/>
    <path id="Path_75075" data-name="Path 75075" d="M1533.225,363.87l5.081.881a1.155,1.155,0,1,1-.385,2.267h-.027l-5.027-.874h-.027a1.155,1.155,0,0,1,.385-2.267Z" transform="translate(-784.051 -137.022)" fill="#ffe6ef"/>
    <path id="Path_75076" data-name="Path 75076" d="M1572.356,371.6l5,1.236a1.155,1.155,0,0,1-.551,2.244h-.027l-4.95-1.224h-.027a1.156,1.156,0,1,1,.554-2.244Z" transform="translate(-808.005 -141.765)" fill="#ffe6ef"/>
    <path id="Path_75077" data-name="Path 75077" d="M1610.985,382.134l4.9,1.594a1.161,1.161,0,1,1-.716,2.209h-.027l-4.85-1.582h-.027a1.159,1.159,0,1,1,.716-2.206Z" transform="translate(-831.71 -148.23)" fill="#ffe6ef"/>
    <path id="Path_75078" data-name="Path 75078" d="M1648.755,395.454l4.773,1.948a1.166,1.166,0,1,1-.881,2.159h-.027l-4.719-1.925h-.027a1.164,1.164,0,0,1,.882-2.156Z" transform="translate(-854.888 -156.411)" fill="#ffe6ef"/>
    <path id="Path_75079" data-name="Path 75079" d="M1685.443,411.462l4.619,2.286a1.171,1.171,0,0,1-1.039,2.1H1689l-4.573-2.263h-.027a1.171,1.171,0,1,1,1.039-2.1Z" transform="translate(-877.399 -166.234)" fill="#ffe6ef"/>
    <path id="Path_75080" data-name="Path 75080" d="M1720.915,430.056l4.454,2.6a1.178,1.178,0,0,1-1.186,2.032h-.023l-4.407-2.575h-.023a1.175,1.175,0,1,1,1.186-2.029Z" transform="translate(-899.172 -177.649)" fill="#ffe6ef"/>
    <path id="Path_75081" data-name="Path 75081" d="M1755.085,451.006l4.273,2.883a1.182,1.182,0,1,1-1.324,1.959h-.019l-4.234-2.856h0a1.18,1.18,0,0,1,1.32-1.955Z" transform="translate(-920.154 -190.512)" fill="#ffe6ef"/>
    <path id="Path_75082" data-name="Path 75082" d="M1787.864,474.109l4.092,3.133a1.189,1.189,0,0,1-1.443,1.886h0l-4.053-3.106h0a1.186,1.186,0,0,1,1.44-1.882Z" transform="translate(-940.308 -204.712)" fill="#ffe6ef"/>
    <path id="Path_75083" data-name="Path 75083" d="M1819.22,499.046l3.915,3.345a1.193,1.193,0,0,1-1.54,1.813h0l-3.88-3.326h0a1.189,1.189,0,0,1,1.54-1.809Z" transform="translate(-959.57 -220.029)" fill="#ffe6ef"/>
    <path id="Path_75084" data-name="Path 75084" d="M1849.036,525.444l3.749,3.522a1.2,1.2,0,0,1-1.64,1.744h0l-3.722-3.5h0a1.2,1.2,0,1,1,1.64-1.74Z" transform="translate(-977.812 -236.189)" fill="#ffe6ef"/>
    <path id="Path_75085" data-name="Path 75085" d="M1877.821,553.252l3.6,3.672a1.2,1.2,0,0,1-1.717,1.682h0l-3.58-3.653h0a1.2,1.2,0,1,1,1.713-1.682Z" transform="translate(-995.499 -253.281)" fill="#ffe6ef"/>
    <path id="Path_75086" data-name="Path 75086" d="M1905.544,582.233l3.464,3.788a1.209,1.209,0,0,1-1.778,1.632h0l-3.464-3.772h0a1.2,1.2,0,0,1,1.775-1.628Z" transform="translate(-1012.548 -271.122)" fill="#ffe6ef"/>
    <path id="Path_75087" data-name="Path 75087" d="M1932.3,611.914l3.376,3.872a1.21,1.21,0,0,1-1.824,1.59h0l-3.36-3.849h0a1.21,1.21,0,1,1,1.824-1.59Z" transform="translate(-1028.984 -289.347)" fill="#ffe6ef"/>
    <path id="Path_75088" data-name="Path 75088" d="M1958.385,642.229l3.3,3.93a1.217,1.217,0,0,1-1.863,1.567h0l-3.28-3.915h0a1.214,1.214,0,0,1,1.859-1.563Z" transform="translate(-1045.015 -307.98)" fill="#ffe6ef"/>
    <path id="Path_75089" data-name="Path 75089" d="M1983.859,672.764l3.264,3.957a1.22,1.22,0,1,1-1.882,1.54h0l-3.26-3.957a1.22,1.22,0,1,1,1.882-1.54Z" transform="translate(-1060.624 -326.69)" fill="#ffe6ef"/>
    <path id="Path_75090" data-name="Path 75090" d="M2009.251,703.636l3.264,3.953a1.228,1.228,0,1,1-1.89,1.567h0l-3.264-3.961a1.224,1.224,0,1,1,1.89-1.54Z" transform="translate(-1076.231 -345.683)" fill="#ffe6ef"/>
    <path id="Path_75091" data-name="Path 75091" d="M2034.8,734.42l3.307,3.911h0a1.233,1.233,0,0,1-1.882,1.594h0L2032.914,736a1.232,1.232,0,1,1,1.878-1.59Z" transform="translate(-1091.96 -364.639)" fill="#ffe6ef"/>
    <path id="Path_75092" data-name="Path 75092" d="M2060.821,764.72l3.4,3.818h0a1.239,1.239,0,1,1-1.848,1.647h0l-3.418-3.849a1.236,1.236,0,1,1,1.844-1.644Z" transform="translate(-1107.974 -383.287)" fill="#ffe6ef"/>
    <path id="Path_75093" data-name="Path 75093" d="M2087.8,794.211l3.564,3.657h0a1.243,1.243,0,1,1-1.779,1.736h0l-3.595-3.691a1.241,1.241,0,1,1,1.778-1.732Z" transform="translate(-1124.591 -401.466)" fill="#ffe6ef"/>
    <path id="Path_75094" data-name="Path 75094" d="M2116.258,822.19l3.8,3.387.031.023a1.247,1.247,0,1,1-1.659,1.863h0l-3.849-3.437a1.245,1.245,0,1,1,1.655-1.859Z" transform="translate(-1142.14 -418.716)" fill="#ffe6ef"/>
    <path id="Path_75095" data-name="Path 75095" d="M2146.818,847.7l4.126,2.952.046.031a1.252,1.252,0,1,1-1.459,2.036h0l-4.215-3.018a1.251,1.251,0,1,1,1.459-2.032Z" transform="translate(-1160.979 -434.449)" fill="#ffe6ef"/>
    <path id="Path_75096" data-name="Path 75096" d="M2180.238,869.287q2.225,1.2,4.511,2.275a1.259,1.259,0,0,1-1.062,2.279h0q-2.356-1.1-4.646-2.348a1.255,1.255,0,0,1,1.2-2.206Z" transform="translate(-1181.639 -447.799)" fill="#ffe6ef"/>
    <path id="Path_75097" data-name="Path 75097" d="M2216.734,884.8q2.41.739,4.861,1.3a1.263,1.263,0,0,1-.558,2.464h0q-2.552-.581-5.046-1.355a1.259,1.259,0,0,1,.743-2.406Z" transform="translate(-1204.224 -457.4)" fill="#ffe6ef"/>
    <path id="Path_75098" data-name="Path 75098" d="M2255.767,892q2.51.169,5.027.135a1.28,1.28,0,1,1,.054,2.56h0q-2.618.027-5.223-.146a1.266,1.266,0,0,1,.165-2.525Z" transform="translate(-1228.453 -461.863)" fill="#ffe6ef"/>
    <path id="Path_75099" data-name="Path 75099" d="M2294.422,883.769a30.392,30.392,0,0,0,4.419-2.152,1.272,1.272,0,1,1,1.293,2.19h0a32.992,32.992,0,0,1-4.792,2.333,1.272,1.272,0,0,1-.92-2.371Z" transform="translate(-1252.512 -455.368)" fill="#ffe6ef"/>
    <path id="Path_75100" data-name="Path 75100" d="M2326.655,858.952a41.394,41.394,0,0,0,3.207-3.8,1.281,1.281,0,1,1,2.048,1.54h0a43.605,43.605,0,0,1-3.411,4.034,1.276,1.276,0,0,1-1.844-1.763Z" transform="translate(-1272.62 -438.885)" fill="#ffe6ef"/>
    <path id="Path_75101" data-name="Path 75101" d="M2348.415,824.89a46.024,46.024,0,0,0,1.774-4.658,1.282,1.282,0,0,1,2.441.77,47.878,47.878,0,0,1-1.875,4.923,1.282,1.282,0,1,1-2.34-1.043Z" transform="translate(-1286.142 -417.213)" fill="#ffe6ef"/>
    <path id="Path_75102" data-name="Path 75102" d="M2358.17,786.309c.1-1.655.1-3.33.042-5a1.228,1.228,0,0,1,2.452-.092c.069,1.736.081,3.464,0,5.243a1.243,1.243,0,1,1-2.483-.131Z" transform="translate(-1292.221 -393.024)" fill="#ffe6ef"/>
    <path id="Path_75103" data-name="Path 75103" d="M2354.614,746.777l-.77-5.027v-.039a1.171,1.171,0,0,1,2.31-.385l.839,5.1a1.189,1.189,0,0,1-2.344.385h0Z" transform="translate(-1289.551 -368.585)" fill="#ffe6ef"/>
    <path id="Path_75104" data-name="Path 75104" d="M2346.672,708.071l-1.182-4.965v-.027a1.055,1.055,0,0,1,2.044-.508l1.3,5a1.105,1.105,0,1,1-2.14.554h0Z" transform="translate(-1284.41 -344.891)" fill="#ffe6ef"/>
    <path id="Path_75105" data-name="Path 75105" d="M2335.91,669.991l-1.54-4.862V665.1a.893.893,0,0,1,1.694-.558l1.671,4.873a.947.947,0,1,1-1.79.616h0Z" transform="translate(-1277.564 -321.611)" fill="#ffe6ef"/>
    <path id="Path_75106" data-name="Path 75106" d="M2322,633.247c-.639-1.574-1.312-3.137-2.025-4.677a.651.651,0,0,1,1.155-.566c.77,1.54,1.509,3.079,2.209,4.665a.739.739,0,0,1-1.347.6Z" transform="translate(-1268.708 -299.313)" fill="#ffe6ef"/>
    <path id="Path_75107" data-name="Path 75107" d="M2285.571,549.4l-8.591,12.868-5.02-11.351Z" transform="translate(-1239.195 -251.137)" fill="#7d97f4"/>
    <path id="Path_75108" data-name="Path 75108" d="M2169.82,429.83l14.392,53.685a3.918,3.918,0,0,0,4.938,2.729l53.358-16.482a1.57,1.57,0,0,0,.246-2.9Z" transform="translate(-1176.371 -177.592)" fill="#91b3fa"/>
    <path id="Path_75109" data-name="Path 75109" d="M2222.743,475.855,2169.82,429.83l44.32,48.712-2.233,3.668Z" transform="translate(-1176.371 -177.592)" fill="#7d97f4"/>
    <path id="Path_75110" data-name="Path 75110" d="M2271.68,557.935l5.127,8.626-.015-10.181Z" transform="translate(-1239.023 -255.43)" fill="#7d97f4"/>
    <path id="Path_75111" data-name="Path 75111" d="M1619.615,1125.5a1.031,1.031,0,0,1,.912.812.554.554,0,0,1-.654.662,1.035,1.035,0,0,1-.878-.8.554.554,0,0,1,.62-.677Z" transform="translate(-837.562 -605.48)" fill="#fff"/>
    <path id="Path_75112" data-name="Path 75112" d="M1622.951,1125.992l-3.464-.562a.708.708,0,0,1-.558-.523.323.323,0,0,1,.385-.385h0l3.464.477c.2.027.346-.092.327-.266l-.481-3.549a.458.458,0,0,0-.431-.354l-3.53-.1a.631.631,0,0,1-.577-.5.385.385,0,0,1,.385-.493h3.553a1.878,1.878,0,0,1,1.852,1.5l.45,3.661C1624.463,1125.642,1623.817,1126.123,1622.951,1125.992Z" transform="translate(-837.002 -601.934)" fill="#fff"/>
    <path id="Path_75113" data-name="Path 75113" d="M1470.9,426.3c1.12,0,1.759.8,1.447,1.748a2.694,2.694,0,0,1-2.456,1.667c-1.074,0-1.751-.72-1.505-1.655A2.7,2.7,0,0,1,1470.9,426.3Z" transform="translate(-744.905 -175.421)" fill="url(#linear-gradient-48)"/>
    <path id="Path_75114" data-name="Path 75114" d="M1474,424.644l-7.375.192c-.643.019-1.062-.385-.924-.889a1.566,1.566,0,0,1,1.463-.974h0l7.594-.146a1.155,1.155,0,0,0,.962-.608l3.114-7.225a.512.512,0,0,0-.474-.77l-8.591-.131a1.016,1.016,0,0,1-1.028-1.336,1.924,1.924,0,0,1,1.8-1.328l8.9.227c1.925.058,2.721,1.6,1.9,3.372l-3.356,7.156A4.845,4.845,0,0,1,1474,424.644Z" transform="translate(-743.265 -166.275)" fill="url(#linear-gradient-49)"/>
  </g>
</svg>
