<svg xmlns="http://www.w3.org/2000/svg" width="48" height="48" viewBox="0 0 48 48">
  <g id="Group_1801" data-name="Group 1801" transform="translate(1055.258 -19045.742)">
    <g id="Group_934" data-name="Group 934" transform="translate(-1055 19046)">
      <g id="Ellipse_82" data-name="Ellipse 82" transform="translate(-0.258 -0.258)" fill="#fff" stroke="#4a79be" stroke-width="1">
        <circle cx="24" cy="24" r="24" stroke="none"/>
        <circle cx="24" cy="24" r="23.5" fill="none"/>
      </g>
      <g id="Group_628" data-name="Group 628" transform="translate(9.068 8.872)">
        <path id="Path_35997" data-name="Path 35997" d="M168.514,1637.288a7.184,7.184,0,1,1,7.184-7.184A7.184,7.184,0,0,1,168.514,1637.288Zm0-12.895a5.706,5.706,0,1,0,5.706,5.706A5.706,5.706,0,0,0,168.514,1624.393Z" transform="translate(-153.687 -1622.92)" fill="#4a79be"/>
        <path id="Path_35998" data-name="Path 35998" d="M137.173,1740.259h-19.91a4.876,4.876,0,0,1-3.606-8.154c3.1-3.425,8.169-5.466,13.56-5.466s10.463,2.046,13.56,5.466a4.874,4.874,0,0,1-3.6,8.154Zm-9.956-12.141c-4.979,0-9.637,1.863-12.459,4.982a3.392,3.392,0,0,0,2.5,5.677h19.916a3.392,3.392,0,0,0,2.5-5.677C136.856,1729.976,132.2,1728.119,127.217,1728.119Z" transform="translate(-112.39 -1710.442)" fill="#4a79be"/>
      </g>
    </g>
  </g>
</svg>
