<svg xmlns="http://www.w3.org/2000/svg" width="682" height="390.145" viewBox="0 0 682 390.145">
  <g id="OBJECTS" transform="translate(-92.726 -204.633)">
    <path id="Path_74537" data-name="Path 74537" d="M1420.855,362.1l-.785-.935a162.8,162.8,0,0,1,53.457-27.5c29.074-8.5,72.609-10.9,114.883,25.878l-.8.923c-41.846-36.4-84.925-34.036-113.7-25.641A161.672,161.672,0,0,0,1420.855,362.1Z" transform="translate(-1006.685 -93.863)" fill="#dadada"/>
    <path id="Path_74538" data-name="Path 74538" d="M794.253,610.768c-4.542-48.388-23.3-85.116-71.891-112.054-14.333-7.943-32.275-11.837-40.868-25.779-8.53-13.852-5.363-31.543-7.052-47.724-4.348-41.515-44.011-73.619-85.519-78.011s-82.8,14.405-114.332,41.757c-23.66,20.534-44.383,46.724-74.191,56.336-49.154,15.848-102.64-19.508-153.084-8.421-27.144,5.967-49.918,24.972-66.548,47.238-27.827,37.264-34.761,84.379-26.252,130.1,4.655,25.011,16.043,50.357,32.372,69.816L771.774,682.8C788.873,665.715,796.2,631.515,794.253,610.768Z" transform="translate(-44.276 -107.644)" fill="#f6f5f5"/>
    <circle id="Ellipse_274" data-name="Ellipse 274" cx="45.192" cy="45.192" r="45.192" transform="translate(285.725 226.241)" fill="#f6f5f5"/>
    <circle id="Ellipse_275" data-name="Ellipse 275" cx="18.73" cy="18.73" r="18.73" transform="translate(379.757 231.12) rotate(-45)" fill="#f6f5f5"/>
    <circle id="Ellipse_276" data-name="Ellipse 276" cx="18.73" cy="18.73" r="18.73" transform="translate(666.401 361.819) rotate(-45)" fill="#f6f5f5"/>
    <path id="Path_74539" data-name="Path 74539" d="M2478.587,1125.924l-1.077-.573c21.969-41.411,24.3-85.927,6.383-122.133-18.843-38.063-57.276-63.673-108.242-72.111l.2-1.208c51.364,8.5,90.121,34.348,109.136,72.773C2503.078,1039.239,2500.744,1084.16,2478.587,1125.924Z" transform="translate(-1731.417 -550.058)" fill="#dadada"/>
    <path id="Path_74540" data-name="Path 74540" d="M146.027,951.214c-26.463-28.506-43.926-62.811-50.49-99.258-6.119-33.927-2.174-67.591,11.134-94.791,20.539-42.02,60.3-63.673,109.085-59.414l-.106,1.208c-48.26-4.206-87.587,17.2-107.88,58.742-13.185,26.967-17.1,60.363-11.031,94.037,6.523,36.205,23.887,70.316,50.193,98.646Z" transform="translate(0 -373.591)" fill="#dadada"/>
    <rect id="Rectangle_1911" data-name="Rectangle 1911" width="157.164" height="88.469" transform="translate(161.947 487.84)" fill="#ff9064"/>
    <rect id="Rectangle_1912" data-name="Rectangle 1912" width="56.312" height="88.469" transform="translate(161.947 487.84)" fill="#b25834" opacity="0.5"/>
    <rect id="Rectangle_1913" data-name="Rectangle 1913" width="21.551" height="14.659" transform="translate(248.063 509.391) rotate(-90)" fill="#fff" opacity="0.3"/>
    <rect id="Rectangle_1914" data-name="Rectangle 1914" width="259.613" height="184.851" transform="translate(288.068 391.457)" fill="#102048"/>
    <path id="Path_74541" data-name="Path 74541" d="M1929.838,519.329h-48.029V475.492a16.014,16.014,0,0,1,32.029-.147v.147l-.012,27.825c0,.135,0,.28.012.416v.843l.048-.024A16,16,0,0,0,1929.838,519.329Z" transform="translate(-1356.878 -193.224)" fill="#86a7ff"/>
    <path id="Path_74542" data-name="Path 74542" d="M2046.544,601.12v9.687a16,16,0,0,1-31.954,1.222Z" transform="translate(-1457.582 -300.704)" fill="#d3dfff"/>
    <path id="Path_74543" data-name="Path 74543" d="M1225.9,459.7c-.343,0-.672.012-1,.036a5.332,5.332,0,0,0-.633.048c-.205.024-.454.051-.686.087a2.3,2.3,0,0,0-.4.06c-.171.024-.343.06-.5.1-.241.048-.483.1-.725.157-.343.087-.684.184-1.027.307-.172.048-.341.109-.5.169s-.331.123-.483.184a6.646,6.646,0,0,0-.672.295,5.889,5.889,0,0,0-.587.28c-.048.024-.111.048-.172.085-.172.087-.343.184-.512.283a14.243,14.243,0,0,0-1.918,1.283c-.172.133-.355.28-.515.413s-.365.319-.548.483-.355.341-.524.512a16.169,16.169,0,0,0-1.346,1.551c-.184.242-.353.483-.524.725a17.909,17.909,0,0,0-1.406,2.575c-.1.22-.181.454-.28.686a18.382,18.382,0,0,0-.647,2.148c-.048.258-.1.5-.147.747-.085.5-.157,1.015-.193,1.527v224.63H995.86v-214.4a24.965,24.965,0,0,1,24.97-24.967Z" transform="translate(-684.955 -193.448)" fill="#d3dfff"/>
    <rect id="Rectangle_1915" data-name="Rectangle 1915" width="162.457" height="8.549" transform="translate(336.212 289.141)" fill="#adc3ff"/>
    <rect id="Rectangle_1916" data-name="Rectangle 1916" width="149.868" height="8.549" transform="translate(336.212 314.183)" fill="#adc3ff"/>
    <rect id="Rectangle_1917" data-name="Rectangle 1917" width="141.969" height="8.549" transform="translate(336.212 339.223)" fill="#adc3ff"/>
    <rect id="Rectangle_1918" data-name="Rectangle 1918" width="162.457" height="8.549" transform="translate(336.212 364.263)" fill="#adc3ff"/>
    <rect id="Rectangle_1919" data-name="Rectangle 1919" width="88.075" height="8.549" transform="translate(398.991 389.609)" fill="#adc3ff"/>
    <path id="Path_74544" data-name="Path 74544" d="M1423.936,1085.28a2.917,2.917,0,0,1-2.481-1.177,5.481,5.481,0,0,1-.667-3.416l.831-22.1,1.208.046-.829,22.095a4.4,4.4,0,0,0,.432,2.657c1.039,1.433,3.537.193,4.027-.07,2.459-1.319,4.225-3.8,5.933-6.2,1.9-2.657,3.865-5.428,6.832-6.725,1.764-.771,3.058.36,4.107,1.263a5.3,5.3,0,0,0,1.742,1.172,8.753,8.753,0,0,0,4.735-.372,11.036,11.036,0,0,1,4.484-.534,12.26,12.26,0,0,1,3.643,1.317c1.621.8,3.027,1.5,5.054,1a28.6,28.6,0,0,0,7.909-3.8c.725-.447,1.45-.894,2.191-1.319,2.824-1.64,7.068-3.711,11.294-2.742l-.273,1.191c-3.81-.872-7.764,1.07-10.41,2.607-.725.423-1.449.862-2.174,1.3a29.537,29.537,0,0,1-8.262,3.952c-2.462.592-4.2-.263-5.885-1.094a11.225,11.225,0,0,0-3.283-1.208,10.058,10.058,0,0,0-3.991.507,9.772,9.772,0,0,1-5.392.362,6.108,6.108,0,0,1-2.194-1.42c-1.089-.945-1.807-1.5-2.812-1.068-2.657,1.162-4.44,3.665-6.324,6.317-1.79,2.512-3.641,5.114-6.351,6.568A6.841,6.841,0,0,1,1423.936,1085.28Z" transform="translate(-1007.218 -647.659)" fill="#102048"/>
    <path id="Path_74545" data-name="Path 74545" d="M1209.95,980.915v106.428H995.86V971.65l66.876,55.648a16.917,16.917,0,0,0,13.287,3.578,25.475,25.475,0,0,1,4.213-.242l45.586,1.283a25.788,25.788,0,0,1,4.667.575,16.771,16.771,0,0,0,13.569-2.8Z" transform="translate(-684.955 -581.722)" fill="#86a7ff" opacity="0.3"/>
    <path id="Path_74546" data-name="Path 74546" d="M998.968,1054.606l-1.783,1.979-80.569,89.338-15.256,16.906V977.97Z" transform="translate(-613.285 -586.515)" fill="#7d69ed"/>
    <path id="Path_74547" data-name="Path 74547" d="M1669.535,977.98l-97.615,76.634,97.615,108.218Z" transform="translate(-1121.851 -586.523)" fill="#7d69ed"/>
    <path id="Path_74548" data-name="Path 74548" d="M997.18,1293.318l-80.564,89.338-15.256,3.36v-32.855c40.271-28.864,85.454-62.327,95.776-63.052Z" transform="translate(-613.285 -823.249)" fill="#5b4dad"/>
    <path id="Path_74549" data-name="Path 74549" d="M1579.32,1293.318l80.569,89.338,15.258,3.36v-32.855c-40.274-28.864-85.456-62.327-95.776-63.052Z" transform="translate(-1127.464 -823.249)" fill="#5b4dad"/>
    <path id="Path_74550" data-name="Path 74550" d="M1160.948,1391.26H901.33l.048-24.317,89.459-81.156a25.519,25.519,0,0,1,17.152-6.617h45.605a25.526,25.526,0,0,1,16.937,6.431l90.657,80.5Z" transform="translate(-613.262 -814.952)" fill="#7d69ed"/>
    <circle id="Ellipse_277" data-name="Ellipse 277" cx="44.583" cy="44.583" r="44.583" transform="translate(467.381 531.725) rotate(-45)" fill="#5b4dad" opacity="0.4"/>
    <circle id="Ellipse_278" data-name="Ellipse 278" cx="44.583" cy="44.583" r="44.583" transform="translate(480.816 531.726) rotate(-45)" fill="#41d94d"/>
    <path id="Path_74551" data-name="Path 74551" d="M1886.169,1506.923a7.535,7.535,0,0,1-5.595-2.488l-15.773-17.416a3.665,3.665,0,0,1,5.433-4.921l15.772,17.418a.215.215,0,0,0,.213.073.206.206,0,0,0,.177-.138l16.978-38.653a3.665,3.665,0,0,1,6.711,2.947l-16.978,38.653A7.6,7.6,0,0,1,1886.169,1506.923Z" transform="translate(-1343.26 -951.04)" fill="#fff"/>
    <path id="Path_74552" data-name="Path 74552" d="M679.27,1254.515l1.425,24.634H718.56l-17.1-14.048-1.017-10.586L693.724,1248Z" transform="translate(-444.847 -791.312)" fill="#ec7e81"/>
    <path id="Path_74553" data-name="Path 74553" d="M472.167,1214.762l-6.107,21.989,31.149,13.639-9.161-20.766,2.237-9.364-7.735-10.18Z" transform="translate(-283.144 -762.552)" fill="#ce6e70"/>
    <path id="Path_74554" data-name="Path 74554" d="M503.087,777.77s-3.665,15.275-2.43,48.854c0,0-10.789,37.662-9.569,60.259l18.118,5.5c9.494-21.092,17.3-41.385,21.452-59.941a32.917,32.917,0,0,0-.114-20.145l-8.728-26.586Z" transform="translate(-302.053 -434.679)" fill="#1f3c88"/>
    <path id="Path_74555" data-name="Path 74555" d="M574.156,718.7l-2.87,70.56h-21.17a315.364,315.364,0,0,1-8.293-55.737c-.6-11.079-.256-17.551-.256-17.551-13.608-16.063-21.694-27.668-26.4-36.254-6.986-12.741-6.559-18.872-5.776-23.192,1.051-5.754,4.788-13.2,7.317-17.785,1.416-2.541,2.454-4.2,2.454-4.2l35.423,11.41-4.225,15.275-.073.242a8.953,8.953,0,0,0,.867,6.827l18.58,32.357A33.541,33.541,0,0,1,574.156,718.7Z" transform="translate(-315.691 -326.051)" fill="#3a6bea"/>
    <path id="Path_74556" data-name="Path 74556" d="M660.341,799.842h-.029a.457.457,0,0,1-.428-.483c.044-.708,4.411-70.86-.773-82.026a81.015,81.015,0,0,0-4.245-7.361c-7.489-12.13-20.005-32.427-17.377-61.682a.459.459,0,0,1,.913.082c-2.6,28.951,9.823,49.086,17.244,61.119a81.677,81.677,0,0,1,4.3,7.458c5.281,11.374,1.039,79.571.855,82.468A.457.457,0,0,1,660.341,799.842Z" transform="translate(-412.89 -336.179)" fill="#1f3c88"/>
    <path id="Path_74557" data-name="Path 74557" d="M578.877,645.922l-4.225,15.287A107.081,107.081,0,0,1,541,638.723c1.416-2.541,2.454-4.2,2.454-4.2Z" transform="translate(-339.98 -326.036)" fill="#1f3c88" opacity="0.6"/>
    <path id="Path_74558" data-name="Path 74558" d="M721.44,1303l-.36-6.119,11.673-.212a.435.435,0,0,1,.466.449.456.456,0,0,1-.449.466l-10.719.2.242,4.264,10.847-.483a.459.459,0,1,1,.041.916Z" transform="translate(-476.557 -828.221)" fill="#fff"/>
    <path id="Path_74559" data-name="Path 74559" d="M525.087,1264.379a.462.462,0,0,1-.138-.022l-10.05-3.208,2.508-5.849,8.854,3.2a.459.459,0,1,1-.312.862l-8.042-2.9-1.776,4.119,9.088,2.9a.457.457,0,0,1-.14.894Z" transform="translate(-320.185 -796.848)" fill="#fff"/>
    <path id="Path_74560" data-name="Path 74560" d="M683.812,377.944l-.66,2.466-2.638,9.98-1.785,6.694-15.879-5.7,7.658-15.674,3.74-5.4Z" transform="translate(-432.394 -125.653)" fill="#f9b384"/>
    <path id="Path_74561" data-name="Path 74561" d="M726.686,407.592l-2.631,9.98a14.9,14.9,0,0,1-3.725-11.422Z" transform="translate(-475.927 -152.835)" fill="#102048"/>
    <path id="Path_74562" data-name="Path 74562" d="M724.794,326.5s-1.017,22.6-12.417,20.662-11.2-21.375-11.2-21.375L716.041,321Z" transform="translate(-461.463 -88.255)" fill="#f9b384"/>
    <path id="Path_74563" data-name="Path 74563" d="M692.974,306.605s6.539-6.742,15.828-3.409c0,0,4.107,1.73,5.7-1.628,0,0-13.132-17.408-23.433-9.008,0,0-18.474,4.044-7.489,22.443Z" transform="translate(-445.471 -64.949)" fill="#102048"/>
    <ellipse id="Ellipse_279" data-name="Ellipse 279" cx="3.508" cy="4.02" rx="3.508" ry="4.02" transform="translate(243.605 238.748) rotate(-9.06)" fill="#f9b384"/>
    <circle id="Ellipse_280" data-name="Ellipse 280" cx="2.037" cy="2.037" r="2.037" transform="matrix(0.16, -0.987, 0.987, 0.16, 259.357, 251.327)" fill="#f9b384"/>
    <path id="Path_74564" data-name="Path 74564" d="M970.351,505.022s2.1,2.884-2.174,5.766c0,0,3.409,2.334-8.342,6.18-1.307.428-2.8.867-4.508,1.331L950.6,501.176s20.974-7.086,21.5-4.815-3.749,5.339-3.749,5.339S975.862,499.854,970.351,505.022Z" transform="translate(-650.629 -220.913)" fill="#f9b384"/>
    <path id="Path_74565" data-name="Path 74565" d="M616.636,454.933,591.8,458.117s-35.729-25.448-43.057-23.006-32.065,42.141-32.065,42.141-6.728,2.138-6.414,4.887,43.67,25.243,49.471,19.544c3.65-3.585,7.839-32.166,7.839-32.166l15.8,6.573a24.433,24.433,0,0,0,14.809,1.261l23.17-5.286Z" transform="translate(-316.663 -174.675)" fill="#fbc343"/>
    <g id="Group_1235" data-name="Group 1235" transform="translate(204.487 268.716)" opacity="0.8">
      <path id="Path_74566" data-name="Path 74566" d="M930.087,535.025c-.855-3.334-1.691-6.588-2.445-9.716-.21-.872-.4-1.761-.6-2.657-.164-.756-.333-1.515-.512-2.271l-.913.118c.184.78.36,1.565.529,2.346.2.9.391,1.8.6,2.677.759,3.141,1.592,6.39,2.445,9.728q.391,1.529.783,3.066l.894-.2Q930.478,536.571,930.087,535.025Z" transform="translate(-836.171 -508.185)" fill="#fff"/>
      <path id="Path_74567" data-name="Path 74567" d="M664.429,471.922l-1.131.242c-6.883,1.433-14.253,2.592-21.445,1.375a27.718,27.718,0,0,1-9.871-3.638c-.193.242-.386.483-.582.725a28.654,28.654,0,0,0,10.291,3.819c7.349,1.242,14.814.07,21.783-1.382.691-.145,1.382-.3,2.073-.447Z" transform="translate(-613.028 -469.9)" fill="#fff"/>
      <path id="Path_74568" data-name="Path 74568" d="M597.237,597.762a35.9,35.9,0,0,1-6.281.155c-6.1-.568-11.511-4.363-15.05-7.168-1.256-1-2.483-2.027-3.713-3.061a65.386,65.386,0,0,0-10-7.371,25.561,25.561,0,0,0-6.325-2.508c-.181.278-.35.536-.522.8a24.453,24.453,0,0,1,6.4,2.505,64.3,64.3,0,0,1,9.852,7.269c1.234,1.039,2.471,2.078,3.732,3.078,3.624,2.877,9.18,6.764,15.536,7.363a36.911,36.911,0,0,0,6.443-.155l.628-.043c.07-.309.14-.618.213-.932C597.846,597.723,597.542,597.738,597.237,597.762Z" transform="translate(-555.35 -551.741)" fill="#fff"/>
    </g>
    <path id="Path_74569" data-name="Path 74569" d="M727.333,569.192,720.9,566.37s1.643,10.221,4.745,11.68Z" transform="translate(-476.42 -274.349)" fill="#e49b31"/>
    <path id="Path_74570" data-name="Path 74570" d="M959.823,533.492c-1.307.428-2.8.867-4.508,1.331L950.6,517.7Z" transform="translate(-650.629 -237.437)" fill="#e28b6d"/>
    <path id="Path_74571" data-name="Path 74571" d="M2158.64,904.586,2173.6,911.3l11.151-36.706-14.606-3.839A219.241,219.241,0,0,0,2158.64,904.586Z" transform="translate(-1566.832 -505.205)" fill="#e28b6d"/>
    <path id="Path_74572" data-name="Path 74572" d="M2206.28,775.233l14.606,3.839,12.466-34.241S2218.291,742.794,2206.28,775.233Z" transform="translate(-1602.964 -409.678)" fill="#ce6e70"/>
    <path id="Path_74573" data-name="Path 74573" d="M2099.069,958.11l-10.789,29.724,40.307,15.471,8.144-30.944Z" transform="translate(-1513.47 -571.453)" fill="#102048"/>
    <path id="Path_74574" data-name="Path 74574" d="M2146.485,1078.668c-.292.841-2.706,1.846-4.254.483-3.017-.534-5.054-.916-6.936-3a2.923,2.923,0,0,1-1.677-4.039c1.481-2.969,3.776-7.153,4.865-6.989,1.37.208.379,4.435.379,4.435s2.281-5.363,4.448-4.655c.966.319-1.358,5.423-1.592,5.962.365-.483,3.261-4.385,4.37-3.566s-1.592,5.436-1.879,5.924c.314-.391,2.858-3.457,4.107-2.442C2148.843,1071.22,2148,1074.334,2146.485,1078.668Z" transform="translate(-1547.626 -652.402)" fill="#e28b6d"/>
    <path id="Path_74575" data-name="Path 74575" d="M2501.2,1482.2s19.544-2.138,27.781-20.155l-21.679,1.222Z" transform="translate(-1826.637 -953.652)" fill="#102048"/>
    <path id="Path_74576" data-name="Path 74576" d="M2531.729,1462.89,2513,1474.5l8.426,12.376,18.061-12.306Z" transform="translate(-1835.586 -954.289)" fill="#e28b6d"/>
    <path id="Path_74577" data-name="Path 74577" d="M2577.524,1528.657l-11.584-17.437-18.06,12.306,3.075,4.52-1.831,24.124Z" transform="translate(-1862.04 -990.943)" fill="#102048"/>
    <rect id="Rectangle_1920" data-name="Rectangle 1920" width="9.182" height="1.22" transform="translate(688.874 536.517) rotate(-2.91)" fill="#fff"/>
    <path id="Path_74578" data-name="Path 74578" d="M2305.191,1595.58l-20.561-1.22v16.647l22.119-1.4Z" transform="translate(-1662.386 -1053.998)" fill="#e28b6d"/>
    <path id="Path_74579" data-name="Path 74579" d="M2236.053,1658.864v3.914l-15.473,15.473h39.9l-2.309-20.79Z" transform="translate(-1613.809 -1101.855)" fill="#102048"/>
    <rect id="Rectangle_1921" data-name="Rectangle 1921" width="1.222" height="10.132" transform="matrix(0.502, -0.865, 0.865, 0.502, 621.455, 561.73)" fill="#fff"/>
    <path id="Path_74580" data-name="Path 74580" d="M2259.221,1019.557c-.316,7.571-.377,15.56-.241,23.609.123,6.987.379,14.012.746,20.9,1.759,34.164,5.827,64.419,5.827,64.419l-31.76,4.08c-15.06-105.048-5.288-149.436-5.288-149.436l13.838-2.817,12.287-2.505L2268.4,975c-.172.258-.343.527-.5.807a46.767,46.767,0,0,0-5.044,13.425C2260.847,997.667,2259.723,1008.147,2259.221,1019.557Z" transform="translate(-1617.455 -584.263)" fill="#3a6bea"/>
    <path id="Path_74581" data-name="Path 74581" d="M2338.518,1184.2c-13.316-28.3-8.32-50.8-8.32-50.8l7.817,6.281c-.316,7.571-.377,15.56-.241,23.609C2337.894,1170.287,2338.15,1177.324,2338.518,1184.2Z" transform="translate(-1696.249 -704.397)" fill="#1f3c88"/>
    <path id="Path_74582" data-name="Path 74582" d="M2372.747,1091.994c-15.268,5.8-27.782,20.155-27.782,20.155a497.662,497.662,0,0,1-33.041-69.65,307.172,307.172,0,0,1-15.6-56.114q-.565-3.392-1.036-6.742c-.039-.208-.075-.428-.1-.635l12.386-1.87,13.287-2,6.706-1.015c.725,4.276,1.691,8.748,2.846,13.352C2341.955,1033.449,2372.747,1091.994,2372.747,1091.994Z" transform="translate(-1670.395 -583.596)" fill="#3a6bea"/>
    <g id="Group_1236" data-name="Group 1236" transform="translate(608.199 411.411)" opacity="0.8">
      <path id="Path_74583" data-name="Path 74583" d="M2453.911,1099q-.293-.725-.583-1.449a38.875,38.875,0,0,1-6.958-5.477,28.159,28.159,0,0,1-7.6-22.832,26.914,26.914,0,0,1,2.07-7.332c-.13-.447-.256-.889-.384-1.334a28.1,28.1,0,0,0-2.6,8.545,29.116,29.116,0,0,0,7.852,23.593A42.411,42.411,0,0,0,2453.911,1099Z" transform="translate(-2386.629 -1060.58)" fill="#fff"/>
      <path id="Path_74584" data-name="Path 74584" d="M2465.891,1368.066c-.128-.271-.256-.541-.384-.816-3.382,1.377-7.407,1.614-11.6,1.853-4.23.242-8.6.483-12.437,1.983a19.34,19.34,0,0,0-9.115,7.554c.157.321.316.645.483.966a18.586,18.586,0,0,1,8.972-7.67c3.7-1.449,8-1.691,12.156-1.933S2462.316,1369.533,2465.891,1368.066Z" transform="translate(-2382.626 -1293.165)" fill="#fff"/>
      <path id="Path_74585" data-name="Path 74585" d="M2239.182,1342.533c10.158,5.158,18.387,13.8,25.663,21.914q-.063-.751-.123-1.507c-7.131-7.907-15.2-16.186-25.124-21.223a42.806,42.806,0,0,0-9.687-3.546c.02.319.039.638.061.966A42.011,42.011,0,0,1,2239.182,1342.533Z" transform="translate(-2229.083 -1271.11)" fill="#fff"/>
      <path id="Path_74586" data-name="Path 74586" d="M2280.664,1534.009a17.059,17.059,0,0,1-7.617-.085,51.756,51.756,0,0,1-7.006-2.377,50.279,50.279,0,0,0-7.489-2.505,24.694,24.694,0,0,0-10.992.176c.036.3.075.614.114.918a23.78,23.78,0,0,1,10.683-.2,48.544,48.544,0,0,1,7.356,2.462,51.278,51.278,0,0,0,7.124,2.416,17.959,17.959,0,0,0,7.926.1C2280.731,1534.627,2280.7,1534.316,2280.664,1534.009Z" transform="translate(-2242.47 -1415.466)" fill="#fff"/>
      <path id="Path_74587" data-name="Path 74587" d="M2233.834,1145.656a21.242,21.242,0,0,1-7.342,16.85c.012.387.027.785.041,1.177a21.487,21.487,0,0,0,0-33.843q-.027.57-.043,1.152A21.157,21.157,0,0,1,2233.834,1145.656Z" transform="translate(-2226.49 -1113.108)" fill="#fff"/>
    </g>
    <path id="Path_74588" data-name="Path 74588" d="M2287.236,987.487a75.841,75.841,0,0,1-14.6,1.087,119.483,119.483,0,0,1-34.36-6.1l13.84-2.817c-.039-.208-.075-.428-.1-.635l12.386-1.87,13.77-2.81c-.171.258-.343.527-.5.807l6.706-1.015C2285.112,978.411,2286.076,982.883,2287.236,987.487Z" transform="translate(-1627.233 -583.611)" fill="#1f3c88" opacity="0.4"/>
    <path id="Path_74589" data-name="Path 74589" d="M2300.707,1156.876a.609.609,0,0,1-.575-.406l-8.823-24.81-10.605-6.4a.611.611,0,1,1,.633-1.046l10.977,6.626,8.968,25.223a.607.607,0,0,1-.575.814Z" transform="translate(-1659.185 -697.362)" fill="#1f3c88"/>
    <path id="Path_74590" data-name="Path 74590" d="M2276.157,802.466c-20.459,7.781-55.578,3.409-55.578,3.409,1.43-14.867,1.527-58.839,24.431-64.335l10.236,1.075c5.363,2.1,9.552,10.112,12.7,19.628a157.03,157.03,0,0,1,4.607,17.686C2275.07,792.083,2276.157,802.466,2276.157,802.466Z" transform="translate(-1613.809 -407.202)" fill="#ec7e81"/>
    <path id="Path_74591" data-name="Path 74591" d="M2399.106,843.2c-9.639-5.6-11.666-18.237-11.666-18.237l7.059.551A156.978,156.978,0,0,1,2399.106,843.2Z" transform="translate(-1740.359 -470.469)" fill="#102048"/>
    <path id="Path_74592" data-name="Path 74592" d="M2359.735,745.994l-1.375,19.7,21.017,11.229,4.261-20.418C2365.156,745.583,2359.735,745.994,2359.735,745.994Z" transform="translate(-1718.304 -410.578)" fill="#ec7e81"/>
    <path id="Path_74593" data-name="Path 74593" d="M2465.779,728.861a14.286,14.286,0,0,1-18.676,4.764l-1.722-.916,4.257-20.4c1.135.684,2.322,1.391,3.578,2.162,0,0,16.638-23.513,17.86-23.049,1.1.4-.771,4.042-1.15,4.764.725-1.063,6.122-8.979,7.562-8.429,1.147.427-.3,3.945-.483,4.372.329-.483,3.225-4.74,4.972-3.713.807.483-2.31,5.092-2.614,5.556.379-.365,3.834-3.713,4.689-2.711s-2.479,5.008-2.858,5.46c.343-.3,3.3-2.882,4.24-1.635C2486.666,696.683,2471.546,720.075,2465.779,728.861Z" transform="translate(-1784.302 -366.389)" fill="#e28b6d"/>
    <path id="Path_74594" data-name="Path 74594" d="M2487.395,857.123a13.977,13.977,0,0,1-4.018,2.9,14.252,14.252,0,0,1-7.1,1.406,5.609,5.609,0,0,1-.16-1.355,6.025,6.025,0,0,1,11.274-2.957Z" transform="translate(-1807.616 -492.53)" fill="#eb5d60" opacity="0.4"/>
    <path id="Path_74595" data-name="Path 74595" d="M2242.661,973.371c-9.03,0-17.118-.577-21.087-.916l-.483-.041a.459.459,0,0,1,.012-.916c.031,0,.218.014.544.043,9.045.775,39.619,2.8,53.466-3.665a.459.459,0,0,1,.387.831C2267.58,972.4,2254.33,973.371,2242.661,973.371Z" transform="translate(-1613.878 -578.836)" fill="#ffb4b6"/>
    <path id="Path_74596" data-name="Path 74596" d="M2309.226,786.558a8.5,8.5,0,0,1-7.037-3.256.458.458,0,1,1,.768-.5c.16.242,3.993,5.875,13.649.662a.457.457,0,1,1,.435.8A16.5,16.5,0,0,1,2309.226,786.558Z" transform="translate(-1675.647 -438.339)" fill="#ffb4b6"/>
    <path id="Path_74597" data-name="Path 74597" d="M2379.074,584.025c2.563-1.449,6.025-1.573,8.3.295,1.186.966,1.947,2.37,3.049,3.438,2.36,2.293,6.04,2.87,8.291,5.259a9.352,9.352,0,0,1,2.2,7.073,24.4,24.4,0,0,1-2.012,7.32c-1.351,3.368-2.9,6.788-5.607,9.216a8.339,8.339,0,0,1-3.59,2.01,4.787,4.787,0,0,1-3.957-.725,5.274,5.274,0,0,1-1.834-3.846,15.656,15.656,0,0,1,.52-4.348,2.317,2.317,0,0,0,3.515-2.247c-.174-1.449-1.611-2.375-2.9-3.08l-6.4-3.505a12.366,12.366,0,0,1-3.464-2.459c-1.57-1.79-2.831-5.721-1.792-7.972A14.678,14.678,0,0,1,2379.074,584.025Z" transform="translate(-1729.416 -286.907)" fill="#1d1d1b"/>
    <path id="Path_74598" data-name="Path 74598" d="M2291.7,602.638s-.13-14.473,17.841-10.658a13.328,13.328,0,0,1,7.658,4.7c2.923,3.624,4.8,18.843-3.563,23.056C2303.151,625.032,2291.7,602.638,2291.7,602.638Z" transform="translate(-1667.748 -293.286)" fill="#4a3b0c"/>
    <path id="Path_74599" data-name="Path 74599" d="M2324.563,687.18l-.416,14.536a7.1,7.1,0,0,1-6.718,6.878h-.367a7.1,7.1,0,0,1-7.059-7.687l.024-.242.952-11.043,1.208-.22Z" transform="translate(-1681.611 -365.974)" fill="#e28b6d"/>
    <path id="Path_74600" data-name="Path 74600" d="M2318.558,699.349a16.887,16.887,0,0,1-8.378,8.293l.952-11.043,1.208-.22Z" transform="translate(-1681.763 -372.952)" fill="#102048"/>
    <path id="Path_74601" data-name="Path 74601" d="M2289.837,614.087s-4.59,19.085,5.037,20,13.589-7.789,13.589-7.789l1.223-10.84-5.955-8.552-9.467,2.9Z" transform="translate(-1665.505 -305.096)" fill="#e28b6d"/>
    <path id="Path_74602" data-name="Path 74602" d="M2293.27,610.3s8.849-4.964,12.062,1.691c2.24,4.631,5.648,7.177,9.008,5.651s.609-12.521.609-12.521l-12.519-3.206-7.489,4.273Z" transform="translate(-1668.939 -301.303)" fill="#4a3b0c"/>
    <ellipse id="Ellipse_282" data-name="Ellipse 282" cx="4.182" cy="3.457" rx="4.182" ry="3.457" transform="translate(637.755 318.63) rotate(-60)" fill="#e28b6d"/>
    <path id="Path_74603" data-name="Path 74603" d="M2365.042,664.713h-.022a.3.3,0,0,1-.283-.326c.077-1.085.763-3.141,2.8-3.141a.307.307,0,1,1,0,.611c-1.974,0-2.174,2.462-2.189,2.566a.307.307,0,0,1-.3.29Z" transform="translate(-1723.14 -346.304)" fill="#102048"/>
    <path id="Path_74604" data-name="Path 74604" d="M2294.4,662.558a.78.78,0,1,1-.78-.778A.78.78,0,0,1,2294.4,662.558Z" transform="translate(-1668.613 -346.71)" fill="#102048"/>
    <circle id="Ellipse_283" data-name="Ellipse 283" cx="0.865" cy="0.865" r="0.865" transform="translate(630.108 314.92)" fill="#102048"/>
    <path id="Path_74605" data-name="Path 74605" d="M2301.292,671.129a1.417,1.417,0,0,1-1.365-.633c-.606-1.1.795-3.167,1.08-3.568a.307.307,0,0,1,.5.353c-.744,1.044-1.343,2.382-1.046,2.923.128.242.464.336.983.312h.017a.3.3,0,1,1,.017.609C2301.413,671.129,2301.353,671.129,2301.292,671.129Z" transform="translate(-1673.873 -350.53)" fill="#102048"/>
    <circle id="Ellipse_284" data-name="Ellipse 284" cx="2.73" cy="2.73" r="2.73" transform="translate(631.736 317.803) rotate(-22.5)" fill="#eb5d60" opacity="0.4"/>
    <path id="Path_74606" data-name="Path 74606" d="M2302.554,690.407a3.323,3.323,0,0,1-1.449-.312.305.305,0,1,1,.282-.541,3.06,3.06,0,0,0,3.423-.725.3.3,0,1,1,.411.449A3.894,3.894,0,0,1,2302.554,690.407Z" transform="translate(-1674.756 -367.165)" fill="#102048"/>
    <path id="Path_74607" data-name="Path 74607" d="M2292.792,654.192a7.938,7.938,0,0,0-1.58-.28,2.082,2.082,0,0,0-.693.077,4.014,4.014,0,0,0-.744.28l-.029.012a.189.189,0,0,1-.242-.242,1.637,1.637,0,0,1,.689-.773,2.054,2.054,0,0,1,1.051-.242,2.43,2.43,0,0,1,1.759.9.186.186,0,0,1-.186.295Z" transform="translate(-1666.073 -340.069)" fill="#102048"/>
    <path id="Path_74608" data-name="Path 74608" d="M2312.455,652.542a2.754,2.754,0,0,1,2.114-1.341,2.336,2.336,0,0,1,1.312.292,2.452,2.452,0,0,1,.9.887.184.184,0,0,1-.242.266h-.019a6.856,6.856,0,0,0-.966-.413,2.15,2.15,0,0,0-.925-.116,4.365,4.365,0,0,0-1.911.674h-.022a.181.181,0,0,1-.242-.075A.184.184,0,0,1,2312.455,652.542Z" transform="translate(-1683.473 -338.682)" fill="#102048"/>
    <rect id="Rectangle_1922" data-name="Rectangle 1922" width="677.924" height="1.222" transform="translate(96.803 575.784)" fill="#102048"/>
  </g>
</svg>
